<?xml version="1.0" encoding="UTF-8"?>
<svg width="1170px" height="360px" viewBox="0 0 1170 360" version="1.1" xmlns="http://www.w3.org/2000/svg" xmlns:xlink="http://www.w3.org/1999/xlink">
    <!-- Generator: Sketch 57.1 (83088) - https://sketch.com -->
    <title>Group 23</title>
    <desc>Created with Sketch.</desc>
    <defs>
        <linearGradient x1="49.1165865%" y1="-50.90927%" x2="49.1165865%" y2="348.017332%" id="linearGradient-1">
            <stop stop-color="#FAFBFC" offset="0%"></stop>
            <stop stop-color="#F0FBFC" offset="100%"></stop>
        </linearGradient>
        <polygon id="path-2" points="0 0 470 0 1170 0 1170 360 0 360"></polygon>
    </defs>
    <g id="Page-1" stroke="none" stroke-width="1" fill="none" fill-rule="evenodd">
        <g id="Home" transform="translate(-270.000000, -143.000000)">
            <g id="Group-23" transform="translate(270.000000, 143.000000)">
                <g id="Group-15">
                    <mask id="mask-3" fill="white">
                        <use xlink:href="#path-2"></use>
                    </mask>
                    <g id="Rectangle">
                        <use fill="url(#linearGradient-1)" xlink:href="#path-2"></use>
                        <use fill="#005B9C" xlink:href="#path-2"></use>
                    </g>
                    <path d="M449.719376,97.7983871 L445.510022,89.5443548 C445.510022,89.4516129 445.510022,89.358871 445.416481,89.266129 L425.398664,50.2217742 C425.305122,50.0362903 425.211581,49.9435484 425.11804,49.8508065 L409.496659,39.1854839 C409.309577,39.0927419 409.122494,39 408.935412,39 C408.74833,39 408.654788,39 408.467706,39.0927419 C408.187082,39.2782258 408,39.5564516 408,39.9274194 L408,58.3830645 C408,58.5685484 408,58.6612903 408.093541,58.8467742 L428.2049,97.891129 L428.2049,97.891129 L430.730512,102.806452 L431.478842,104.197581 L432.601336,106.423387 C433.069042,107.443548 434.097996,108 435.126949,108 C435.126949,108 435.126949,108 435.126949,108 C435.594655,108 435.96882,107.907258 436.436526,107.721774 L443.265033,104.290323 L445.977728,102.899194 L448.4098,101.693548 C449.438753,101.229839 450,100.209677 450,99.1895161 C450,98.6330645 449.906459,98.1693548 449.719376,97.7983871 Z M426.666667,57.7571429 L443,89.7 L440.48,91 L437.026667,84.5 L422,55.7142857 L424.52,52 L426.666667,57.7571429 Z M433.519685,94 L415,58.9458824 L415.188976,58.3952941 L416.322835,55 L419.724409,56.1011765 L420.291339,56.2847059 L439,91.2470588 L433.519685,94 Z M423,50.8275862 L420.695035,54.2298851 L416.269504,52.7586207 C416.177305,52.7586207 416.085106,52.7586207 415.992908,52.7586207 C415.624113,52.7586207 415.255319,53.0344828 415.070922,53.4022989 L413.595745,58 L410,57.6321839 L410,42 L423,50.8275862 Z M414.51046,65.9899244 L410,59 L414.050209,59.372796 L428.317992,87.6120907 L432,94.7884131 L429.698745,96 L414.51046,65.9899244 Z M447.50284,99.9634146 L441.731634,102.79878 L438.987945,104.170732 L435.392767,105.908537 C435.203547,106 435.108937,106 434.919717,106 C434.541278,106 434.162838,105.817073 434.068228,105.45122 L433.311348,104.079268 L432.554469,102.707317 L430,97.8597561 L443.907662,91 L447.88128,98.5 C447.97589,98.6829268 447.97589,98.7743902 447.97589,98.9573171 C448.0705,99.5060976 447.88128,99.7804878 447.50284,99.9634146 Z" id="Shape" fill="#003147" fill-rule="nonzero" mask="url(#mask-3)"></path>
                    <path d="M334.53125,289.594595 L347.09375,257.996139 C347.1875,257.625483 347.1875,257.254826 346.90625,256.976834 C344.84375,255.030888 343.71875,252.158301 343.71875,249.285714 C343.71875,247.988417 344,246.598456 344.46875,245.393822 C345.875,241.779923 349.0625,239.46332 352.71875,239 L349.53125,246.876448 L349.53125,246.876448 C349.34375,247.247104 349.34375,247.617761 349.34375,247.988417 C349.34375,249.19305 350.09375,250.397683 351.3125,250.861004 L351.3125,250.861004 L355.34375,252.436293 L355.34375,252.436293 C355.71875,252.621622 356.09375,252.621622 356.46875,252.621622 C356.46875,252.621622 356.46875,252.621622 356.46875,252.621622 C357.6875,252.621622 358.8125,251.880309 359.28125,250.675676 L359.28125,250.675676 L362.46875,242.799228 C364.0625,244.65251 365,246.876448 365,249.285714 C365,250.490347 364.71875,251.787645 364.25,253.084942 C363.40625,255.030888 362,256.791506 360.21875,257.996139 C358.4375,259.200772 356.28125,259.942085 354.21875,259.942085 C353.84375,259.942085 353.46875,260.220077 353.375,260.498069 L340.8125,292.003861 C340.71875,292.374517 340.71875,292.745174 341,293.023166 C343.0625,294.969112 344.1875,297.841699 344.1875,300.714286 C344.1875,302.011583 343.90625,303.401544 343.4375,304.606178 C342.03125,308.220077 338.84375,310.53668 335.1875,311 L338.375,303.216216 C338.5625,302.84556 338.65625,302.382239 338.65625,302.011583 C338.65625,301.455598 338.46875,300.899614 338.1875,300.343629 C337.90625,299.880309 337.34375,299.416988 336.78125,299.23166 L336.78125,299.23166 L332.65625,297.749035 L332.65625,297.749035 C332.28125,297.563707 331.90625,297.563707 331.53125,297.563707 C330.3125,297.563707 329.1875,298.305019 328.71875,299.509653 L325.53125,307.3861 C323.9375,305.532819 323,303.30888 323,300.899614 C323,299.694981 323.28125,298.397683 323.75,297.100386 C324.59375,295.15444 326,293.393822 327.78125,292.189189 C329.5625,290.984556 331.71875,290.243243 333.78125,290.243243 C334.0625,290.150579 334.4375,289.965251 334.53125,289.594595 L334.53125,289.594595 M354.154004,237 C349.147844,237 344.613963,239.973105 342.63039,244.711491 C342.063655,246.198044 341.780287,247.777506 341.780287,249.356968 C341.780287,252.515892 342.913758,255.674817 345.180698,257.997555 L332.995893,288.471883 C330.728953,288.657702 328.462012,289.400978 326.572895,290.701711 C324.494867,292.095355 322.794661,294.139364 321.850103,296.462103 C321.283368,297.948655 321,299.435208 321,300.92176 C321,304.266504 322.511294,307.518337 325.156057,309.841076 C325.344969,310.026895 325.533881,310.026895 325.817248,310.026895 C325.911704,310.026895 326.00616,310.026895 326.00616,310.026895 C326.289528,309.933985 326.572895,309.748166 326.667351,309.469438 L330.351129,300.271394 C330.540041,299.713936 331.01232,299.435208 331.4846,299.435208 C331.579055,299.435208 331.767967,299.435208 331.956879,299.528117 L331.956879,299.528117 L336.112936,301.01467 C336.301848,301.107579 336.49076,301.200489 336.585216,301.386308 C336.679671,301.572127 336.774127,301.757946 336.774127,302.036675 C336.774127,302.222494 336.774127,302.408313 336.679671,302.594132 L332.995893,311.792176 C332.901437,312.070905 332.901437,312.442543 333.090349,312.628362 C333.279261,312.90709 333.562628,313 333.845996,313 C333.845996,313 333.845996,313 333.845996,313 C338.852156,313 343.386037,310.026895 345.36961,305.288509 C345.936345,303.801956 346.219713,302.222494 346.219713,300.643032 C346.219713,297.484108 345.086242,294.325183 342.819302,292.002445 L355.004107,261.528117 C357.271047,261.342298 359.537988,260.599022 361.427105,259.298289 C363.505133,257.904645 365.205339,255.860636 366.149897,253.537897 C366.716632,252.051345 367,250.564792 367,249.07824 C367,245.733496 365.488706,242.481663 362.843943,240.158924 C362.655031,239.973105 362.466119,239.973105 362.182752,239.973105 C362.088296,239.973105 361.99384,239.973105 361.99384,239.973105 C361.710472,240.066015 361.427105,240.251834 361.332649,240.530562 L357.648871,249.728606 L357.648871,249.728606 C357.459959,250.193154 356.98768,250.471883 356.5154,250.471883 C356.326489,250.471883 356.232033,250.471883 356.043121,250.378973 L356.043121,250.378973 L351.98152,248.799511 L351.98152,248.799511 C351.50924,248.613692 351.225873,248.149144 351.225873,247.684597 C351.225873,247.498778 351.225873,247.405868 351.320329,247.220049 L351.320329,247.220049 L355.004107,238.022005 C355.098563,237.743276 355.098563,237.371638 354.909651,237.185819 C354.720739,237.185819 354.437372,237 354.154004,237" id="Shape" fill="#003147" fill-rule="nonzero" mask="url(#mask-3)"></path>
                    <path d="M585.518519,32 L585.67158,32.0106122 C585.966364,32.0514286 586.193122,32.2 586.351852,32.28 C586.537037,32.3733333 586.722222,32.56 586.907407,32.7466667 L586.907407,32.7466667 L593.851852,39.7466667 L593.203704,40.4 L592.555556,41.0533333 L591.907407,40.4 L586.259259,34.7066667 L586.259259,57.76 L601.722222,57.76 L601.722222,59.6266667 L585.333333,59.6266667 C585.055556,59.6266667 584.87037,59.5333333 584.685185,59.3466667 C584.5,59.16 584.407407,58.9733333 584.407407,58.6933333 L584.407407,58.6933333 L584.407407,35.1733333 L579.12963,40.4 L578.481481,41.0533333 L577.833333,40.4 L577.185185,39.7466667 L584.12963,32.7466667 C584.222222,32.7466667 584.314815,32.6533333 584.407407,32.56 L584.407407,32.56 L584.407407,32.3733333 L584.592593,32.3733333 C584.592593,32.28 584.685185,32.28 584.685185,32.28 C584.87037,32.0933333 585.148148,32 585.518519,32 L585.518519,32 Z M583.38965,8 C592.117199,8 599.544901,13.1374207 603.073059,20.653277 C610.964992,21.6046512 617,28.4545455 617,36.7315011 C617,45.769556 609.850837,53 601.123288,53 L601.123288,53 L591.281583,53 L591.281583,51.0972516 L591.281583,51.0972516 L601.123288,51.0972516 C605.022831,51.0972516 608.550989,49.4799154 611.057839,46.9112051 C613.564688,44.2473573 615.143075,40.7272727 615.143075,36.7315011 C615.143075,29.2156448 609.572298,23.1268499 602.423135,22.4608879 C602.144597,22.3657505 601.773212,22.1754757 601.680365,21.8900634 C598.430746,14.8498943 591.467275,9.90274841 583.38965,9.90274841 L583.38965,9.90274841 L582.939203,9.90773509 C577.54888,10.0272123 572.70731,12.2863265 569.18417,15.8964059 C565.563166,19.6067653 563.334855,24.744186 563.334855,30.4524313 C563.334855,31.3086681 563.427702,32.1649049 563.520548,32.9260042 C563.520548,33.3065539 563.334855,33.6871036 562.96347,33.8773784 C559.99239,35.3044397 557.856925,38.4439746 557.856925,42.0591966 C557.856925,44.5327696 558.878234,46.8160677 560.456621,48.4334038 C562.035008,50.05074 564.263318,51.0972516 566.677321,51.0972516 L566.677321,51.0972516 L580.604262,51.0972516 L580.604262,53 L580.604262,53 L566.677321,53 C560.73516,53 556,48.0528541 556,42.0591966 C556,37.8731501 558.228311,34.2579281 561.570776,32.4503171 C561.47793,31.7843552 561.47793,31.1183932 561.47793,30.4524313 C561.47793,18.0845666 571.226788,8 583.38965,8 Z" id="Combined-Shape" fill="#003147" fill-rule="nonzero" mask="url(#mask-3)"></path>
                    <path d="M533,284 C541.899408,284 549,291.088937 549,299.763557 C549,302.468547 547.95858,305.453362 546.538462,308.531453 C545.118343,311.609544 543.224852,314.687636 541.331361,317.4859 C538.301775,322.056399 535.177515,325.787419 534.136095,327 L534.136095,327 L531.95858,327 C531.201183,326.160521 529.497041,324.10846 527.508876,321.403471 C524.857988,317.859002 521.639053,313.101952 519.461538,308.531453 C518.04142,305.453362 517,302.468547 517,299.763557 C517,291.088937 524.195266,284 533,284 Z M533.094675,285.86551 C529.213018,285.86551 525.710059,287.451193 523.153846,289.969631 C520.597633,292.488069 518.988166,295.939262 518.988166,299.763557 C518.988166,301.815618 519.745562,304.520607 520.976331,307.225597 C522.207101,309.930586 523.911243,312.822126 525.615385,315.433839 C528.550296,319.911063 531.674556,323.735358 533,325.414317 C533.189349,325.227766 533.378698,324.947939 533.662722,324.668113 C534.514793,323.642082 535.650888,322.149675 536.976331,320.37744 C539.627219,316.832972 542.751479,312.169197 544.83432,307.785249 C546.254438,304.800434 547.106509,302.002169 547.201183,299.763557 C547.201183,295.939262 545.591716,292.488069 543.035503,289.969631 C540.47929,287.451193 536.976331,285.86551 533.094675,285.86551 Z M533,292 C536.868421,292 540,295.131579 540,299 C540,302.868421 536.868421,306 533,306 C529.131579,306 526,302.868421 526,299 C526,295.131579 529.131579,292 533,292 Z M533,293.842105 C531.526316,293.842105 530.236842,294.394737 529.315789,295.315789 C528.394737,296.236842 527.842105,297.526316 527.842105,299 C527.842105,300.473684 528.394737,301.763158 529.315789,302.684211 C530.236842,303.605263 531.526316,304.157895 533,304.157895 C534.473684,304.157895 535.763158,303.605263 536.684211,302.684211 C537.605263,301.671053 538.157895,300.381579 538.157895,299 C538.157895,297.526316 537.605263,296.236842 536.684211,295.315789 C535.671053,294.394737 534.473684,293.842105 533,293.842105 Z" id="Combined-Shape" fill="#003147" fill-rule="nonzero" mask="url(#mask-3)"></path>
                    <path d="M128,49 C128.3,49 128.5,49.1 128.7,49.3 C128.866667,49.4666667 128.963889,49.7027778 128.991667,49.8925926 L129,50 L129,101 C129,101.3 128.9,101.5 128.7,101.7 C128.528571,101.871429 128.357143,101.969388 128.122741,101.993878 L128,102 L77,102 C76.7,102 76.5,101.9 76.3,101.7 C76.1285714,101.528571 76.0306122,101.357143 76.0061224,101.122741 L76,101 L76,50 C76,49.7 76.1,49.5 76.3,49.3 C76.4714286,49.1285714 76.6428571,49.0306122 76.8772595,49.0061224 L77,49 L128,49 Z M127,63.2 L78,63.2 L78,100.1 L127,100.1 L127,63.2 Z M96.4,76.4 L96.4,78.4 L87.2,78.4 L87.2,76.4 L96.4,76.4 Z M82.2,66.2 L86.8,70.8 C87,70.9 87.1,71 87.2,71.2 C87.3,71.4 87.4,71.7 87.4,72 C87.4,72.3428571 87.3265306,72.5387755 87.2425656,72.7137026 L87.2,72.8 L82.2,77.8 L80.8,76.4 L81.5,75.5 L85.1,71.9 L80.8,67.6 L81.5,66.9 L82.2,66.2 Z M126.9,51 L77.9,51 L77.9,61.2 L126.9,61.2 L126.9,51 Z M83.6,52.7 C85.5,52.7 87,54.2 87,56.1 C87,58 85.5,59.5 83.6,59.5 C81.7,59.5 80.2,58 80.2,56.1 C80.2,54.2 81.7,52.7 83.6,52.7 Z M92.7,52.7 C94.6,52.7 96.1,54.2 96.1,56.1 C96.1,58 94.6,59.5 92.7,59.5 C90.8,59.5 89.3,58 89.3,56.1 C89.3,54.2 90.8,52.7 92.7,52.7 Z M101.8,52.7 C103.7,52.7 105.2,54.2 105.2,56.1 C105.2,58 103.7,59.5 101.8,59.5 C99.9,59.5 98.4,58 98.4,56.1 C98.4,54.2 99.9,52.7 101.8,52.7 Z M83.6,54.7 C82.8,54.7 82.2,55.3 82.2,56.1 C82.2,56.9 82.8,57.5 83.6,57.5 C84.4,57.5 85,56.9 85,56.1 C85,55.3 84.4,54.7 83.6,54.7 Z M92.7,54.7 C91.9,54.7 91.3,55.3 91.3,56.1 C91.3,56.9 91.9,57.5 92.7,57.5 C93.5,57.5 94.1,56.9 94.1,56.1 C94.1,55.3 93.5,54.7 92.7,54.7 Z M101.8,54.7 C101,54.7 100.4,55.3 100.4,56.1 C100.4,56.9 101,57.5 101.8,57.5 C102.6,57.5 103.3,56.9 103.2,56.1 C103.2,55.3 102.6,54.7 101.8,54.7 Z" id="Combined-Shape" fill="#003147" fill-rule="nonzero" mask="url(#mask-3)"></path>
                    <path d="M265.8,20 C249.9,20 237,32.9 237,48.8 C237,64.7 249.9,77.6 265.8,77.6 C281.7,77.6 294.6,64.7 294.6,48.8 C294.6,32.9 281.7,20 265.8,20 Z M270.8,28.9 C270.9,29.3 271.2,29.6 271.6,29.7 C271.7,29.7 271.9,29.7 272,29.8 C271.9,29.8 271.8,29.9 271.7,29.9 C270.8,30.1 269.7,30.4 268.4,31.1 C268.1,31.3 267.9,31.5 267.6,31.7 C266.7,32.5 265.6,33.8 264.7,35 C264.3,35.5 264,35.9 263.7,36.3 C263.5,36.1 263.2,35.9 262.9,35.7 C262.5,35.4 261.9,35.2 261.3,35.2 L261.1,35.2 L261.1,35.2 C260.2,35.3 259.3,35.3 258.4,35.6 C257.9,35.8 257.5,36 257.1,36.4 C256.7,36.8 256.4,37.3 256.2,37.9 C255.9,38.6 255.8,39.1 255.8,39.7 C255.8,39.9 255.8,40.1 255.9,40.4 C255.9,40.4 255.9,40.4 255.9,40.4 C255.3,40.2 254.9,40 254.6,39.7 C254.6,39.7 254.5,39.6 254.5,39.4 C254.2,38.8 253.8,37.7 253.4,36.8 C253.2,36.3 253,35.9 252.7,35.5 C252.6,35.3 252.4,35.1 252.2,34.9 C252,34.7 251.7,34.6 251.3,34.5 C251.2,34.5 251.1,34.5 251,34.5 C250.8,33.7 250.7,32.8 250.7,32.1 C250.7,31.9 250.7,31.7 250.7,31.6 L250.7,31.6 C250.7,31.4 250.8,31.3 250.9,31 C251.1,30.7 251.6,30.3 252,29.8 C252.2,29.5 252.5,29.2 252.6,28.9 C252.8,28.5 252.9,28.1 252.9,27.6 C252.9,27.1 252.8,26.6 252.6,26.1 L252.6,26.1 C252.6,26 252.5,25.9 252.5,25.9 C255.3,24.3 258.3,23.2 261.6,22.6 C263.6,22.5 266.3,22.4 268.5,22.4 C268.3,22.5 268,22.6 267.8,22.7 C267.1,23 266.4,23.4 265.9,23.7 C265.6,23.9 265.4,24 265.2,24.3 C265.1,24.4 265,24.5 264.9,24.7 C264.8,24.9 264.7,25.1 264.7,25.4 C264.7,25.4 264.7,25.5 264.7,25.7 C264.7,25.8 264.8,25.9 264.8,25.9 C264.9,26 264.9,26.1 264.9,26.1 L265,26.2 C265.2,26.3 265.4,26.5 265.7,26.8 C266.2,27.2 266.7,27.6 267.2,27.9 C267.4,28.1 267.6,28.2 267.7,28.3 L267.8,28.4 C267.9,28.6 268.1,28.7 268.3,28.7 C268.5,28.7 268.7,28.8 268.8,28.8 C269.6,28.8 270.2,28.4 270.7,28 C271.4,27.4 272,26.6 272.5,26.1 C272.8,25.8 273,25.6 273.3,25.5 C273.5,25.4 273.8,25.3 274,25.3 C274.2,25.3 274.5,25.3 274.8,25.5 C274.9,25.7 274.9,25.8 275,26 C275.2,26.4 275.4,26.8 275.6,27.1 C275.5,27.1 275.5,27.1 275.4,27.2 C274.8,27.3 274,27.4 273.2,27.5 C272.8,27.5 272.5,27.6 272.1,27.7 C271.8,27.8 271.5,27.8 271.1,28 C270.9,28.1 270.7,28.5 270.8,28.9 Z M250.7,26.7 C251.2,26.4 251.7,26.1 252.2,25.8 C251.7,26.1 251.2,26.4 250.7,26.7 Z M270.9,22.5 C271.2,22.6 271.5,22.6 271.8,22.7 C271.4,22.6 271.1,22.6 270.9,22.5 Z M272.1,22.8 C272.7,22.9 273.2,23.1 273.8,23.3 C273.1,23.4 272.5,23.7 272,24 C271.1,24.6 270.6,25.4 270,26 C269.7,26.3 269.5,26.5 269.3,26.6 C269.1,26.7 269,26.7 268.9,26.8 C268.9,26.8 268.9,26.8 268.9,26.8 C268.5,26.5 267.8,26 267.2,25.5 C267.1,25.4 267,25.4 266.9,25.3 C267.3,25.1 267.7,24.8 268.2,24.6 C269.2,24.1 270.3,23.7 271.2,23.3 C271.5,23 271.8,22.9 272.1,22.8 Z M267.8,22.1 C268.1,22.1 268.5,22.2 268.8,22.2 C268.5,22.2 268.2,22.2 267.8,22.1 Z M269.4,22.3 C269.7,22.3 270,22.4 270.3,22.4 C270,22.4 269.7,22.3 269.4,22.3 Z M273.8,23.2 C274.3,23.3 274.7,23.5 275.2,23.7 C274.7,23.6 274.3,23.4 273.8,23.2 Z M275.6,23.9 C275.9,24 276.3,24.2 276.6,24.3 C276.2,24.1 275.9,24 275.6,23.9 Z M267.3,22.1 C266.8,22.1 266.3,22.1 265.8,22.1 C265.1,22.1 264.4,22.1 263.8,22.2 C264.5,22.2 265.1,22.1 265.8,22.1 C266.3,22 266.8,22.1 267.3,22.1 Z M261.5,22.4 C262.1,22.3 262.8,22.2 263.4,22.2 C262.8,22.2 262.2,22.3 261.5,22.4 Z M284.8,67.8 C279.9,72.6 273.3,75.6 265.9,75.6 C258.5,75.6 251.8,72.6 247,67.8 C242.2,62.9 239.2,56.3 239.2,48.9 C239.2,41.5 242.2,34.8 247,30 C248.1,28.9 249.4,27.8 250.7,26.9 C250.8,27.2 250.9,27.4 250.9,27.6 C250.9,27.8 250.8,28 250.7,28.2 C250.5,28.5 250.1,28.9 249.6,29.4 C249.4,29.6 249.1,29.9 248.9,30.3 C248.7,30.6 248.6,31.1 248.5,31.5 L248.5,31.5 C248.5,31.7 248.5,31.9 248.5,32.2 C248.5,34.4 249.2,36.9 250.7,38.8 C250.9,39 251.2,39.2 251.5,39.2 C251.7,39.2 251.8,39.2 252,39.1 C252.1,39.2 252.1,39.4 252.1,39.5 C252.2,39.8 252.4,40.2 252.5,40.4 C252.6,40.5 252.6,40.7 252.7,40.8 C252.8,40.9 252.9,41.1 253,41.2 C253.9,42 255.1,42.4 256.2,42.6 C257.3,42.9 258.3,43 259,43.3 C259.3,43.4 259.5,43.5 259.6,43.7 C259.8,43.9 260.1,44.2 260.5,44.6 C260.8,44.9 261.2,45.2 261.8,45.4 C261.2,46.4 260.9,47.6 260.9,48.9 C260.9,49.8 261.1,50.7 261.4,51.6 C261.7,52.2 262.1,52.7 262.5,53.2 C263.1,53.8 263.8,54.2 264.3,54.6 C264.8,55 265.2,55.3 265.4,55.8 C265.6,56.2 265.7,56.7 265.8,57.3 C265.9,57.9 265.9,58.5 265.9,59.2 C265.9,59.4 265.9,59.7 265.9,59.9 C265.9,60.7 265.9,61.6 266.1,62.5 L266.1,62.5 C266.3,63.5 266.6,64.8 267.2,66 C267.7,67.1 268.3,68.1 269.2,68.9 C269.3,69 269.4,69 269.4,69.1 C269.4,69.1 269.4,69.1 269.4,69.1 C269.4,69.1 269.5,69.2 269.5,69.2 C269.6,69.3 269.8,69.3 269.9,69.3 C269.9,69.3 269.9,69.3 269.9,69.3 C269.9,69.3 269.9,69.3 269.9,69.3 C270.3,69.3 270.7,69.1 271,68.9 C271.4,68.5 271.6,68.1 271.7,67.7 C271.8,67.3 271.8,66.8 271.8,66.4 C271.8,65.9 271.7,65.3 271.6,64.8 C271.8,64.7 271.9,64.7 272,64.6 C272.3,64.4 272.5,64.2 272.7,64 C272.9,63.6 273,63.3 273.1,62.9 C273.1,62.6 273.2,62.4 273.2,62.2 C273.4,62.2 273.7,62.1 273.9,62 C274.2,61.8 274.5,61.6 274.6,61.4 C274.9,61.1 275,60.8 275.2,60.5 C275.4,60.3 275.5,60 275.8,59.8 C275.9,59.7 276.6,59.1 277.3,58.5 C277.7,58.2 278,57.9 278.3,57.6 C278.4,57.5 278.5,57.4 278.6,57.3 L278.6,57.3 C278.7,57.2 278.8,57.1 278.9,57 C279.5,56.1 280,55.3 280.4,54.5 C280.8,53.7 281,52.9 281,52.1 C281,51.4 280.8,50.8 280.5,50.2 C280.2,49.6 279.7,49.1 279.1,48.6 C278.9,48.4 278.7,48.3 278.5,48.3 C278.2,48.2 277.8,48.1 277.4,48 C276.8,47.9 276.2,47.7 275.6,47.6 C275.5,47.6 275.4,47.6 275.3,47.5 C275.3,47.3 275.2,47.1 275.2,46.9 C275.1,46.7 274.9,46.5 274.8,46.4 C274.6,46.3 274.5,46.1 274.2,46 C273.1,45.3 271.8,44.5 270.5,43.9 C269.1,43.3 267.7,42.7 266.1,42.7 L266,42.7 C265.3,42.7 264.6,42.9 263.9,43.3 C263.5,43.5 263.2,43.8 262.9,44.1 C262.8,43.9 262.7,43.7 262.6,43.5 C262.5,43.3 262.5,43.1 262.5,42.8 C262.5,42.6 262.4,42.4 262.3,42.1 C262.2,41.7 261.8,41.3 261.4,41.1 C261.4,41.1 261.4,41.1 261.3,41.1 C261.3,40.9 261.4,40.7 261.4,40.5 C261.4,40.2 261.3,39.9 261.2,39.6 C261.1,39.3 260.9,39.1 260.7,39 C260.5,38.9 260.3,38.9 260.1,38.9 C259.9,38.9 259.7,38.9 259.6,39 C259.1,39.1 258.6,39.4 258.1,39.6 C257.9,39.7 257.6,39.8 257.4,39.8 C257.4,39.8 257.3,39.8 257.3,39.8 C257.3,39.6 257.4,39.4 257.5,39.1 C257.7,38.7 257.8,38.4 258,38.3 C258.2,38.1 258.5,38 258.9,37.9 C259.3,37.8 260,37.8 260.7,37.7 L260.7,37.7 L260.8,37.7 C260.9,37.7 261.1,37.7 261.3,37.8 C261.6,37.9 261.9,38.2 262.2,38.5 C262.3,38.6 262.5,38.7 262.6,38.9 C262.7,39 262.7,39 262.9,39.1 C263,39.2 263.2,39.3 263.5,39.3 L263.7,39.3 C263.9,39.3 263.9,39.2 264,39.2 C264.1,39.1 264.1,39.1 264.2,39.1 L264.3,39 L264.4,38.9 L264.4,38.9 C264.6,38.7 265.5,37.5 266.5,36.2 C267,35.6 267.5,34.9 268,34.4 C268.2,34.1 268.5,33.9 268.6,33.8 C268.8,33.6 268.9,33.5 269,33.5 C270.1,32.9 270.9,32.8 271.8,32.5 C272.7,32.3 273.8,32 274.9,31.2 C275.2,31 275.4,30.7 275.3,30.3 C275.3,30.1 275.2,30 275.1,29.8 C275.4,29.7 275.6,29.7 275.9,29.6 C276.3,29.5 276.7,29.3 277,29.1 C277.2,29 277.4,28.8 277.5,28.6 C277.6,28.4 277.7,28.1 277.7,27.8 C277.7,27.8 277.7,27.8 277.7,27.8 C277.7,27.8 277.7,27.8 277.7,27.8 C277.7,27.4 277.5,27.1 277.1,26.9 C277.1,26.8 277,26.8 276.9,26.7 C276.7,26.4 276.5,26.1 276.4,25.8 C276.4,25.7 276.3,25.7 276.3,25.6 C276.3,25.5 276.3,25.4 276.3,25.2 C276.3,25.2 276.3,25.1 276.3,25.1 C279.3,26.4 282,28.3 284.3,30.6 C289.6,34.7 292.6,41.4 292.6,48.8 C292.6,56.2 289.6,62.9 284.8,67.8 Z M258.8,40.9 C259,40.8 259.1,40.8 259.3,40.7 C259.2,40.8 259.2,40.9 259.2,41 C259,41 258.9,41 258.8,40.9 Z M273.3,48.1 C273.4,48.3 273.6,48.4 273.7,48.5 C273.8,48.6 273.9,48.6 274,48.7 C274.2,48.8 274.3,48.8 274.5,48.9 C275.1,49.1 275.9,49.2 276.7,49.4 C277.1,49.5 277.4,49.6 277.7,49.6 C277.8,49.6 277.9,49.7 278,49.7 L278.1,49.7 C278.6,50.1 278.8,50.4 279,50.7 C279.2,51 279.2,51.3 279.2,51.7 C279.2,52.1 279.1,52.7 278.8,53.3 C278.5,53.9 278.1,54.6 277.6,55.4 C277.5,55.5 277.3,55.7 277,55.9 C276.1,56.6 274.8,57.8 274.7,57.9 C273.9,58.6 273.6,59.3 273.4,59.6 C273.3,59.7 273.3,59.7 273.2,59.8 C273.1,59.8 273,59.9 272.7,59.9 L272.5,59.9 C272.5,59.9 272.5,59.9 272.5,59.9 C272.1,59.9 271.7,60.2 271.6,60.5 C271.5,60.7 271.5,60.8 271.5,60.9 C271.5,61 271.5,61.1 271.5,61.2 C271.5,61.4 271.5,61.5 271.5,61.6 C271.5,62 271.5,62.3 271.4,62.4 L271.3,62.5 C271.3,62.5 271.2,62.5 271.1,62.5 C271,62.5 270.9,62.5 270.7,62.5 C270.6,62.5 270.6,62.5 270.5,62.5 C270.1,62.5 269.8,62.7 269.6,63 C269.4,63.4 269.5,63.9 269.8,64.2 C269.8,64.2 269.8,64.3 269.9,64.4 C270,64.7 270.2,65.4 270.2,66 C270.2,66.2 270.2,66.3 270.2,66.4 C269.9,66 269.5,65.4 269.3,64.8 C268.8,63.8 268.5,62.7 268.4,61.8 L268.4,61.8 C268.3,61.2 268.3,60.4 268.3,59.6 C268.3,59.4 268.3,59.1 268.3,58.9 C268.3,58.2 268.3,57.5 268.2,56.8 C268.1,56.1 267.9,55.4 267.6,54.7 C267.3,54.1 266.9,53.7 266.5,53.3 C265.9,52.8 265.3,52.4 264.8,52 C264.3,51.6 263.9,51.2 263.7,50.7 C263.4,50.1 263.3,49.5 263.3,48.8 C263.3,47.6 263.8,46.4 264.4,45.5 C264.7,45.1 265.1,44.7 265.5,44.5 C265.9,44.3 266.2,44.2 266.5,44.2 L266.5,44.2 C267.6,44.2 268.8,44.6 270.1,45.2 C271.3,45.7 272.4,46.5 273.4,47.1 C273.4,47.2 273.3,47.4 273.3,47.5 C273.1,47.7 273.2,47.9 273.3,48.1 Z" id="Shape" fill="#003147" fill-rule="nonzero" mask="url(#mask-3)"></path>
                    <path d="M205.3,168.6 C210.3,168.6 214.6,169.9 217.9,172.3 C221,174.6 222.9,178 222.9,182 L222.9,182 L222.9,184.1 C222.9,184.4 222.8,184.6 222.6,184.8 C222.4,185 222.2,185.1 221.9,185.1 L221.9,185.1 L188.8,185.1 C188.5,185.1 188.3,185 188.1,184.8 C187.9,184.6 187.8,184.4 187.8,184.1 L187.8,184.1 L187.8,182 C187.8,178.1 189.7,174.6 192.8,172.3 C195.9,169.9 200.3,168.6 205.3,168.6 Z M205.2,170.6 L204.716663,170.604613 C200.232461,170.690488 196.506897,171.968966 193.9,173.9 C191.2,175.9 189.7,178.7 189.7,182 L189.7,182 L189.7,183.1 L220.7,183.1 L220.7,182 C220.7,178.7 219.2,175.9 216.5,173.9 C213.8,171.8 209.9,170.6 205.2,170.6 L205.2,170.6 Z M224.7,154.1 C228.5,154.1 231.6,157.2 231.6,161 C231.6,164 229.7,166.6 227,167.5 C226.416667,167.416667 225.763889,167.402778 225.099537,167.400463 L225.042566,167.400583 C225.726531,167.404082 226.4,167.428571 227,167.6 C229.7,167.9 232,168.8 233.8,170.1 C236.017857,171.739286 237.398852,174.215434 237.494666,176.990461 L237.5,177.3 L237.5,178.8 C237.5,179.1 237.4,179.3 237.2,179.5 C237.028571,179.671429 236.857143,179.769388 236.622741,179.793878 L236.5,179.8 L224.9,179.8 C224.816667,179.216667 224.663889,178.633333 224.499537,178.10787 L224.4,177.8 L235.5,177.8 L235.5,177.3 C235.5,175 234.5,173.1 232.6,171.7 C230.779167,170.358333 228.223611,169.475868 225.109361,169.404659 L224.7,169.4 L224.253098,169.40605 C222.330102,169.458163 220.585714,169.842857 219.1,170.4 C218.5,169.9 217.8,169.5 217.1,169.1 C218.492857,168.357143 220.144388,167.786735 221.974526,167.548907 L222.4,167.5 L222.15678,167.413535 C219.586593,166.442057 217.8,163.909091 217.8,161 C217.8,157.2 220.9,154.1 224.7,154.1 Z M185.8,154.1 C189.6,154.1 192.7,157.2 192.7,161 C192.7,163.999252 190.800948,166.598703 188.10202,167.499326 C189.80119,167.700317 191.300556,168.100238 192.7,168.7 C193,168.8 193.2,168.9 193.4,169 C192.7,169.4 192,169.8 191.4,170.3 C189.914286,169.742857 188.169898,169.358163 186.246902,169.30605 L185.8,169.3 L185.390639,169.304659 C182.276389,169.375868 179.720833,170.258333 177.9,171.6 C176.079167,172.941667 175.084896,174.742535 175.005201,176.914591 L175,177.2 L175,177.7 L186.1,177.7 C185.933333,178.2 185.766667,178.769444 185.65787,179.350463 L185.6,179.7 L174,179.7 C173.7,179.7 173.5,179.6 173.3,179.4 C173.128571,179.228571 173.030612,179.057143 173.006122,178.822741 L173,178.7 L173,177.2 C173,174.3 174.4,171.7 176.7,170 C178.4,168.772222 180.545988,167.901235 183.053721,167.555521 L183.5,167.5 C180.8,166.6 178.9,164 178.9,161 C178.9,157.2 182,154.1 185.8,154.1 Z M205.3,150 C210.4,150 214.5,154.1 214.6,159.3 C214.6,162.4 213,165.1 210.7,166.8 C209.288235,167.835294 207.522145,168.427682 205.651842,168.493792 L205.3,168.5 L204.948158,168.493792 C203.077855,168.427682 201.311765,167.835294 199.9,166.8 C197.5,165.2 196,162.4 196,159.3 C196,154.2 200.2,150 205.3,150 Z M186.363933,167.401306 L186.7248,167.4064 C187.0632,167.4136 187.39755,167.4289 187.746075,167.461412 L188.043,167.493 L187.74213,167.45787 C187.305391,167.416355 186.838871,167.404622 186.363933,167.401306 Z M205.2,152.1 C203.2,152.1 201.4,152.9 200.1,154.2 C198.8,155.5 198,157.3 198,159.3 C198,161.3 198.8,163.1 200.1,164.4 C201,165.3 202.2,166 203.6,166.3 C204.114286,166.471429 204.555102,166.495918 204.985423,166.499417 L205.2,166.5 L205.5104,166.4888 C205.936,166.46 206.4,166.38 206.8,166.3 C208.1,166 209.3,165.4 210.3,164.4 C211.6,163.1 212.4,161.3 212.4,159.3 C212.4,157.3 211.6,155.5 210.3,154.2 C209,152.9 207.2,152.1 205.2,152.1 Z M224.7,156.1 C223.3,156.1 222.1,156.6 221.2,157.5 C220.3,158.4 219.8,159.6 219.8,161 C219.8,162.4 220.3,163.6 221.2,164.5 C222.04,165.34 223.141333,165.831556 224.422696,165.893363 L224.7,165.9 L224.977304,165.893363 C226.258667,165.831556 227.36,165.34 228.2,164.5 C229.1,163.6 229.6,162.4 229.6,161 C229.6,159.6 229.1,158.4 228.2,157.5 C227.3,156.6 226.1,156.1 224.7,156.1 Z M185.8,156.1 C184.4,156.1 183.2,156.6 182.3,157.5 C181.4,158.4 180.9,159.6 180.9,161 C180.9,162.4 181.4,163.6 182.3,164.5 C183.14,165.34 184.241333,165.831556 185.522696,165.893363 L185.8,165.9 L186.059881,165.893363 C187.271556,165.831556 188.46,165.34 189.3,164.5 C190.2,163.6 190.7,162.4 190.7,161 C190.7,159.6 190.2,158.4 189.3,157.5 C188.4,156.6 187.2,156.1 185.8,156.1 Z" id="Combined-Shape" fill="#003147" fill-rule="nonzero" mask="url(#mask-3)"></path>
                    <path d="M172.73923,304.8 L179.63923,297.9 C179.73923,297.8 179.73923,297.8 179.83923,297.7 L185.63923,291.9 C186.13923,291.4 186.43923,290.7 186.43923,290 C186.43923,289.3 186.13923,288.6 185.63923,288.1 L177.33923,279.8 C176.83923,279.3 176.13923,279 175.43923,279 C175.43923,279 175.43923,279 175.43923,279 C175.43923,279 175.43923,279 175.43923,279 C174.73923,279 174.03923,279.3 173.53923,279.8 L173.53923,279.8 L167.53923,285.8 L167.53923,285.8 L160.63923,292.7 C157.63923,289.7 154.63923,286.6 152.43923,284.2 C151.33923,283 150.33923,282 149.73923,281.3 C149.03923,280.6 148.73923,280.2 148.73923,280.2 L148.73923,280.2 C148.03923,279.5 147.23923,279.2 146.53923,279.2 C146.53923,279.2 146.53923,279.2 146.53923,279.2 C146.03923,279.2 145.53923,279.3 145.13923,279.5 C144.73923,279.7 144.43923,279.9 144.13923,280.2 L136.13923,288.2 C135.43923,288.9 135.13923,289.7 135.13923,290.5 C135.13923,291.5 135.53923,292.3 136.13923,292.8 L136.13923,292.8 C136.13923,292.8 136.53923,293.2 137.23923,293.9 C139.33923,295.9 143.93923,300.5 148.53923,305 L140.23923,313.3 C140.13923,313.4 140.03923,313.5 140.03923,313.7 L135.03923,329.2 C134.93923,329.6 135.03923,329.9 135.23923,330.2 C135.43923,330.4 135.73923,330.5 135.93923,330.5 C136.03923,330.5 136.13923,330.5 136.23923,330.5 L152.13923,325.8 C152.33923,325.8 152.43923,325.7 152.53923,325.5 L160.73923,317.3 C163.63923,320.2 166.63923,323.3 168.93923,325.6 C170.13923,326.8 171.03923,327.8 171.73923,328.5 C172.43923,329.2 172.83923,329.6 172.83923,329.6 L172.83923,329.6 C173.43923,330.2 174.33923,330.5 175.03923,330.5 C175.03923,330.5 175.03923,330.5 175.03923,330.5 C175.93923,330.5 176.73923,330.2 177.33923,329.6 L177.33923,329.6 L185.33923,321.5 L185.33923,321.5 C185.93923,320.9 186.13923,320.2 186.23923,319.4 C186.23923,318.8 186.03923,318.1 185.53923,317.6 C185.33923,317.4 178.73923,310.8 172.73923,304.8 Z M174.83923,281.2 L174.83923,281.2 C174.93923,281.1 175.13923,281 175.33923,281 C175.53923,281 175.63923,281.1 175.83923,281.2 L184.13923,289.5 C184.23923,289.6 184.33923,289.8 184.33923,290 C184.33923,290.2 184.23923,290.3 184.13923,290.5 L178.93923,295.7 L169.63923,286.4 L174.83923,281.2 Z M149.73923,318.8 L146.33923,318.8 L146.33923,315.4 L171.03923,290.7 L174.63923,294.3 L149.73923,318.8 Z M145.43923,299 L147.83923,296.6 L146.43923,295.2 L144.03923,297.6 C142.73923,296.4 141.63923,295.2 140.63923,294.3 L146.23923,288.7 L144.83923,287.3 L139.23923,292.9 C138.23923,291.9 137.63923,291.3 137.53923,291.2 L137.53923,291.2 C137.33923,291 137.13923,290.6 137.13923,290.3 C137.13923,290 137.23923,289.8 137.53923,289.5 L145.53923,281.5 C145.63923,281.4 145.83923,281.3 145.93923,281.2 C146.13923,281.1 146.23923,281.1 146.43923,281.1 C146.63923,281.1 146.93923,281.2 147.33923,281.5 L147.33923,281.5 C147.83923,282 153.43923,288.2 159.33923,294.1 L149.93923,303.5 C148.33923,301.9 146.83923,300.4 145.43923,299 Z M168.23923,287.9 L169.63923,289.3 L145.13923,313.8 L142.83923,313.3 L168.23923,287.9 Z M137.33923,327.8 L141.53923,315 L144.43923,315.6 L144.43923,319.7 C144.43923,320 144.53923,320.2 144.73923,320.4 C144.93923,320.6 145.13923,320.7 145.43923,320.7 L149.43923,320.7 L150.33923,323.9 L137.33923,327.8 Z M152.03923,322.8 L151.23923,320.1 L176.03923,295.7 L177.53923,297.2 L152.03923,322.8 Z M183.83923,319.9 L183.83923,319.9 L175.83923,328 C175.73923,328.1 175.33923,328.3 174.93923,328.3 C174.93923,328.3 174.93923,328.3 174.93923,328.3 C174.63923,328.3 174.33923,328.2 174.13923,328 C174.03923,327.9 173.43923,327.3 172.43923,326.2 L178.13923,320.5 L176.73923,319.1 L171.03923,324.8 C170.03923,323.8 168.93923,322.6 167.73923,321.4 L170.13923,319 L168.73923,317.6 L166.33923,320 C164.93923,318.6 163.53923,317.1 162.13923,315.7 L171.43923,306.3 C174.33923,309.2 177.43923,312.3 179.83923,314.7 C182.23923,317.1 183.93923,318.8 183.93923,318.8 C184.03923,318.9 184.03923,319 184.03923,319.2 C184.13923,319.4 183.93923,319.7 183.83923,319.9 Z" id="Shape" fill="#003147" fill-rule="nonzero" mask="url(#mask-3)"></path>
                    <path d="M59.7,196 L59.8123047,196.00918 C60.0734375,196.051562 60.325,196.2375 60.5,196.5 C63.1,199.7 67,201.8 71.5,201.8 L71.5,201.8 L71.916363,201.7939 C75.6505102,201.684311 79.0392857,200.103571 82.8,197.5 C83,197.4 83.2,197.3 83.4,197.3 C83.6,197.3 83.8,197.3 83.9,197.4 C84.2,197.6 84.4,197.9 84.4,198.3 L84.4,198.3 L84.4,233.6 C84.3,233.8 83.4,237 79.9,241 C76.4,245 70.3,249.6 60,252.5 L60,252.5 L59.4,252.5 C49.1,249.6 43,245 39.5,241 C36,237 35,233.7 35,233.6 L35,233.6 L35,198.2 C35,197.8 35.2,197.5 35.5,197.3 C35.7,197.2 35.8,197.2 36,197.2 C36.2,197.2 36.4,197.3 36.6,197.4 C40.4,200.1 44,201.7 47.9,201.7 C52.3,201.7 56.3,199.6 58.9,196.4 C59.1,196.1 59.4,196 59.7,196 L59.7,196 Z M59.7,198.5 C56.8,201.7 52.6,203.7 47.9,203.7 C44,203.7 40.5,202.3 37,200.1 L37,200.1 L37.0002915,233.31137 C37.0020408,233.355102 37.0142857,233.514286 37.1,233.6 C37.2,233.9 37.4,234.4 37.7,235 C38.3,236.2 39.4,237.9 41,239.7 C44.2,243.3 49.9,247.7 59.7,250.5 C69.3,247.7 74.9,243.4 78.2,239.8 C81.2,236.5 82.2,233.8 82.4,233.2 L82.4,233.2 L82.4,200.1 C78.9,202.3 75.4,203.7 71.5,203.7 L71.5,203.7 L71.0829424,203.694513 C66.6465565,203.577686 62.6090909,201.60303 59.7,198.5 Z M64.5,210.3 C64.7,210.3 65,210.4 65.2,210.6 C65.4,210.8 65.5,211 65.5,211.3 L65.5,211.3 L65.5,217.4 L71.6,217.4 L71.7227405,217.406122 C71.9571429,217.430612 72.1285714,217.528571 72.3,217.7 C72.5,217.9 72.6,218.1 72.6,218.4 L72.6,218.4 L72.6,227.9 C72.6,228.2 72.5,228.4 72.3,228.6 C72.1,228.8 71.9,228.9 71.6,228.9 L71.6,228.9 L65.5,228.9 L65.5,235 C65.5,235.3 65.4,235.5 65.2,235.7 C65,235.9 64.8,236 64.5,236 L64.5,236 L55,236 C54.7,236 54.5,235.9 54.3,235.7 C54.1,235.5 54,235.3 54,235 L54,235 L54,228.9 L47.9,228.9 C47.6,228.9 47.4,228.8 47.2,228.6 C47,228.4 46.9,228.2 46.9,227.9 L46.9,227.9 L46.9,218.4 C46.9,218.1 47,217.9 47.2,217.7 C47.4,217.5 47.6,217.4 47.9,217.4 L47.9,217.4 L54,217.4 L54,211.3 C54,211 54.1,210.8 54.3,210.6 C54.5,210.4 54.7,210.3 55,210.3 L55,210.3 Z M63.5,212.3 L56,212.3 L56,218.4 C56,218.7 55.9,218.9 55.7,219.1 C55.5,219.3 55.3,219.4 55,219.4 L55,219.4 L48.9,219.4 L48.9,226.9 L55,226.9 C55.3,226.9 55.5,227 55.7,227.2 C55.9,227.4 56,227.6 56,227.9 L56,227.9 L56,234 L63.5,234 L63.5,227.9 C63.5,227.6 63.6,227.4 63.8,227.2 C64,227 64.2,226.9 64.5,226.9 L64.5,226.9 L70.6,226.9 L70.6,219.4 L64.5,219.4 C64.2,219.4 64,219.3 63.8,219.1 C63.6,218.9 63.5,218.7 63.5,218.4 L63.5,218.4 L63.5,212.3 Z" id="Combined-Shape" fill="#003147" fill-rule="nonzero" mask="url(#mask-3)"></path>
                    <path d="M1192.71938,112.798387 L1188.51002,104.544355 C1188.51002,104.451613 1188.51002,104.358871 1188.41648,104.266129 L1168.39866,65.2217742 C1168.30512,65.0362903 1168.21158,64.9435484 1168.11804,64.8508065 L1152.49666,54.1854839 C1152.30958,54.0927419 1152.12249,54 1151.93541,54 C1151.74833,54 1151.65479,54 1151.46771,54.0927419 C1151.18708,54.2782258 1151,54.5564516 1151,54.9274194 L1151,73.3830645 C1151,73.5685484 1151,73.6612903 1151.09354,73.8467742 L1171.2049,112.891129 L1171.2049,112.891129 L1173.73051,117.806452 L1174.47884,119.197581 L1175.60134,121.423387 C1176.06904,122.443548 1177.098,123 1178.12695,123 C1178.12695,123 1178.12695,123 1178.12695,123 C1178.59465,123 1178.96882,122.907258 1179.43653,122.721774 L1186.26503,119.290323 L1188.97773,117.899194 L1191.4098,116.693548 C1192.43875,116.229839 1193,115.209677 1193,114.189516 C1193,113.633065 1192.90646,113.169355 1192.71938,112.798387 Z M1169.66667,72.7571429 L1186,104.7 L1183.48,106 L1180.02667,99.5 L1165,70.7142857 L1167.52,67 L1169.66667,72.7571429 Z M1176.51969,109 L1158,73.9458824 L1158.18898,73.3952941 L1159.32283,70 L1162.72441,71.1011765 L1163.29134,71.2847059 L1182,106.247059 L1176.51969,109 Z M1166,65.8275862 L1163.69504,69.2298851 L1159.2695,67.7586207 C1159.1773,67.7586207 1159.08511,67.7586207 1158.99291,67.7586207 C1158.62411,67.7586207 1158.25532,68.0344828 1158.07092,68.4022989 L1156.59574,73 L1153,72.6321839 L1153,57 L1166,65.8275862 Z M1157.51046,80.9899244 L1153,74 L1157.05021,74.372796 L1171.31799,102.612091 L1175,109.788413 L1172.69874,111 L1157.51046,80.9899244 Z M1190.50284,114.963415 L1184.73163,117.79878 L1181.98795,119.170732 L1178.39277,120.908537 C1178.20355,121 1178.10894,121 1177.91972,121 C1177.54128,121 1177.16284,120.817073 1177.06823,120.45122 L1176.31135,119.079268 L1175.55447,117.707317 L1173,112.859756 L1186.90766,106 L1190.88128,113.5 C1190.97589,113.682927 1190.97589,113.77439 1190.97589,113.957317 C1191.0705,114.506098 1190.88128,114.780488 1190.50284,114.963415 Z" id="Shape" fill="#003147" fill-rule="nonzero" mask="url(#mask-3)"></path>
                    <path d="M1077.53125,304.594595 L1090.09375,272.996139 C1090.1875,272.625483 1090.1875,272.254826 1089.90625,271.976834 C1087.84375,270.030888 1086.71875,267.158301 1086.71875,264.285714 C1086.71875,262.988417 1087,261.598456 1087.46875,260.393822 C1088.875,256.779923 1092.0625,254.46332 1095.71875,254 L1092.53125,261.876448 L1092.53125,261.876448 C1092.34375,262.247104 1092.34375,262.617761 1092.34375,262.988417 C1092.34375,264.19305 1093.09375,265.397683 1094.3125,265.861004 L1094.3125,265.861004 L1098.34375,267.436293 L1098.34375,267.436293 C1098.71875,267.621622 1099.09375,267.621622 1099.46875,267.621622 C1099.46875,267.621622 1099.46875,267.621622 1099.46875,267.621622 C1100.6875,267.621622 1101.8125,266.880309 1102.28125,265.675676 L1102.28125,265.675676 L1105.46875,257.799228 C1107.0625,259.65251 1108,261.876448 1108,264.285714 C1108,265.490347 1107.71875,266.787645 1107.25,268.084942 C1106.40625,270.030888 1105,271.791506 1103.21875,272.996139 C1101.4375,274.200772 1099.28125,274.942085 1097.21875,274.942085 C1096.84375,274.942085 1096.46875,275.220077 1096.375,275.498069 L1083.8125,307.003861 C1083.71875,307.374517 1083.71875,307.745174 1084,308.023166 C1086.0625,309.969112 1087.1875,312.841699 1087.1875,315.714286 C1087.1875,317.011583 1086.90625,318.401544 1086.4375,319.606178 C1085.03125,323.220077 1081.84375,325.53668 1078.1875,326 L1081.375,318.216216 C1081.5625,317.84556 1081.65625,317.382239 1081.65625,317.011583 C1081.65625,316.455598 1081.46875,315.899614 1081.1875,315.343629 C1080.90625,314.880309 1080.34375,314.416988 1079.78125,314.23166 L1079.78125,314.23166 L1075.65625,312.749035 L1075.65625,312.749035 C1075.28125,312.563707 1074.90625,312.563707 1074.53125,312.563707 C1073.3125,312.563707 1072.1875,313.305019 1071.71875,314.509653 L1068.53125,322.3861 C1066.9375,320.532819 1066,318.30888 1066,315.899614 C1066,314.694981 1066.28125,313.397683 1066.75,312.100386 C1067.59375,310.15444 1069,308.393822 1070.78125,307.189189 C1072.5625,305.984556 1074.71875,305.243243 1076.78125,305.243243 C1077.0625,305.150579 1077.4375,304.965251 1077.53125,304.594595 L1077.53125,304.594595 M1097.154,252 C1092.14784,252 1087.61396,254.973105 1085.63039,259.711491 C1085.06366,261.198044 1084.78029,262.777506 1084.78029,264.356968 C1084.78029,267.515892 1085.91376,270.674817 1088.1807,272.997555 L1075.99589,303.471883 C1073.72895,303.657702 1071.46201,304.400978 1069.5729,305.701711 C1067.49487,307.095355 1065.79466,309.139364 1064.8501,311.462103 C1064.28337,312.948655 1064,314.435208 1064,315.92176 C1064,319.266504 1065.51129,322.518337 1068.15606,324.841076 C1068.34497,325.026895 1068.53388,325.026895 1068.81725,325.026895 C1068.9117,325.026895 1069.00616,325.026895 1069.00616,325.026895 C1069.28953,324.933985 1069.5729,324.748166 1069.66735,324.469438 L1073.35113,315.271394 C1073.54004,314.713936 1074.01232,314.435208 1074.4846,314.435208 C1074.57906,314.435208 1074.76797,314.435208 1074.95688,314.528117 L1074.95688,314.528117 L1079.11294,316.01467 C1079.30185,316.107579 1079.49076,316.200489 1079.58522,316.386308 C1079.67967,316.572127 1079.77413,316.757946 1079.77413,317.036675 C1079.77413,317.222494 1079.77413,317.408313 1079.67967,317.594132 L1075.99589,326.792176 C1075.90144,327.070905 1075.90144,327.442543 1076.09035,327.628362 C1076.27926,327.90709 1076.56263,328 1076.846,328 C1076.846,328 1076.846,328 1076.846,328 C1081.85216,328 1086.38604,325.026895 1088.36961,320.288509 C1088.93634,318.801956 1089.21971,317.222494 1089.21971,315.643032 C1089.21971,312.484108 1088.08624,309.325183 1085.8193,307.002445 L1098.00411,276.528117 C1100.27105,276.342298 1102.53799,275.599022 1104.4271,274.298289 C1106.50513,272.904645 1108.20534,270.860636 1109.1499,268.537897 C1109.71663,267.051345 1110,265.564792 1110,264.07824 C1110,260.733496 1108.48871,257.481663 1105.84394,255.158924 C1105.65503,254.973105 1105.46612,254.973105 1105.18275,254.973105 C1105.0883,254.973105 1104.99384,254.973105 1104.99384,254.973105 C1104.71047,255.066015 1104.4271,255.251834 1104.33265,255.530562 L1100.64887,264.728606 L1100.64887,264.728606 C1100.45996,265.193154 1099.98768,265.471883 1099.5154,265.471883 C1099.32649,265.471883 1099.23203,265.471883 1099.04312,265.378973 L1099.04312,265.378973 L1094.98152,263.799511 L1094.98152,263.799511 C1094.50924,263.613692 1094.22587,263.149144 1094.22587,262.684597 C1094.22587,262.498778 1094.22587,262.405868 1094.32033,262.220049 L1094.32033,262.220049 L1098.00411,253.022005 C1098.09856,252.743276 1098.09856,252.371638 1097.90965,252.185819 C1097.72074,252.185819 1097.43737,252 1097.154,252" id="Shape" fill="#003147" fill-rule="nonzero" mask="url(#mask-3)"></path>
                    <path d="M781,84 C781.3,84 781.5,84.1 781.7,84.3 C781.866667,84.4666667 781.963889,84.7027778 781.991667,84.8925926 L782,85 L782,136 C782,136.3 781.9,136.5 781.7,136.7 C781.528571,136.871429 781.357143,136.969388 781.122741,136.993878 L781,137 L730,137 C729.7,137 729.5,136.9 729.3,136.7 C729.128571,136.528571 729.030612,136.357143 729.006122,136.122741 L729,136 L729,85 C729,84.7 729.1,84.5 729.3,84.3 C729.471429,84.1285714 729.642857,84.0306122 729.877259,84.0061224 L730,84 L781,84 Z M780,98.2 L731,98.2 L731,135.1 L780,135.1 L780,98.2 Z M749.4,111.4 L749.4,113.4 L740.2,113.4 L740.2,111.4 L749.4,111.4 Z M735.2,101.2 L739.8,105.8 C740,105.9 740.1,106 740.2,106.2 C740.3,106.4 740.4,106.7 740.4,107 C740.4,107.342857 740.326531,107.538776 740.242566,107.713703 L740.2,107.8 L735.2,112.8 L733.8,111.4 L734.5,110.5 L738.1,106.9 L733.8,102.6 L734.5,101.9 L735.2,101.2 Z M779.9,86 L730.9,86 L730.9,96.2 L779.9,96.2 L779.9,86 Z M736.6,87.7 C738.5,87.7 740,89.2 740,91.1 C740,93 738.5,94.5 736.6,94.5 C734.7,94.5 733.2,93 733.2,91.1 C733.2,89.2 734.7,87.7 736.6,87.7 Z M745.7,87.7 C747.6,87.7 749.1,89.2 749.1,91.1 C749.1,93 747.6,94.5 745.7,94.5 C743.8,94.5 742.3,93 742.3,91.1 C742.3,89.2 743.8,87.7 745.7,87.7 Z M754.8,87.7 C756.7,87.7 758.2,89.2 758.2,91.1 C758.2,93 756.7,94.5 754.8,94.5 C752.9,94.5 751.4,93 751.4,91.1 C751.4,89.2 752.9,87.7 754.8,87.7 Z M736.6,89.7 C735.8,89.7 735.2,90.3 735.2,91.1 C735.2,91.9 735.8,92.5 736.6,92.5 C737.4,92.5 738,91.9 738,91.1 C738,90.3 737.4,89.7 736.6,89.7 Z M745.7,89.7 C744.9,89.7 744.3,90.3 744.3,91.1 C744.3,91.9 744.9,92.5 745.7,92.5 C746.5,92.5 747.1,91.9 747.1,91.1 C747.1,90.3 746.5,89.7 745.7,89.7 Z M754.8,89.7 C754,89.7 753.4,90.3 753.4,91.1 C753.4,91.9 754,92.5 754.8,92.5 C755.6,92.5 756.3,91.9 756.2,91.1 C756.2,90.3 755.6,89.7 754.8,89.7 Z" id="Combined-Shape" fill="#003147" fill-rule="nonzero" mask="url(#mask-3)"></path>
                    <path d="M1008.8,35 C992.9,35 980,47.9 980,63.8 C980,79.7 992.9,92.6 1008.8,92.6 C1024.7,92.6 1037.6,79.7 1037.6,63.8 C1037.6,47.9 1024.7,35 1008.8,35 Z M1013.8,43.9 C1013.9,44.3 1014.2,44.6 1014.6,44.7 C1014.7,44.7 1014.9,44.7 1015,44.8 C1014.9,44.8 1014.8,44.9 1014.7,44.9 C1013.8,45.1 1012.7,45.4 1011.4,46.1 C1011.1,46.3 1010.9,46.5 1010.6,46.7 C1009.7,47.5 1008.6,48.8 1007.7,50 C1007.3,50.5 1007,50.9 1006.7,51.3 C1006.5,51.1 1006.2,50.9 1005.9,50.7 C1005.5,50.4 1004.9,50.2 1004.3,50.2 L1004.1,50.2 L1004.1,50.2 C1003.2,50.3 1002.3,50.3 1001.4,50.6 C1000.9,50.8 1000.5,51 1000.1,51.4 C999.7,51.8 999.4,52.3 999.2,52.9 C998.9,53.6 998.8,54.1 998.8,54.7 C998.8,54.9 998.8,55.1 998.9,55.4 C998.9,55.4 998.9,55.4 998.9,55.4 C998.3,55.2 997.9,55 997.6,54.7 C997.6,54.7 997.5,54.6 997.5,54.4 C997.2,53.8 996.8,52.7 996.4,51.8 C996.2,51.3 996,50.9 995.7,50.5 C995.6,50.3 995.4,50.1 995.2,49.9 C995,49.7 994.7,49.6 994.3,49.5 C994.2,49.5 994.1,49.5 994,49.5 C993.8,48.7 993.7,47.8 993.7,47.1 C993.7,46.9 993.7,46.7 993.7,46.6 L993.7,46.6 C993.7,46.4 993.8,46.3 993.9,46 C994.1,45.7 994.6,45.3 995,44.8 C995.2,44.5 995.5,44.2 995.6,43.9 C995.8,43.5 995.9,43.1 995.9,42.6 C995.9,42.1 995.8,41.6 995.6,41.1 L995.6,41.1 C995.6,41 995.5,40.9 995.5,40.9 C998.3,39.3 1001.3,38.2 1004.6,37.6 C1006.6,37.5 1009.3,37.4 1011.5,37.4 C1011.3,37.5 1011,37.6 1010.8,37.7 C1010.1,38 1009.4,38.4 1008.9,38.7 C1008.6,38.9 1008.4,39 1008.2,39.3 C1008.1,39.4 1008,39.5 1007.9,39.7 C1007.8,39.9 1007.7,40.1 1007.7,40.4 C1007.7,40.4 1007.7,40.5 1007.7,40.7 C1007.7,40.8 1007.8,40.9 1007.8,40.9 C1007.9,41 1007.9,41.1 1007.9,41.1 L1008,41.2 C1008.2,41.3 1008.4,41.5 1008.7,41.8 C1009.2,42.2 1009.7,42.6 1010.2,42.9 C1010.4,43.1 1010.6,43.2 1010.7,43.3 L1010.8,43.4 C1010.9,43.6 1011.1,43.7 1011.3,43.7 C1011.5,43.7 1011.7,43.8 1011.8,43.8 C1012.6,43.8 1013.2,43.4 1013.7,43 C1014.4,42.4 1015,41.6 1015.5,41.1 C1015.8,40.8 1016,40.6 1016.3,40.5 C1016.5,40.4 1016.8,40.3 1017,40.3 C1017.2,40.3 1017.5,40.3 1017.8,40.5 C1017.9,40.7 1017.9,40.8 1018,41 C1018.2,41.4 1018.4,41.8 1018.6,42.1 C1018.5,42.1 1018.5,42.1 1018.4,42.2 C1017.8,42.3 1017,42.4 1016.2,42.5 C1015.8,42.5 1015.5,42.6 1015.1,42.7 C1014.8,42.8 1014.5,42.8 1014.1,43 C1013.9,43.1 1013.7,43.5 1013.8,43.9 Z M993.7,41.7 C994.2,41.4 994.7,41.1 995.2,40.8 C994.7,41.1 994.2,41.4 993.7,41.7 Z M1013.9,37.5 C1014.2,37.6 1014.5,37.6 1014.8,37.7 C1014.4,37.6 1014.1,37.6 1013.9,37.5 Z M1015.1,37.8 C1015.7,37.9 1016.2,38.1 1016.8,38.3 C1016.1,38.4 1015.5,38.7 1015,39 C1014.1,39.6 1013.6,40.4 1013,41 C1012.7,41.3 1012.5,41.5 1012.3,41.6 C1012.1,41.7 1012,41.7 1011.9,41.8 C1011.9,41.8 1011.9,41.8 1011.9,41.8 C1011.5,41.5 1010.8,41 1010.2,40.5 C1010.1,40.4 1010,40.4 1009.9,40.3 C1010.3,40.1 1010.7,39.8 1011.2,39.6 C1012.2,39.1 1013.3,38.7 1014.2,38.3 C1014.5,38 1014.8,37.9 1015.1,37.8 Z M1010.8,37.1 C1011.1,37.1 1011.5,37.2 1011.8,37.2 C1011.5,37.2 1011.2,37.2 1010.8,37.1 Z M1012.4,37.3 C1012.7,37.3 1013,37.4 1013.3,37.4 C1013,37.4 1012.7,37.3 1012.4,37.3 Z M1016.8,38.2 C1017.3,38.3 1017.7,38.5 1018.2,38.7 C1017.7,38.6 1017.3,38.4 1016.8,38.2 Z M1018.6,38.9 C1018.9,39 1019.3,39.2 1019.6,39.3 C1019.2,39.1 1018.9,39 1018.6,38.9 Z M1010.3,37.1 C1009.8,37.1 1009.3,37.1 1008.8,37.1 C1008.1,37.1 1007.4,37.1 1006.8,37.2 C1007.5,37.2 1008.1,37.1 1008.8,37.1 C1009.3,37 1009.8,37.1 1010.3,37.1 Z M1004.5,37.4 C1005.1,37.3 1005.8,37.2 1006.4,37.2 C1005.8,37.2 1005.2,37.3 1004.5,37.4 Z M1027.8,82.8 C1022.9,87.6 1016.3,90.6 1008.9,90.6 C1001.5,90.6 994.8,87.6 990,82.8 C985.2,77.9 982.2,71.3 982.2,63.9 C982.2,56.5 985.2,49.8 990,45 C991.1,43.9 992.4,42.8 993.7,41.9 C993.8,42.2 993.9,42.4 993.9,42.6 C993.9,42.8 993.8,43 993.7,43.2 C993.5,43.5 993.1,43.9 992.6,44.4 C992.4,44.6 992.1,44.9 991.9,45.3 C991.7,45.6 991.6,46.1 991.5,46.5 L991.5,46.5 C991.5,46.7 991.5,46.9 991.5,47.2 C991.5,49.4 992.2,51.9 993.7,53.8 C993.9,54 994.2,54.2 994.5,54.2 C994.7,54.2 994.8,54.2 995,54.1 C995.1,54.2 995.1,54.4 995.1,54.5 C995.2,54.8 995.4,55.2 995.5,55.4 C995.6,55.5 995.6,55.7 995.7,55.8 C995.8,55.9 995.9,56.1 996,56.2 C996.9,57 998.1,57.4 999.2,57.6 C1000.3,57.9 1001.3,58 1002,58.3 C1002.3,58.4 1002.5,58.5 1002.6,58.7 C1002.8,58.9 1003.1,59.2 1003.5,59.6 C1003.8,59.9 1004.2,60.2 1004.8,60.4 C1004.2,61.4 1003.9,62.6 1003.9,63.9 C1003.9,64.8 1004.1,65.7 1004.4,66.6 C1004.7,67.2 1005.1,67.7 1005.5,68.2 C1006.1,68.8 1006.8,69.2 1007.3,69.6 C1007.8,70 1008.2,70.3 1008.4,70.8 C1008.6,71.2 1008.7,71.7 1008.8,72.3 C1008.9,72.9 1008.9,73.5 1008.9,74.2 C1008.9,74.4 1008.9,74.7 1008.9,74.9 C1008.9,75.7 1008.9,76.6 1009.1,77.5 L1009.1,77.5 C1009.3,78.5 1009.6,79.8 1010.2,81 C1010.7,82.1 1011.3,83.1 1012.2,83.9 C1012.3,84 1012.4,84 1012.4,84.1 C1012.4,84.1 1012.4,84.1 1012.4,84.1 C1012.4,84.1 1012.5,84.2 1012.5,84.2 C1012.6,84.3 1012.8,84.3 1012.9,84.3 C1012.9,84.3 1012.9,84.3 1012.9,84.3 C1012.9,84.3 1012.9,84.3 1012.9,84.3 C1013.3,84.3 1013.7,84.1 1014,83.9 C1014.4,83.5 1014.6,83.1 1014.7,82.7 C1014.8,82.3 1014.8,81.8 1014.8,81.4 C1014.8,80.9 1014.7,80.3 1014.6,79.8 C1014.8,79.7 1014.9,79.7 1015,79.6 C1015.3,79.4 1015.5,79.2 1015.7,79 C1015.9,78.6 1016,78.3 1016.1,77.9 C1016.1,77.6 1016.2,77.4 1016.2,77.2 C1016.4,77.2 1016.7,77.1 1016.9,77 C1017.2,76.8 1017.5,76.6 1017.6,76.4 C1017.9,76.1 1018,75.8 1018.2,75.5 C1018.4,75.3 1018.5,75 1018.8,74.8 C1018.9,74.7 1019.6,74.1 1020.3,73.5 C1020.7,73.2 1021,72.9 1021.3,72.6 C1021.4,72.5 1021.5,72.4 1021.6,72.3 L1021.6,72.3 C1021.7,72.2 1021.8,72.1 1021.9,72 C1022.5,71.1 1023,70.3 1023.4,69.5 C1023.8,68.7 1024,67.9 1024,67.1 C1024,66.4 1023.8,65.8 1023.5,65.2 C1023.2,64.6 1022.7,64.1 1022.1,63.6 C1021.9,63.4 1021.7,63.3 1021.5,63.3 C1021.2,63.2 1020.8,63.1 1020.4,63 C1019.8,62.9 1019.2,62.7 1018.6,62.6 C1018.5,62.6 1018.4,62.6 1018.3,62.5 C1018.3,62.3 1018.2,62.1 1018.2,61.9 C1018.1,61.7 1017.9,61.5 1017.8,61.4 C1017.6,61.3 1017.5,61.1 1017.2,61 C1016.1,60.3 1014.8,59.5 1013.5,58.9 C1012.1,58.3 1010.7,57.7 1009.1,57.7 L1009,57.7 C1008.3,57.7 1007.6,57.9 1006.9,58.3 C1006.5,58.5 1006.2,58.8 1005.9,59.1 C1005.8,58.9 1005.7,58.7 1005.6,58.5 C1005.5,58.3 1005.5,58.1 1005.5,57.8 C1005.5,57.6 1005.4,57.4 1005.3,57.1 C1005.2,56.7 1004.8,56.3 1004.4,56.1 C1004.4,56.1 1004.4,56.1 1004.3,56.1 C1004.3,55.9 1004.4,55.7 1004.4,55.5 C1004.4,55.2 1004.3,54.9 1004.2,54.6 C1004.1,54.3 1003.9,54.1 1003.7,54 C1003.5,53.9 1003.3,53.9 1003.1,53.9 C1002.9,53.9 1002.7,53.9 1002.6,54 C1002.1,54.1 1001.6,54.4 1001.1,54.6 C1000.9,54.7 1000.6,54.8 1000.4,54.8 C1000.4,54.8 1000.3,54.8 1000.3,54.8 C1000.3,54.6 1000.4,54.4 1000.5,54.1 C1000.7,53.7 1000.8,53.4 1001,53.3 C1001.2,53.1 1001.5,53 1001.9,52.9 C1002.3,52.8 1003,52.8 1003.7,52.7 L1003.7,52.7 L1003.8,52.7 C1003.9,52.7 1004.1,52.7 1004.3,52.8 C1004.6,52.9 1004.9,53.2 1005.2,53.5 C1005.3,53.6 1005.5,53.7 1005.6,53.9 C1005.7,54 1005.7,54 1005.9,54.1 C1006,54.2 1006.2,54.3 1006.5,54.3 L1006.7,54.3 C1006.9,54.3 1006.9,54.2 1007,54.2 C1007.1,54.1 1007.1,54.1 1007.2,54.1 L1007.3,54 L1007.4,53.9 L1007.4,53.9 C1007.6,53.7 1008.5,52.5 1009.5,51.2 C1010,50.6 1010.5,49.9 1011,49.4 C1011.2,49.1 1011.5,48.9 1011.6,48.8 C1011.8,48.6 1011.9,48.5 1012,48.5 C1013.1,47.9 1013.9,47.8 1014.8,47.5 C1015.7,47.3 1016.8,47 1017.9,46.2 C1018.2,46 1018.4,45.7 1018.3,45.3 C1018.3,45.1 1018.2,45 1018.1,44.8 C1018.4,44.7 1018.6,44.7 1018.9,44.6 C1019.3,44.5 1019.7,44.3 1020,44.1 C1020.2,44 1020.4,43.8 1020.5,43.6 C1020.6,43.4 1020.7,43.1 1020.7,42.8 C1020.7,42.8 1020.7,42.8 1020.7,42.8 C1020.7,42.8 1020.7,42.8 1020.7,42.8 C1020.7,42.4 1020.5,42.1 1020.1,41.9 C1020.1,41.8 1020,41.8 1019.9,41.7 C1019.7,41.4 1019.5,41.1 1019.4,40.8 C1019.4,40.7 1019.3,40.7 1019.3,40.6 C1019.3,40.5 1019.3,40.4 1019.3,40.2 C1019.3,40.2 1019.3,40.1 1019.3,40.1 C1022.3,41.4 1025,43.3 1027.3,45.6 C1032.6,49.7 1035.6,56.4 1035.6,63.8 C1035.6,71.2 1032.6,77.9 1027.8,82.8 Z M1001.8,55.9 C1002,55.8 1002.1,55.8 1002.3,55.7 C1002.2,55.8 1002.2,55.9 1002.2,56 C1002,56 1001.9,56 1001.8,55.9 Z M1016.3,63.1 C1016.4,63.3 1016.6,63.4 1016.7,63.5 C1016.8,63.6 1016.9,63.6 1017,63.7 C1017.2,63.8 1017.3,63.8 1017.5,63.9 C1018.1,64.1 1018.9,64.2 1019.7,64.4 C1020.1,64.5 1020.4,64.6 1020.7,64.6 C1020.8,64.6 1020.9,64.7 1021,64.7 L1021.1,64.7 C1021.6,65.1 1021.8,65.4 1022,65.7 C1022.2,66 1022.2,66.3 1022.2,66.7 C1022.2,67.1 1022.1,67.7 1021.8,68.3 C1021.5,68.9 1021.1,69.6 1020.6,70.4 C1020.5,70.5 1020.3,70.7 1020,70.9 C1019.1,71.6 1017.8,72.8 1017.7,72.9 C1016.9,73.6 1016.6,74.3 1016.4,74.6 C1016.3,74.7 1016.3,74.7 1016.2,74.8 C1016.1,74.8 1016,74.9 1015.7,74.9 L1015.5,74.9 C1015.5,74.9 1015.5,74.9 1015.5,74.9 C1015.1,74.9 1014.7,75.2 1014.6,75.5 C1014.5,75.7 1014.5,75.8 1014.5,75.9 C1014.5,76 1014.5,76.1 1014.5,76.2 C1014.5,76.4 1014.5,76.5 1014.5,76.6 C1014.5,77 1014.5,77.3 1014.4,77.4 L1014.3,77.5 C1014.3,77.5 1014.2,77.5 1014.1,77.5 C1014,77.5 1013.9,77.5 1013.7,77.5 C1013.6,77.5 1013.6,77.5 1013.5,77.5 C1013.1,77.5 1012.8,77.7 1012.6,78 C1012.4,78.4 1012.5,78.9 1012.8,79.2 C1012.8,79.2 1012.8,79.3 1012.9,79.4 C1013,79.7 1013.2,80.4 1013.2,81 C1013.2,81.2 1013.2,81.3 1013.2,81.4 C1012.9,81 1012.5,80.4 1012.3,79.8 C1011.8,78.8 1011.5,77.7 1011.4,76.8 L1011.4,76.8 C1011.3,76.2 1011.3,75.4 1011.3,74.6 C1011.3,74.4 1011.3,74.1 1011.3,73.9 C1011.3,73.2 1011.3,72.5 1011.2,71.8 C1011.1,71.1 1010.9,70.4 1010.6,69.7 C1010.3,69.1 1009.9,68.7 1009.5,68.3 C1008.9,67.8 1008.3,67.4 1007.8,67 C1007.3,66.6 1006.9,66.2 1006.7,65.7 C1006.4,65.1 1006.3,64.5 1006.3,63.8 C1006.3,62.6 1006.8,61.4 1007.4,60.5 C1007.7,60.1 1008.1,59.7 1008.5,59.5 C1008.9,59.3 1009.2,59.2 1009.5,59.2 L1009.5,59.2 C1010.6,59.2 1011.8,59.6 1013.1,60.2 C1014.3,60.7 1015.4,61.5 1016.4,62.1 C1016.4,62.2 1016.3,62.4 1016.3,62.5 C1016.1,62.7 1016.2,62.9 1016.3,63.1 Z" id="Shape" fill="#003147" fill-rule="nonzero" mask="url(#mask-3)"></path>
                    <path d="M948.3,183.6 C953.3,183.6 957.6,184.9 960.9,187.3 C964,189.6 965.9,193 965.9,197 L965.9,197 L965.9,199.1 C965.9,199.4 965.8,199.6 965.6,199.8 C965.4,200 965.2,200.1 964.9,200.1 L964.9,200.1 L931.8,200.1 C931.5,200.1 931.3,200 931.1,199.8 C930.9,199.6 930.8,199.4 930.8,199.1 L930.8,199.1 L930.8,197 C930.8,193.1 932.7,189.6 935.8,187.3 C938.9,184.9 943.3,183.6 948.3,183.6 Z M948.2,185.6 L947.716663,185.604613 C943.232461,185.690488 939.506897,186.968966 936.9,188.9 C934.2,190.9 932.7,193.7 932.7,197 L932.7,197 L932.7,198.1 L963.7,198.1 L963.7,197 C963.7,193.7 962.2,190.9 959.5,188.9 C956.8,186.8 952.9,185.6 948.2,185.6 L948.2,185.6 Z M967.7,169.1 C971.5,169.1 974.6,172.2 974.6,176 C974.6,179 972.7,181.6 970,182.5 C969.416667,182.416667 968.763889,182.402778 968.099537,182.400463 L968.042566,182.400583 C968.726531,182.404082 969.4,182.428571 970,182.6 C972.7,182.9 975,183.8 976.8,185.1 C979.017857,186.739286 980.398852,189.215434 980.494666,191.990461 L980.5,192.3 L980.5,193.8 C980.5,194.1 980.4,194.3 980.2,194.5 C980.028571,194.671429 979.857143,194.769388 979.622741,194.793878 L979.5,194.8 L967.9,194.8 C967.816667,194.216667 967.663889,193.633333 967.499537,193.10787 L967.4,192.8 L978.5,192.8 L978.5,192.3 C978.5,190 977.5,188.1 975.6,186.7 C973.779167,185.358333 971.223611,184.475868 968.109361,184.404659 L967.7,184.4 L967.253098,184.40605 C965.330102,184.458163 963.585714,184.842857 962.1,185.4 C961.5,184.9 960.8,184.5 960.1,184.1 C961.492857,183.357143 963.144388,182.786735 964.974526,182.548907 L965.4,182.5 L965.15678,182.413535 C962.586593,181.442057 960.8,178.909091 960.8,176 C960.8,172.2 963.9,169.1 967.7,169.1 Z M928.8,169.1 C932.6,169.1 935.7,172.2 935.7,176 C935.7,178.999252 933.800948,181.598703 931.10202,182.499326 C932.80119,182.700317 934.300556,183.100238 935.7,183.7 C936,183.8 936.2,183.9 936.4,184 C935.7,184.4 935,184.8 934.4,185.3 C932.914286,184.742857 931.169898,184.358163 929.246902,184.30605 L928.8,184.3 L928.390639,184.304659 C925.276389,184.375868 922.720833,185.258333 920.9,186.6 C919.079167,187.941667 918.084896,189.742535 918.005201,191.914591 L918,192.2 L918,192.7 L929.1,192.7 C928.933333,193.2 928.766667,193.769444 928.65787,194.350463 L928.6,194.7 L917,194.7 C916.7,194.7 916.5,194.6 916.3,194.4 C916.128571,194.228571 916.030612,194.057143 916.006122,193.822741 L916,193.7 L916,192.2 C916,189.3 917.4,186.7 919.7,185 C921.4,183.772222 923.545988,182.901235 926.053721,182.555521 L926.5,182.5 C923.8,181.6 921.9,179 921.9,176 C921.9,172.2 925,169.1 928.8,169.1 Z M948.3,165 C953.4,165 957.5,169.1 957.6,174.3 C957.6,177.4 956,180.1 953.7,181.8 C952.288235,182.835294 950.522145,183.427682 948.651842,183.493792 L948.3,183.5 L947.948158,183.493792 C946.077855,183.427682 944.311765,182.835294 942.9,181.8 C940.5,180.2 939,177.4 939,174.3 C939,169.2 943.2,165 948.3,165 Z M929.363933,182.401306 L929.7248,182.4064 C930.0632,182.4136 930.39755,182.4289 930.746075,182.461412 L931.043,182.493 L930.74213,182.45787 C930.305391,182.416355 929.838871,182.404622 929.363933,182.401306 Z M948.2,167.1 C946.2,167.1 944.4,167.9 943.1,169.2 C941.8,170.5 941,172.3 941,174.3 C941,176.3 941.8,178.1 943.1,179.4 C944,180.3 945.2,181 946.6,181.3 C947.114286,181.471429 947.555102,181.495918 947.985423,181.499417 L948.2,181.5 L948.5104,181.4888 C948.936,181.46 949.4,181.38 949.8,181.3 C951.1,181 952.3,180.4 953.3,179.4 C954.6,178.1 955.4,176.3 955.4,174.3 C955.4,172.3 954.6,170.5 953.3,169.2 C952,167.9 950.2,167.1 948.2,167.1 Z M967.7,171.1 C966.3,171.1 965.1,171.6 964.2,172.5 C963.3,173.4 962.8,174.6 962.8,176 C962.8,177.4 963.3,178.6 964.2,179.5 C965.04,180.34 966.141333,180.831556 967.422696,180.893363 L967.7,180.9 L967.977304,180.893363 C969.258667,180.831556 970.36,180.34 971.2,179.5 C972.1,178.6 972.6,177.4 972.6,176 C972.6,174.6 972.1,173.4 971.2,172.5 C970.3,171.6 969.1,171.1 967.7,171.1 Z M928.8,171.1 C927.4,171.1 926.2,171.6 925.3,172.5 C924.4,173.4 923.9,174.6 923.9,176 C923.9,177.4 924.4,178.6 925.3,179.5 C926.14,180.34 927.241333,180.831556 928.522696,180.893363 L928.8,180.9 L929.059881,180.893363 C930.271556,180.831556 931.46,180.34 932.3,179.5 C933.2,178.6 933.7,177.4 933.7,176 C933.7,174.6 933.2,173.4 932.3,172.5 C931.4,171.6 930.2,171.1 928.8,171.1 Z" id="Combined-Shape" fill="#003147" fill-rule="nonzero" mask="url(#mask-3)"></path>
                    <path d="M915.73923,319.8 L922.63923,312.9 C922.73923,312.8 922.73923,312.8 922.83923,312.7 L928.63923,306.9 C929.13923,306.4 929.43923,305.7 929.43923,305 C929.43923,304.3 929.13923,303.6 928.63923,303.1 L920.33923,294.8 C919.83923,294.3 919.13923,294 918.43923,294 C918.43923,294 918.43923,294 918.43923,294 C918.43923,294 918.43923,294 918.43923,294 C917.73923,294 917.03923,294.3 916.53923,294.8 L916.53923,294.8 L910.53923,300.8 L910.53923,300.8 L903.63923,307.7 C900.63923,304.7 897.63923,301.6 895.43923,299.2 C894.33923,298 893.33923,297 892.73923,296.3 C892.03923,295.6 891.73923,295.2 891.73923,295.2 L891.73923,295.2 C891.03923,294.5 890.23923,294.2 889.53923,294.2 C889.53923,294.2 889.53923,294.2 889.53923,294.2 C889.03923,294.2 888.53923,294.3 888.13923,294.5 C887.73923,294.7 887.43923,294.9 887.13923,295.2 L879.13923,303.2 C878.43923,303.9 878.13923,304.7 878.13923,305.5 C878.13923,306.5 878.53923,307.3 879.13923,307.8 L879.13923,307.8 C879.13923,307.8 879.53923,308.2 880.23923,308.9 C882.33923,310.9 886.93923,315.5 891.53923,320 L883.23923,328.3 C883.13923,328.4 883.03923,328.5 883.03923,328.7 L878.03923,344.2 C877.93923,344.6 878.03923,344.9 878.23923,345.2 C878.43923,345.4 878.73923,345.5 878.93923,345.5 C879.03923,345.5 879.13923,345.5 879.23923,345.5 L895.13923,340.8 C895.33923,340.8 895.43923,340.7 895.53923,340.5 L903.73923,332.3 C906.63923,335.2 909.63923,338.3 911.93923,340.6 C913.13923,341.8 914.03923,342.8 914.73923,343.5 C915.43923,344.2 915.83923,344.6 915.83923,344.6 L915.83923,344.6 C916.43923,345.2 917.33923,345.5 918.03923,345.5 C918.03923,345.5 918.03923,345.5 918.03923,345.5 C918.93923,345.5 919.73923,345.2 920.33923,344.6 L920.33923,344.6 L928.33923,336.5 L928.33923,336.5 C928.93923,335.9 929.13923,335.2 929.23923,334.4 C929.23923,333.8 929.03923,333.1 928.53923,332.6 C928.33923,332.4 921.73923,325.8 915.73923,319.8 Z M917.83923,296.2 L917.83923,296.2 C917.93923,296.1 918.13923,296 918.33923,296 C918.53923,296 918.63923,296.1 918.83923,296.2 L927.13923,304.5 C927.23923,304.6 927.33923,304.8 927.33923,305 C927.33923,305.2 927.23923,305.3 927.13923,305.5 L921.93923,310.7 L912.63923,301.4 L917.83923,296.2 Z M892.73923,333.8 L889.33923,333.8 L889.33923,330.4 L914.03923,305.7 L917.63923,309.3 L892.73923,333.8 Z M888.43923,314 L890.83923,311.6 L889.43923,310.2 L887.03923,312.6 C885.73923,311.4 884.63923,310.2 883.63923,309.3 L889.23923,303.7 L887.83923,302.3 L882.23923,307.9 C881.23923,306.9 880.63923,306.3 880.53923,306.2 L880.53923,306.2 C880.33923,306 880.13923,305.6 880.13923,305.3 C880.13923,305 880.23923,304.8 880.53923,304.5 L888.53923,296.5 C888.63923,296.4 888.83923,296.3 888.93923,296.2 C889.13923,296.1 889.23923,296.1 889.43923,296.1 C889.63923,296.1 889.93923,296.2 890.33923,296.5 L890.33923,296.5 C890.83923,297 896.43923,303.2 902.33923,309.1 L892.93923,318.5 C891.33923,316.9 889.83923,315.4 888.43923,314 Z M911.23923,302.9 L912.63923,304.3 L888.13923,328.8 L885.83923,328.3 L911.23923,302.9 Z M880.33923,342.8 L884.53923,330 L887.43923,330.6 L887.43923,334.7 C887.43923,335 887.53923,335.2 887.73923,335.4 C887.93923,335.6 888.13923,335.7 888.43923,335.7 L892.43923,335.7 L893.33923,338.9 L880.33923,342.8 Z M895.03923,337.8 L894.23923,335.1 L919.03923,310.7 L920.53923,312.2 L895.03923,337.8 Z M926.83923,334.9 L926.83923,334.9 L918.83923,343 C918.73923,343.1 918.33923,343.3 917.93923,343.3 C917.93923,343.3 917.93923,343.3 917.93923,343.3 C917.63923,343.3 917.33923,343.2 917.13923,343 C917.03923,342.9 916.43923,342.3 915.43923,341.2 L921.13923,335.5 L919.73923,334.1 L914.03923,339.8 C913.03923,338.8 911.93923,337.6 910.73923,336.4 L913.13923,334 L911.73923,332.6 L909.33923,335 C907.93923,333.6 906.53923,332.1 905.13923,330.7 L914.43923,321.3 C917.33923,324.2 920.43923,327.3 922.83923,329.7 C925.23923,332.1 926.93923,333.8 926.93923,333.8 C927.03923,333.9 927.03923,334 927.03923,334.2 C927.13923,334.4 926.93923,334.7 926.83923,334.9 Z" id="Shape" fill="#003147" fill-rule="nonzero" mask="url(#mask-3)"></path>
                    <path d="M712.7,231 L712.812305,231.00918 C713.073438,231.051562 713.325,231.2375 713.5,231.5 C716.1,234.7 720,236.8 724.5,236.8 L724.5,236.8 L724.916363,236.7939 C728.65051,236.684311 732.039286,235.103571 735.8,232.5 C736,232.4 736.2,232.3 736.4,232.3 C736.6,232.3 736.8,232.3 736.9,232.4 C737.2,232.6 737.4,232.9 737.4,233.3 L737.4,233.3 L737.4,268.6 C737.3,268.8 736.4,272 732.9,276 C729.4,280 723.3,284.6 713,287.5 L713,287.5 L712.4,287.5 C702.1,284.6 696,280 692.5,276 C689,272 688,268.7 688,268.6 L688,268.6 L688,233.2 C688,232.8 688.2,232.5 688.5,232.3 C688.7,232.2 688.8,232.2 689,232.2 C689.2,232.2 689.4,232.3 689.6,232.4 C693.4,235.1 697,236.7 700.9,236.7 C705.3,236.7 709.3,234.6 711.9,231.4 C712.1,231.1 712.4,231 712.7,231 L712.7,231 Z M712.7,233.5 C709.8,236.7 705.6,238.7 700.9,238.7 C697,238.7 693.5,237.3 690,235.1 L690,235.1 L690.000292,268.31137 C690.002041,268.355102 690.014286,268.514286 690.1,268.6 C690.2,268.9 690.4,269.4 690.7,270 C691.3,271.2 692.4,272.9 694,274.7 C697.2,278.3 702.9,282.7 712.7,285.5 C722.3,282.7 727.9,278.4 731.2,274.8 C734.2,271.5 735.2,268.8 735.4,268.2 L735.4,268.2 L735.4,235.1 C731.9,237.3 728.4,238.7 724.5,238.7 L724.5,238.7 L724.082942,238.694513 C719.646556,238.577686 715.609091,236.60303 712.7,233.5 Z M717.5,245.3 C717.7,245.3 718,245.4 718.2,245.6 C718.4,245.8 718.5,246 718.5,246.3 L718.5,246.3 L718.5,252.4 L724.6,252.4 L724.722741,252.406122 C724.957143,252.430612 725.128571,252.528571 725.3,252.7 C725.5,252.9 725.6,253.1 725.6,253.4 L725.6,253.4 L725.6,262.9 C725.6,263.2 725.5,263.4 725.3,263.6 C725.1,263.8 724.9,263.9 724.6,263.9 L724.6,263.9 L718.5,263.9 L718.5,270 C718.5,270.3 718.4,270.5 718.2,270.7 C718,270.9 717.8,271 717.5,271 L717.5,271 L708,271 C707.7,271 707.5,270.9 707.3,270.7 C707.1,270.5 707,270.3 707,270 L707,270 L707,263.9 L700.9,263.9 C700.6,263.9 700.4,263.8 700.2,263.6 C700,263.4 699.9,263.2 699.9,262.9 L699.9,262.9 L699.9,253.4 C699.9,253.1 700,252.9 700.2,252.7 C700.4,252.5 700.6,252.4 700.9,252.4 L700.9,252.4 L707,252.4 L707,246.3 C707,246 707.1,245.8 707.3,245.6 C707.5,245.4 707.7,245.3 708,245.3 L708,245.3 Z M716.5,247.3 L709,247.3 L709,253.4 C709,253.7 708.9,253.9 708.7,254.1 C708.5,254.3 708.3,254.4 708,254.4 L708,254.4 L701.9,254.4 L701.9,261.9 L708,261.9 C708.3,261.9 708.5,262 708.7,262.2 C708.9,262.4 709,262.6 709,262.9 L709,262.9 L709,269 L716.5,269 L716.5,262.9 C716.5,262.6 716.6,262.4 716.8,262.2 C717,262 717.2,261.9 717.5,261.9 L717.5,261.9 L723.6,261.9 L723.6,254.4 L717.5,254.4 C717.2,254.4 717,254.3 716.8,254.1 C716.6,253.9 716.5,253.7 716.5,253.4 L716.5,253.4 L716.5,247.3 Z" id="Combined-Shape" fill="#003147" fill-rule="nonzero" mask="url(#mask-3)"></path>
                </g>
                <g id="Group-14" transform="translate(325.000000, 145.000000)">
                    <path d="M25.872,19.736 L25.104,25.784 L16.896,25.784 L16.896,53 L9.024,53 L9.024,25.784 L0.432,25.784 L0.432,19.736 L25.872,19.736 Z M43.824,26.696 C46.032011,26.696 47.7599938,27.3679933 49.008,28.712 C50.2560062,30.0560067 50.88,31.9439878 50.88,34.376 L50.88,53 L43.296,53 L43.296,35.672 C43.296,34.3919936 43.0880021,33.5040025 42.672,33.008 C42.2559979,32.5119975 41.6640038,32.264 40.896,32.264 C39.3599923,32.264 37.888007,33.3519891 36.48,35.528 L36.48,53 L28.896,53 L28.896,17.384 L36.48,16.616 L36.48,30.248 C37.5360053,29.0639941 38.6559941,28.176003 39.84,27.584 C41.0240059,26.991997 42.3519926,26.696 43.824,26.696 Z M78.816,39.752 C78.816,40.8080053 78.7680005,41.7199962 78.672,42.488 L62.88,42.488 C63.1360013,44.6320107 63.7439952,46.1359957 64.704,47 C65.6640048,47.8640043 66.9919915,48.296 68.688,48.296 C69.7120051,48.296 70.7039952,48.1120018 71.664,47.744 C72.6240048,47.3759982 73.6639944,46.8080038 74.784,46.04 L77.904,50.264 C74.9279851,52.6320118 71.6160182,53.816 67.968,53.816 C63.8399794,53.816 60.672011,52.6000122 58.464,50.168 C56.255989,47.7359878 55.152,44.4720205 55.152,40.376 C55.152,37.783987 55.6159954,35.4560103 56.544,33.392 C57.4720046,31.3279897 58.831991,29.696 60.624,28.496 C62.416009,27.295994 64.5599875,26.696 67.056,26.696 C70.7360184,26.696 73.6159896,27.8479885 75.696,30.152 C77.7760104,32.4560115 78.816,35.6559795 78.816,39.752 Z M71.376,37.592 C71.3119997,33.6879805 69.9360134,31.736 67.248,31.736 C65.9359934,31.736 64.9200036,32.2159952 64.2,33.176 C63.4799964,34.1360048 63.0400008,35.719989 62.88,37.928 L71.376,37.928 L71.376,37.592 Z M389.712,18.92 C392.208012,18.92 394.375991,19.2719965 396.216,19.976 C398.056009,20.6800035 399.727992,21.7519928 401.232,23.192 L397.584,27.464 C395.311989,25.6079907 392.880013,24.68 390.288,24.68 C388.911993,24.68 387.824004,24.9599972 387.024,25.52 C386.223996,26.0800028 385.824,26.8879947 385.824,27.944 C385.824,28.6800037 385.999998,29.2799977 386.352,29.744 C386.704002,30.2080023 387.327996,30.6479979 388.224,31.064 C389.120004,31.4800021 390.463991,31.9759971 392.256,32.552 C395.648017,33.6400054 398.143992,34.9759921 399.744,36.56 C401.344008,38.1440079 402.144,40.3919854 402.144,43.304 C402.144,45.3840104 401.616005,47.2159921 400.56,48.8 C399.503995,50.3840079 397.98401,51.6159956 396,52.496 C394.01599,53.3760044 391.664014,53.816 388.944,53.816 C386.223986,53.816 383.81601,53.3840043 381.72,52.52 C379.62399,51.6559957 377.824008,50.5040072 376.32,49.064 L380.304,44.696 C381.584006,45.7840054 382.903993,46.5999973 384.264,47.144 C385.624007,47.6880027 387.103992,47.96 388.704,47.96 C390.336008,47.96 391.623995,47.6000036 392.568,46.88 C393.512005,46.1599964 393.984,45.1600064 393.984,43.88 C393.984,43.0479958 393.808002,42.3520028 393.456,41.792 C393.103998,41.2319972 392.496004,40.7280022 391.632,40.28 C390.767996,39.8319978 389.520008,39.3520026 387.888,38.84 C384.207982,37.7199944 381.592008,36.3440082 380.04,34.712 C378.487992,33.0799918 377.712,31.0160125 377.712,28.52 C377.712,26.5999904 378.223995,24.9120073 379.248,23.456 C380.272005,21.9999927 381.695991,20.8800039 383.52,20.096 C385.344009,19.3119961 387.407988,18.92 389.712,18.92 Z M428.544,39.752 C428.544,40.8080053 428.496,41.7199962 428.4,42.488 L412.608,42.488 C412.864001,44.6320107 413.471995,46.1359957 414.432,47 C415.392005,47.8640043 416.719992,48.296 418.416,48.296 C419.440005,48.296 420.431995,48.1120018 421.392,47.744 C422.352005,47.3759982 423.391994,46.8080038 424.512,46.04 L427.632,50.264 C424.655985,52.6320118 421.344018,53.816 417.696,53.816 C413.567979,53.816 410.400011,52.6000122 408.192,50.168 C405.983989,47.7359878 404.88,44.4720205 404.88,40.376 C404.88,37.783987 405.343995,35.4560103 406.272,33.392 C407.200005,31.3279897 408.559991,29.696 410.352,28.496 C412.144009,27.295994 414.287988,26.696 416.784,26.696 C420.464018,26.696 423.34399,27.8479885 425.424,30.152 C427.50401,32.4560115 428.544,35.6559795 428.544,39.752 Z M421.104,37.592 C421.04,33.6879805 419.664013,31.736 416.976,31.736 C415.663993,31.736 414.648004,32.2159952 413.928,33.176 C413.207996,34.1360048 412.768001,35.719989 412.608,37.928 L421.104,37.928 L421.104,37.592 Z M446.64,26.792 C447.568005,26.792 448.415996,26.9039989 449.184,27.128 L447.984,34.472 C447.023995,34.2479989 446.256003,34.136 445.68,34.136 C444.175992,34.136 443.032004,34.6559948 442.248,35.696 C441.463996,36.7360052 440.848002,38.2959896 440.4,40.376 L440.4,53 L432.816,53 L432.816,27.512 L439.44,27.512 L440.064,32.456 C440.640003,30.6959912 441.511994,29.312005 442.68,28.304 C443.848006,27.295995 445.167993,26.792 446.64,26.792 Z M474,27.512 L465.984,53 L457.008,53 L448.8,27.512 L457.056,27.512 L461.568,47.24 L466.272,27.512 L474,27.512 Z M498.912,39.752 C498.912,40.8080053 498.864,41.7199962 498.768,42.488 L482.976,42.488 C483.232001,44.6320107 483.839995,46.1359957 484.8,47 C485.760005,47.8640043 487.087992,48.296 488.784,48.296 C489.808005,48.296 490.799995,48.1120018 491.76,47.744 C492.720005,47.3759982 493.759994,46.8080038 494.88,46.04 L498,50.264 C495.023985,52.6320118 491.712018,53.816 488.064,53.816 C483.935979,53.816 480.768011,52.6000122 478.56,50.168 C476.351989,47.7359878 475.248,44.4720205 475.248,40.376 C475.248,37.783987 475.711995,35.4560103 476.64,33.392 C477.568005,31.3279897 478.927991,29.696 480.72,28.496 C482.512009,27.295994 484.655988,26.696 487.152,26.696 C490.832018,26.696 493.71199,27.8479885 495.792,30.152 C497.87201,32.4560115 498.912,35.6559795 498.912,39.752 Z M491.472,37.592 C491.408,33.6879805 490.032013,31.736 487.344,31.736 C486.031993,31.736 485.016004,32.2159952 484.296,33.176 C483.575996,34.1360048 483.136001,35.719989 482.976,37.928 L491.472,37.928 L491.472,37.592 Z M517.008,26.792 C517.936005,26.792 518.783996,26.9039989 519.552,27.128 L518.352,34.472 C517.391995,34.2479989 516.624003,34.136 516.048,34.136 C514.543992,34.136 513.400004,34.6559948 512.616,35.696 C511.831996,36.7360052 511.216002,38.2959896 510.768,40.376 L510.768,53 L503.184,53 L503.184,27.512 L509.808,27.512 L510.432,32.456 C511.008003,30.6959912 511.879994,29.312005 513.048,28.304 C514.216006,27.295995 515.535993,26.792 517.008,26.792 Z" id="TheServer" fill="#FFFFFF" fill-rule="nonzero"></path>
                    <g id="Logo/Wordmark" transform="translate(100.350000, 0.218121)">
                        <g id="wordmark">
                            <path d="M91.6141732,39.9411765 C90.8976378,40.6617647 89.976378,41.3823529 88.9527559,42.2058824 C87.9291339,43.0294118 86.8031496,43.75 85.6771654,44.3676471 C84.5511811,44.9852941 83.3228346,45.6029412 82.0944882,46.0147059 C80.8661417,46.4264706 79.6377953,46.7352941 78.6141732,46.7352941 C78.3070866,46.7352941 77.8976378,46.7352941 77.5905512,46.6323529 C77.2834646,46.5294118 76.976378,46.4264706 76.6692913,46.2205882 C76.3622047,46.0147059 76.1574803,45.8088235 75.8503937,45.3970588 C75.5433071,44.9852941 75.3385827,44.6764706 75.0314961,44.1617647 C76.6692913,43.75 78.1023622,43.1323529 79.5354331,42.3088235 C80.8661417,41.4852941 82.0944882,40.5588235 83.1181102,39.5294118 C84.1417323,38.5 84.8582677,37.3676471 85.4724409,36.2352941 C86.0866142,35.1029412 86.2913386,33.9705882 86.2913386,32.7352941 C86.2913386,31.7058824 86.0866142,30.6764706 85.7795276,29.8529412 C85.3700787,29.0294118 84.8582677,28.3088235 84.2440945,27.6911765 C83.6299213,27.0735294 82.8110236,26.6617647 81.8897638,26.25 C80.9685039,25.8382353 80.0472441,25.7352941 79.023622,25.7352941 C77.6929134,25.7352941 76.5669291,25.9411765 75.5433071,26.4558824 C74.519685,26.8676471 73.5984252,27.4852941 72.6771654,28.3088235 C71.8582677,29.1323529 71.1417323,29.9558824 70.4251969,30.9852941 C69.8110236,32.0147059 69.2992126,33.0441176 68.8897638,34.1764706 C68.480315,35.3088235 68.1732283,36.4411765 67.9685039,37.5735294 C67.7637795,38.7058824 67.6614173,39.8382353 67.6614173,40.8676471 C67.6614173,41.0735294 67.6614173,41.3823529 67.6614173,41.5882353 C67.4566929,41.6911765 67.2519685,41.8970588 67.0472441,42 C66.023622,42.8235294 64.8976378,43.5441176 63.7716535,44.1617647 C62.6456693,44.7794118 61.4173228,45.3970588 60.1889764,45.8088235 C58.9606299,46.2205882 57.7322835,46.5294118 56.7086614,46.5294118 C56.4015748,46.5294118 55.992126,46.5294118 55.6850394,46.4264706 C55.3779528,46.3235294 55.0708661,46.2205882 54.7637795,46.0147059 C54.4566929,45.8088235 54.2519685,45.6029412 53.9448819,45.1911765 C53.6377953,44.7794118 53.4330709,44.4705882 53.1259843,43.9558824 C54.7637795,43.5441176 56.1968504,42.9264706 57.6299213,42.1029412 C58.9606299,41.2794118 60.1889764,40.3529412 61.2125984,39.3235294 C62.2362205,38.2941176 62.9527559,37.1617647 63.5669291,36.0294118 C64.1811024,34.8970588 64.3858268,33.7647059 64.3858268,32.5294118 C64.3858268,31.5 64.1811024,30.4705882 63.8740157,29.6470588 C63.4645669,28.8235294 62.9527559,28.1029412 62.3385827,27.4852941 C61.7244094,26.8676471 60.9055118,26.4558824 59.984252,26.0441176 C59.0629921,25.6323529 58.1417323,25.5294118 57.1181102,25.5294118 C55.7874016,25.5294118 54.6614173,25.7352941 53.6377953,26.25 C52.6141732,26.6617647 51.6929134,27.2794118 50.7716535,28.1029412 C49.9527559,28.9264706 49.2362205,29.75 48.519685,30.7794118 C47.9055118,31.8088235 47.3937008,32.8382353 46.984252,33.9705882 C46.5748031,35 46.2677165,36.1323529 46.0629921,37.1617647 C45.8582677,37.2647059 45.6535433,37.3676471 45.4488189,37.4705882 C44.5275591,37.8823529 43.7086614,37.9852941 42.8897638,37.9852941 C42.5826772,37.9852941 42.2755906,37.8823529 42.0708661,37.7794118 C41.7637795,37.6764706 41.5590551,37.4705882 41.3543307,37.1617647 C41.1496063,36.8529412 40.9448819,36.5441176 40.8425197,36.1323529 C40.7401575,35.7205882 40.6377953,35.1029412 40.6377953,34.4852941 C40.6377953,34.0735294 40.6377953,33.5588235 40.7401575,33.0441176 C40.8425197,32.4264706 40.9448819,31.8088235 41.0472441,31.1911765 C41.1496063,30.5735294 41.2519685,29.9558824 41.3543307,29.4411765 C41.4566929,28.8235294 41.4566929,28.4117647 41.4566929,28.1029412 C41.4566929,27.6911765 41.3543307,27.2794118 41.2519685,26.9705882 C41.1496063,26.6617647 40.9448819,26.3529412 40.6377953,26.1470588 C40.4330709,25.9411765 40.1259843,25.7352941 39.7165354,25.6323529 C39.4094488,25.5294118 39,25.4264706 38.6929134,25.4264706 C37.6692913,25.4264706 36.7480315,25.7352941 36.0314961,26.25 C35.2125984,26.7647059 34.5984252,27.4852941 33.984252,28.3088235 C33.3700787,29.1323529 32.8582677,29.9558824 32.3464567,30.8823529 C31.8346457,31.8088235 31.4251969,32.6323529 31.1181102,33.3529412 L30.8110236,33.3529412 C30.8110236,32.4264706 30.7086614,31.3970588 30.7086614,30.4705882 C30.7086614,29.5441176 30.7086614,28.6176471 30.7086614,28 C30.7086614,27.3823529 30.7086614,26.9705882 30.7086614,26.6617647 C30.7086614,26.3529412 30.6062992,26.0441176 30.503937,25.9411765 C30.4015748,25.7352941 30.1968504,25.6323529 29.8897638,25.6323529 C29.5826772,25.6323529 29.2755906,25.5294118 28.7637795,25.5294118 C28.3543307,25.5294118 27.9448819,25.5294118 27.7401575,25.6323529 C27.4330709,25.6323529 27.2283465,25.7352941 27.023622,25.9411765 C26.8188976,26.0441176 26.6141732,26.25 26.511811,26.5588235 C26.4094488,26.7647059 26.2047244,27.1764706 26.1023622,27.5882353 C25.8976378,28.2058824 25.5905512,29.0294118 25.3858268,29.9558824 C25.1811024,30.8823529 24.8740157,31.9117647 24.6692913,33.0441176 C24.6692913,33.0441176 24.6692913,33.0441176 24.6692913,33.0441176 C24.2598425,33.3529412 23.7480315,33.6617647 23.2362205,33.9705882 C22.3149606,34.4852941 21.0866142,35 19.6535433,35.4117647 C18.2204724,35.8235294 16.5826772,36.0294118 14.7401575,36.0294118 C14.5354331,36.0294118 14.4330709,36.0294118 14.2283465,35.9264706 C14.1259843,35.9264706 14.023622,35.8235294 13.8188976,35.8235294 C13.7165354,35.7205882 13.6141732,35.7205882 13.4094488,35.7205882 C13.3070866,35.7205882 13.1023622,35.6176471 12.7952756,35.6176471 C12.5905512,35.6176471 12.3858268,35.6176471 12.1811024,35.7205882 C11.976378,35.8235294 11.6692913,35.9264706 11.3622047,36.1323529 L11.4645669,35.7205882 C12.5905512,34.2794118 13.7165354,32.6323529 14.8425197,30.9852941 C15.9685039,29.3382353 16.992126,27.5882353 18.015748,25.8382353 C19.0393701,24.0882353 19.9606299,22.3382353 20.7795276,20.5882353 C21.5984252,18.8382353 22.3149606,17.1911765 22.9291339,15.5441176 C23.5433071,13.8970588 24.0551181,12.3529412 24.3622047,11.0147059 C24.6692913,9.57352941 24.8740157,8.33823529 24.8740157,7.20588235 C24.8740157,5.97058824 24.6692913,4.94117647 24.2598425,4.11764706 C23.8503937,3.29411765 23.4409449,2.57352941 22.8267717,2.16176471 C22.2125984,1.75 21.5984252,1.33823529 20.8818898,1.02941176 C20.1653543,0.823529412 19.5511811,0.720588235 18.9370079,0.720588235 C17.2992126,0.720588235 15.8661417,1.23529412 14.5354331,2.16176471 C13.2047244,3.08823529 11.976378,4.42647059 10.9527559,6.07352941 C9.82677165,7.72058824 8.90551181,9.67647059 7.98425197,11.9411765 C7.06299213,14.2058824 6.34645669,16.5735294 5.62992126,19.0441176 C4.91338583,21.5147059 4.4015748,24.1911765 3.88976378,26.7647059 C3.37795276,29.4411765 2.96850394,32.0147059 2.66141732,34.5882353 C2.35433071,37.1617647 2.04724409,39.5294118 1.74015748,41.7941176 C1.43307087,44.0588235 1.33070866,46.0147059 1.22834646,47.7647059 C1.12598425,49.5147059 1.02362205,50.8529412 0.921259843,51.9852941 C0.921259843,53.0147059 0.818897638,53.6323529 0.818897638,53.7352941 C0.818897638,54.8676471 0.818897638,56.1029412 0.921259843,57.2352941 C1.02362205,58.4705882 1.12598425,59.7058824 1.33070866,60.8382353 C1.53543307,61.9705882 1.84251969,63.1029412 2.1496063,64.1323529 C2.55905512,65.1617647 2.96850394,66.0882353 3.48031496,66.9117647 C3.99212598,67.7352941 4.70866142,68.3529412 5.42519685,68.7647059 C6.14173228,69.2794118 7.06299213,69.4852941 8.08661417,69.4852941 C9.11023622,69.4852941 10.0314961,69.2794118 10.8503937,68.8676471 C11.6692913,68.4558824 12.3858268,67.8382353 13,67.2205882 C13.6141732,66.6029412 14.1259843,65.6764706 14.6377953,64.8529412 C15.1496063,63.9264706 15.4566929,63 15.8661417,62.0735294 C16.1732283,61.1470588 16.480315,60.1176471 16.6850394,59.1911765 C16.8897638,58.2647059 17.0944882,57.3382353 17.1968504,56.6176471 C17.2992126,55.7941176 17.4015748,55.1764706 17.4015748,54.6617647 C17.4015748,54.1470588 17.503937,53.7352941 17.503937,53.6323529 C17.503937,52.1911765 17.2992126,50.75 16.8897638,49.4117647 C16.480315,47.9705882 16.0708661,46.7352941 15.6614173,45.6029412 C15.1496063,44.2647059 14.5354331,43.0294118 13.8188976,41.7941176 C15.1496063,41.6911765 16.3779528,41.5882353 17.7086614,41.3823529 C18.8346457,41.1764706 20.0629921,40.8676471 21.3937008,40.5588235 C22.007874,40.3529412 22.6220472,40.1470588 23.2362205,39.9411765 C23.2362205,40.25 23.1338583,40.4558824 23.1338583,40.7647059 C22.9291339,42 22.8267717,43.1323529 22.7244094,44.2647059 C22.6220472,45.3970588 22.6220472,46.3235294 22.6220472,47.1470588 C22.6220472,47.8676471 22.6220472,48.5882353 22.7244094,49.3088235 C22.8267717,50.0294118 22.9291339,50.6470588 23.2362205,51.1617647 C23.4409449,51.6764706 23.8503937,52.1911765 24.2598425,52.5 C24.6692913,52.8088235 25.3858268,53.0147059 26.1023622,53.0147059 C26.4094488,53.0147059 26.7165354,52.9117647 27.023622,52.8088235 C27.3307087,52.7058824 27.5354331,52.5 27.8425197,52.1911765 C28.1496063,51.8823529 28.3543307,51.4705882 28.5590551,51.0588235 C28.7637795,50.5441176 29.0708661,50.0294118 29.2755906,49.2058824 L34.2913386,35.2058824 L34.7007874,35.2058824 C34.8031496,36.3382353 35.007874,37.5735294 35.3149606,38.7058824 C35.519685,39.8382353 35.9291339,40.8676471 36.4409449,41.7941176 C36.9527559,42.7205882 37.6692913,43.4411765 38.488189,44.0588235 C39.3070866,44.6764706 40.4330709,44.8823529 41.8661417,44.8823529 C42.6850394,44.8823529 43.4015748,44.7794118 44.1181102,44.5735294 C44.7322835,44.3676471 45.2440945,44.1617647 45.8582677,43.9558824 C45.9606299,44.5735294 46.0629921,45.1911765 46.2677165,45.8088235 C46.6771654,47.25 47.3937008,48.4852941 48.2125984,49.5147059 C49.1338583,50.5441176 50.1574803,51.4705882 51.488189,52.0882353 C52.8188976,52.7058824 54.3543307,53.0147059 56.0944882,53.0147059 C57.2204724,53.0147059 58.3464567,52.9117647 59.3700787,52.6029412 C60.496063,52.3970588 61.519685,51.9852941 62.5433071,51.5735294 C63.5669291,51.1617647 64.488189,50.6470588 65.4094488,50.1323529 C66.3307087,49.6176471 67.1496063,49 67.9685039,48.4852941 C68.2755906,48.2794118 68.6850394,47.9705882 68.992126,47.7647059 C69.2992126,48.3823529 69.7086614,49 70.1181102,49.5147059 C71.0393701,50.5441176 72.0629921,51.4705882 73.3937008,52.0882353 C74.7244094,52.7058824 76.2598425,53.0147059 78,53.0147059 C79.1259843,53.0147059 80.2519685,52.9117647 81.2755906,52.6029412 C82.4015748,52.3970588 83.4251969,51.9852941 84.4488189,51.5735294 C85.4724409,51.1617647 86.3937008,50.6470588 87.3149606,50.1323529 C88.2362205,49.6176471 89.0551181,49 89.8740157,48.4852941 C91.7165354,47.1470588 93.4566929,45.7058824 95.0944882,43.9558824 L91.6141732,39.9411765 Z M10.5433071,26.5588235 C10.6456693,25.3235294 10.8503937,23.9852941 11.2598425,22.3382353 C11.5669291,20.7941176 12.0787402,18.9411765 12.6929134,16.8823529 C13.3070866,14.8235294 14.1259843,12.4558824 15.2519685,9.77941176 C15.5590551,8.85294118 15.9685039,8.13235294 16.480315,7.72058824 C16.8897638,7.30882353 17.6062992,7 18.4251969,7 C18.9370079,7 19.2440945,7.20588235 19.5511811,7.72058824 C19.8582677,8.13235294 19.9606299,8.85294118 19.9606299,9.88235294 C19.9606299,10.6029412 19.6535433,11.6323529 19.0393701,12.9705882 C18.4251969,14.3088235 17.7086614,15.9558824 16.7874016,17.7058824 C15.8661417,19.4558824 14.8425197,21.4117647 13.7165354,23.4705882 C12.5905512,25.5294118 11.4645669,27.6911765 10.3385827,29.8529412 C10.3385827,28.8235294 10.4409449,27.6911765 10.5433071,26.5588235 Z M11.6692913,57.3382353 C11.5669291,58.3676471 11.4645669,59.3970588 11.2598425,60.2205882 C11.0551181,61.1470588 10.7480315,61.8676471 10.4409449,62.3823529 C10.0314961,63 9.51968504,63.2058824 8.90551181,63.2058824 C8.7007874,63.2058824 8.49606299,63.1029412 8.29133858,62.7941176 C8.08661417,62.5882353 7.88188976,61.9705882 7.77952756,61.1470588 C7.57480315,60.3235294 7.47244094,59.0882353 7.37007874,57.4411765 C7.26771654,55.7941176 7.26771654,53.6323529 7.26771654,50.8529412 C7.26771654,50.4411765 7.26771654,49.9264706 7.37007874,49.2058824 C7.37007874,48.4852941 7.47244094,47.7647059 7.47244094,47.0441176 C7.47244094,46.3235294 7.57480315,45.3970588 7.67716535,44.5735294 C7.77952756,43.75 7.77952756,43.0294118 7.88188976,42.3088235 C7.98425197,41.6911765 8.08661417,41.0735294 8.18897638,40.6617647 C8.29133858,40.25 8.39370079,40.0441176 8.39370079,40.0441176 C8.5984252,40.0441176 8.90551181,40.25 9.11023622,40.7647059 C9.31496063,41.2794118 9.62204724,41.8970588 9.82677165,42.7205882 C10.0314961,43.5441176 10.3385827,44.4705882 10.5433071,45.5 C10.7480315,46.5294118 10.9527559,47.5588235 11.1574803,48.5882353 C11.3622047,49.6176471 11.4645669,50.6470588 11.5669291,51.5735294 C11.6692913,52.5 11.7716535,53.3235294 11.7716535,53.9411765 C11.7716535,55.2794118 11.7716535,56.3088235 11.6692913,57.3382353 Z M52.511811,38.0882353 C52.511811,37.4705882 52.6141732,36.9558824 52.7165354,36.3382353 C52.8188976,35.7205882 53.023622,35.1029412 53.2283465,34.4852941 C53.4330709,33.8676471 53.7401575,33.3529412 54.1496063,32.8382353 C54.5590551,32.3235294 54.9685039,32.0147059 55.5826772,31.7058824 C56.1968504,31.3970588 56.8110236,31.2941176 57.6299213,31.2941176 C58.0393701,31.2941176 58.4488189,31.6029412 58.7559055,32.1176471 C59.0629921,32.6323529 59.1653543,33.3529412 59.1653543,34.1764706 C59.1653543,34.7941176 58.9606299,35.4117647 58.4488189,36.0294118 C57.9370079,36.6470588 57.4251969,37.2647059 56.7086614,37.7794118 C55.992126,38.2941176 55.2755906,38.8088235 54.5590551,39.1176471 C53.7401575,39.4264706 53.023622,39.6323529 52.4094488,39.6323529 C52.511811,39.1176471 52.511811,38.6029412 52.511811,38.0882353 Z M74.4173228,38.0882353 C74.4173228,37.4705882 74.519685,36.9558824 74.6220472,36.3382353 C74.7244094,35.7205882 74.9291339,35.1029412 75.1338583,34.4852941 C75.3385827,33.8676471 75.6456693,33.3529412 76.0551181,32.8382353 C76.4645669,32.3235294 76.8740157,32.0147059 77.488189,31.7058824 C78.1023622,31.3970588 78.7165354,31.2941176 79.5354331,31.2941176 C79.9448819,31.2941176 80.3543307,31.6029412 80.6614173,32.1176471 C80.9685039,32.6323529 81.0708661,33.3529412 81.0708661,34.1764706 C81.0708661,34.7941176 80.8661417,35.4117647 80.3543307,36.0294118 C79.8425197,36.6470588 79.3307087,37.2647059 78.6141732,37.7794118 C77.8976378,38.2941176 77.1811024,38.8088235 76.4645669,39.1176471 C75.6456693,39.4264706 74.9291339,39.6323529 74.3149606,39.6323529 C74.4173228,39.1176471 74.4173228,38.6029412 74.4173228,38.0882353 Z" id="Shape" fill="#00A6E2" fill-rule="nonzero"></path>
                            <path d="M110.96063,52.7058824 C110.03937,50.9558824 109.015748,49.1029412 108.094488,47.3529412 C107.173228,45.6029412 106.251969,43.75 105.330709,42 C105.125984,42 104.818898,42 104.511811,42 C104.204724,42 104,42 103.692913,42 L99.496063,42 L99.496063,52.7058824 L91.8188976,52.7058824 L91.8188976,20.7941176 L104,20.7941176 C107.480315,20.7941176 110.551181,21.6176471 113.110236,23.2647059 C115.669291,24.9117647 116.897638,27.5882353 116.897638,31.2941176 C116.897638,33.25 116.488189,34.8970588 115.566929,36.3382353 C114.645669,37.7794118 113.519685,38.9117647 112.188976,39.7352941 C113.417323,41.8970588 114.645669,44.0588235 115.771654,46.2205882 C117,48.3823529 118.228346,50.5441176 119.354331,52.7058824 L110.96063,52.7058824 L110.96063,52.7058824 Z M103.897638,26.9705882 L99.5984252,26.9705882 L99.5984252,35.8235294 L104,35.8235294 C105.535433,35.8235294 106.76378,35.4117647 107.685039,34.6911765 C108.606299,33.9705882 109.11811,32.8382353 109.11811,31.3970588 C109.11811,29.8529412 108.708661,28.7205882 107.787402,28 C106.76378,27.2794118 105.535433,26.9705882 103.897638,26.9705882 Z" id="Shape" fill="#FFFFFF" fill-rule="nonzero"></path>
                            <path d="M169.92126,52.7058824 L156.92126,52.7058824 L156.92126,20.7941176 L169.92126,20.7941176 C174.834646,20.7941176 178.622047,22.2352941 181.181102,25.2205882 C183.740157,28.2058824 184.968504,31.9117647 184.968504,36.5441176 C184.968504,41.4852941 183.637795,45.3970588 180.874016,48.3823529 C178.110236,51.2647059 174.425197,52.7058824 169.92126,52.7058824 Z M169.818898,26.9705882 L164.496063,26.9705882 L164.496063,46.5294118 L169.409449,46.5294118 C171.559055,46.5294118 173.401575,45.7058824 174.732283,44.0588235 C176.165354,42.4117647 176.88189,39.9411765 176.88189,36.4411765 C176.88189,33.5588235 176.267717,31.2941176 175.03937,29.5441176 C174.015748,27.7941176 172.173228,26.9705882 169.818898,26.9705882 Z" id="Shape" fill="#FFFFFF" fill-rule="nonzero"></path>
                            <polygon id="Path" fill="#FFFFFF" fill-rule="nonzero" points="197.661417 20.6911765 197.661417 52.6029412 189.984252 52.6029412 189.984252 20.6911765"></polygon>
                            <path d="M211.787402,20.6911765 L211.787402,40.25 C211.787402,42.5147059 212.401575,44.1617647 213.527559,45.1911765 C214.653543,46.3235294 216.188976,46.8382353 217.929134,46.8382353 C219.771654,46.8382353 221.204724,46.3235294 222.330709,45.1911765 C223.456693,44.0588235 224.070866,42.4117647 224.070866,40.25 L224.070866,20.6911765 L231.748031,20.6911765 L231.748031,40.6617647 C231.748031,44.5735294 230.519685,47.6617647 227.96063,49.8235294 C225.401575,52.0882353 222.125984,53.1176471 217.929134,53.1176471 C213.834646,53.1176471 210.456693,51.9852941 207.897638,49.8235294 C205.338583,47.6617647 204.110236,44.5735294 204.110236,40.5588235 L204.110236,20.6911765 L211.787402,20.6911765 Z" id="Path" fill="#FFFFFF" fill-rule="nonzero"></path>
                            <path d="M236.354331,29.0294118 C236.354331,26.4558824 237.377953,24.3970588 239.425197,22.6470588 C241.472441,20.8970588 244.338583,20.0735294 247.92126,20.0735294 C249.559055,20.0735294 251.094488,20.2794118 252.732283,20.7941176 C254.370079,21.3088235 255.80315,21.8235294 257.031496,22.6470588 L254.677165,28.1029412 C253.244094,27.5882353 252.015748,27.1764706 251.094488,26.8676471 C250.173228,26.5588235 249.047244,26.4558824 247.92126,26.4558824 C246.795276,26.4558824 245.874016,26.6617647 245.259843,27.1764706 C244.543307,27.6911765 244.23622,28.3088235 244.23622,29.0294118 C244.23622,29.9558824 244.748031,30.6764706 245.771654,31.1911765 C246.795276,31.7058824 248.023622,32.4264706 249.456693,33.25 C251.708661,34.3823529 253.858268,35.8235294 255.905512,37.5735294 C257.952756,39.2205882 258.976378,41.3823529 258.976378,44.0588235 C258.976378,46.7352941 257.850394,48.8970588 255.700787,50.6470588 C253.551181,52.3970588 250.480315,53.3235294 246.590551,53.3235294 C245.055118,53.3235294 243.314961,53.0147059 241.165354,52.5 C239.015748,51.9852941 237.480315,51.3676471 236.456693,50.6470588 L238.811024,44.6764706 C239.732283,45.1911765 240.858268,45.7058824 242.291339,46.1176471 C243.724409,46.5294118 245.15748,46.8382353 246.283465,46.8382353 C247.818898,46.8382353 248.944882,46.5294118 249.76378,46.0147059 C250.582677,45.5 250.889764,44.7794118 250.889764,43.9558824 C250.889764,43.2352941 250.377953,42.5147059 249.251969,41.7941176 C248.125984,41.0735294 246.897638,40.4558824 245.669291,39.7352941 C243.519685,38.6029412 241.370079,37.2647059 239.322835,35.6176471 C237.377953,33.9705882 236.354331,31.8088235 236.354331,29.0294118 Z" id="Path" fill="#FFFFFF" fill-rule="nonzero"></path>
                            <path d="M141.259843,20.6911765 L153.543307,52.6029412 L145.661417,52.6029412 L143.204724,45.9117647 L131.84252,45.9117647 L129.385827,52.6029412 L121.811024,52.6029412 L133.889764,20.6911765 L141.259843,20.6911765 Z M137.472441,30.3676471 L134.094488,39.9411765 L141.055118,39.9411765 L137.472441,30.3676471 Z" id="Shape" fill="#FFFFFF" fill-rule="nonzero"></path>
                        </g>
                    </g>
                </g>
            </g>
        </g>
    </g>
</svg>