<?xml version="1.0" encoding="UTF-8"?>
<svg width="794px" height="240px" viewBox="0 0 794 240" version="1.1" xmlns="http://www.w3.org/2000/svg" xmlns:xlink="http://www.w3.org/1999/xlink">
    <!-- Generator: Sketch 57.1 (83088) - https://sketch.com -->
    <title>Group 23</title>
    <desc>Created with Sketch.</desc>
    <defs>
        <polygon id="path-1" points="0 0 318.957265 0 794 0 794 240 0 240"></polygon>
    </defs>
    <g id="Page-1" stroke="none" stroke-width="1" fill="none" fill-rule="evenodd">
        <g id="Home" transform="translate(-323.000000, -176.000000)">
            <g id="Group-23" transform="translate(323.000000, 176.000000)">
                <g id="Group-15">
                    <mask id="mask-2" fill="white">
                        <use xlink:href="#path-1"></use>
                    </mask>
                    <use id="Rectangle" fill="#F8F8F8" xlink:href="#path-1"></use>
                    <g id="Group-25" mask="url(#mask-2)" fill="#E1E7E8" fill-rule="nonzero">
                        <g transform="translate(-138.000000, -47.000000)">
                            <path d="M346.766147,78.4247312 L343.258352,71.4865591 C343.258352,71.4086022 343.258352,71.3306452 343.180401,71.2526882 L326.498886,38.4327957 C326.420935,38.2768817 326.342984,38.1989247 326.265033,38.1209677 L313.247216,29.155914 C313.091314,29.077957 312.935412,29 312.77951,29 C312.623608,29 312.545657,29 312.389755,29.077957 C312.155902,29.233871 312,29.4677419 312,29.7795699 L312,45.2930108 C312,45.4489247 312,45.5268817 312.077951,45.6827957 L328.837416,78.5026882 L328.837416,78.5026882 L330.942094,82.6344086 L331.565702,83.8037634 L332.501114,85.6747312 C332.890869,86.5322581 333.74833,87 334.605791,87 C334.605791,87 334.605791,87 334.605791,87 C334.995546,87 335.30735,86.922043 335.697105,86.766129 L341.387528,83.8817204 L343.648107,82.7123656 L345.674833,81.6989247 C346.532294,81.3091398 347,80.4516129 347,79.594086 C347,79.1263441 346.922049,78.7365591 346.766147,78.4247312 Z M327.555556,44.7668737 L341.166667,71.6173913 L339.066667,72.7101449 L336.188889,67.2463768 L323.666667,43.0496894 L325.766667,39.9275362 L327.555556,44.7668737 Z M333.266404,75.2318841 L317.833333,45.766104 L317.990814,45.3032907 L318.935696,42.4492754 L321.770341,43.374902 L322.242782,43.5291731 L337.833333,72.9178176 L333.266404,75.2318841 Z M324.5,38.942029 L322.579196,41.8019324 L318.891253,40.5652174 C318.814421,40.5652174 318.737589,40.5652174 318.660757,40.5652174 C318.353428,40.5652174 318.046099,40.7971014 317.892435,41.1062802 L316.663121,44.9710145 L313.666667,44.6618357 L313.666667,31.5217391 L324.5,38.942029 Z M317.425384,51.6871829 L313.666667,45.8115942 L317.041841,46.1249589 L328.93166,69.8623371 L332,75.8946081 L330.082287,76.9130435 L317.425384,51.6871829 Z M344.919034,80.2446094 L340.109695,82.6279604 L337.823288,83.7811948 L334.827306,85.2419583 C334.669623,85.3188406 334.590781,85.3188406 334.433098,85.3188406 C334.117731,85.3188406 333.802365,85.165076 333.723523,84.8575468 L333.09279,83.7043125 L332.462057,82.5510781 L330.333333,78.4763167 L341.923052,72.7101449 L345.2344,79.0144928 C345.313242,79.1682573 345.313242,79.2451396 345.313242,79.3989042 C345.392083,79.8601979 345.2344,80.0908448 344.919034,80.2446094 Z" id="Shape" style="mix-blend-mode: multiply;"></path>
                            <path d="M250.177989,272.290185 L260.555707,245.680959 C260.633152,245.368827 260.633152,245.056696 260.400815,244.822597 C258.697011,243.183906 257.767663,240.764885 257.767663,238.345865 C257.767663,237.253404 258,236.08291 258.387228,235.068482 C259.548913,232.025198 262.182065,230.074375 265.202446,229.684211 L262.569293,236.317009 L262.569293,236.317009 C262.414402,236.62914 262.414402,236.941272 262.414402,237.253404 C262.414402,238.267832 263.033967,239.28226 264.040761,239.672424 L264.040761,239.672424 L267.370924,240.998984 L267.370924,240.998984 C267.680707,241.15505 267.990489,241.15505 268.300272,241.15505 C268.300272,241.15505 268.300272,241.15505 268.300272,241.15505 C269.307065,241.15505 270.236413,240.530786 270.623641,239.516358 L270.623641,239.516358 L273.256793,232.88356 C274.57337,234.444219 275.347826,236.317009 275.347826,238.345865 C275.347826,239.360293 275.115489,240.452754 274.728261,241.545214 C274.03125,243.183906 272.869565,244.666531 271.398098,245.680959 C269.92663,246.695387 268.14538,247.31965 266.441576,247.31965 C266.131793,247.31965 265.822011,247.553749 265.744565,247.787848 L255.366848,274.319041 C255.289402,274.631173 255.289402,274.943304 255.521739,275.177403 C257.225543,276.816094 258.154891,279.235115 258.154891,281.654135 C258.154891,282.746596 257.922554,283.91709 257.535326,284.931518 C256.373641,287.974802 253.740489,289.925625 250.720109,290.315789 L253.353261,283.761024 C253.508152,283.448893 253.585598,283.058728 253.585598,282.746596 C253.585598,282.278399 253.430707,281.810201 253.19837,281.342004 C252.966033,280.951839 252.501359,280.561674 252.036685,280.405609 L252.036685,280.405609 L248.629076,279.157082 L248.629076,279.157082 C248.319293,279.001016 248.009511,279.001016 247.699728,279.001016 C246.692935,279.001016 245.763587,279.625279 245.376359,280.639707 L242.743207,287.272506 C241.42663,285.711847 240.652174,283.839057 240.652174,281.810201 C240.652174,280.795773 240.884511,279.703312 241.271739,278.610851 C241.96875,276.97216 243.130435,275.489535 244.601902,274.475107 C246.07337,273.460679 247.85462,272.836415 249.558424,272.836415 C249.790761,272.758382 250.100543,272.602317 250.177989,272.290185 L250.177989,272.290185 M266.38809,228 C262.252567,228 258.507187,230.503667 256.868583,234.493888 C256.400411,235.745721 256.166324,237.075795 256.166324,238.405868 C256.166324,241.066015 257.102669,243.726161 258.975359,245.682152 L248.909651,271.344743 C247.036961,271.501222 245.164271,272.127139 243.603696,273.222494 C241.887064,274.396088 240.482546,276.117359 239.702259,278.07335 C239.234086,279.325183 239,280.577017 239,281.828851 C239,284.645477 240.24846,287.383863 242.433265,289.339853 C242.589322,289.496333 242.74538,289.496333 242.979466,289.496333 C243.057495,289.496333 243.135524,289.496333 243.135524,289.496333 C243.36961,289.418093 243.603696,289.261614 243.681725,289.026895 L246.724846,281.281174 C246.880903,280.811736 247.271047,280.577017 247.661191,280.577017 C247.73922,280.577017 247.895277,280.577017 248.051335,280.655257 L248.051335,280.655257 L251.4846,281.90709 C251.640657,281.98533 251.796715,282.06357 251.874743,282.220049 C251.952772,282.376528 252.030801,282.533007 252.030801,282.767726 C252.030801,282.924205 252.030801,283.080685 251.952772,283.237164 L248.909651,290.982885 C248.831622,291.217604 248.831622,291.530562 248.98768,291.687042 C249.143737,291.92176 249.377823,292 249.61191,292 C249.61191,292 249.61191,292 249.61191,292 C253.747433,292 257.492813,289.496333 259.131417,285.506112 C259.599589,284.254279 259.833676,282.924205 259.833676,281.594132 C259.833676,278.933985 258.897331,276.273839 257.024641,274.317848 L267.090349,248.655257 C268.963039,248.498778 270.835729,247.872861 272.396304,246.777506 C274.112936,245.603912 275.517454,243.882641 276.297741,241.92665 C276.765914,240.674817 277,239.422983 277,238.171149 C277,235.354523 275.75154,232.616137 273.566735,230.660147 C273.410678,230.503667 273.25462,230.503667 273.020534,230.503667 C272.942505,230.503667 272.864476,230.503667 272.864476,230.503667 C272.63039,230.581907 272.396304,230.738386 272.318275,230.973105 L269.275154,238.718826 L269.275154,238.718826 C269.119097,239.110024 268.728953,239.344743 268.338809,239.344743 C268.182752,239.344743 268.104723,239.344743 267.948665,239.266504 L267.948665,239.266504 L264.593429,237.93643 L264.593429,237.93643 C264.203285,237.779951 263.969199,237.388753 263.969199,236.997555 C263.969199,236.841076 263.969199,236.762836 264.047228,236.606357 L264.047228,236.606357 L267.090349,228.860636 C267.168378,228.625917 267.168378,228.312958 267.01232,228.156479 C266.856263,228.156479 266.622177,228 266.38809,228" id="Shape" style="mix-blend-mode: multiply;"></path>
                            <path d="M459.679417,56.8461538 L459.827793,56.8579452 C460.064334,56.895463 460.247116,57.0133761 460.376138,57.0776923 C460.530965,57.1548718 460.685792,57.3092308 460.840619,57.4635897 L460.840619,57.4635897 L466.64663,63.2520513 L465.562842,64.3325641 L465.020947,63.7923077 L460.298725,59.084359 L460.298725,78.1476923 L473.226776,78.1476923 L473.226776,79.6912821 L459.52459,79.6912821 C459.29235,79.6912821 459.137523,79.6141026 458.982696,79.4597436 C458.827869,79.3053846 458.750455,79.1510256 458.750455,78.9194872 L458.750455,78.9194872 L458.750455,59.4702564 L454.337887,63.7923077 L453.795993,64.3325641 L453.254098,63.7923077 L452.712204,63.2520513 L458.518215,57.4635897 C458.595628,57.4635897 458.673042,57.3864103 458.750455,57.3092308 L458.750455,57.3092308 L458.750455,57.1548718 L458.905282,57.1548718 C458.905282,57.0776923 458.982696,57.0776923 458.982696,57.0776923 C459.137523,56.9233333 459.369763,56.8461538 459.679417,56.8461538 L459.679417,56.8461538 Z M457.899543,37 C465.196347,37 471.406393,41.2482517 474.356164,47.4632867 C480.954338,48.25 486,53.9143357 486,60.7587413 C486,68.2325175 480.022831,74.2115385 472.726027,74.2115385 L472.726027,74.2115385 L464.497717,74.2115385 L464.497717,72.6381119 L464.497717,72.6381119 L472.726027,72.6381119 C475.986301,72.6381119 478.936073,71.3006993 481.031963,69.1765734 C483.127854,66.9737762 484.447489,64.0629371 484.447489,60.7587413 C484.447489,54.5437063 479.789954,49.5087413 473.812785,48.958042 C473.579909,48.8793706 473.269406,48.722028 473.191781,48.486014 C470.474886,42.6643357 464.652968,38.5734266 457.899543,38.5734266 L457.899543,38.5734266 L457.477434,38.5786083 C452.989031,38.6889412 448.958489,40.5545137 446.022831,43.5297203 C442.995434,46.5979021 441.13242,50.8461538 441.13242,55.5664336 C441.13242,56.2744755 441.210046,56.9825175 441.287671,57.6118881 C441.287671,57.9265734 441.13242,58.2412587 440.821918,58.3986014 C438.3379,59.5786713 436.552511,62.1748252 436.552511,65.1643357 C436.552511,67.2097902 437.406393,69.0979021 438.726027,70.4353147 C440.045662,71.7727273 441.908676,72.6381119 443.926941,72.6381119 L443.926941,72.6381119 L455.570776,72.6381119 L455.570776,74.2115385 L455.570776,74.2115385 L443.926941,74.2115385 C438.958904,74.2115385 435,70.1206294 435,65.1643357 C435,61.7027972 436.863014,58.7132867 439.657534,57.2185315 C439.579909,56.6678322 439.579909,56.1171329 439.579909,55.5664336 C439.579909,45.3391608 447.730594,37 457.899543,37 Z" id="Combined-Shape" style="mix-blend-mode: multiply;"></path>
                            <path d="M416.5,267 C424.008876,267 430,272.934924 430,280.197397 C430,282.462039 429.121302,284.960954 427.923077,287.537961 C426.724852,290.114967 425.127219,292.691974 423.529586,295.034707 C420.973373,298.861171 418.337278,301.984816 417.45858,303 L417.45858,303 L415.621302,303 C414.982249,302.29718 413.544379,300.579176 411.866864,298.314534 C409.630178,295.347072 406.914201,291.364425 405.076923,287.537961 C403.878698,284.960954 403,282.462039 403,280.197397 C403,272.934924 409.071006,267 416.5,267 Z M416.579882,268.561822 C413.304734,268.561822 410.349112,269.889371 408.192308,271.997831 C406.035503,274.106291 404.677515,276.995662 404.677515,280.197397 C404.677515,281.915401 405.316568,284.180043 406.35503,286.444685 C407.393491,288.709328 408.831361,291.130152 410.269231,293.316703 C412.745562,297.065076 415.381657,300.266811 416.5,301.672451 C416.659763,301.516269 416.819527,301.281996 417.059172,301.047722 C417.778107,300.18872 418.736686,298.939262 419.85503,297.455531 C422.091716,294.488069 424.727811,290.583514 426.485207,286.913232 C427.683432,284.414317 428.402367,282.071584 428.482249,280.197397 C428.482249,276.995662 427.12426,274.106291 424.967456,271.997831 C422.810651,269.889371 419.85503,268.561822 416.579882,268.561822 Z M416.5,273.697674 C419.76398,273.697674 422.40625,276.319461 422.40625,279.55814 C422.40625,282.796818 419.76398,285.418605 416.5,285.418605 C413.23602,285.418605 410.59375,282.796818 410.59375,279.55814 C410.59375,276.319461 413.23602,273.697674 416.5,273.697674 Z M416.5,275.239902 C415.256579,275.239902 414.168586,275.70257 413.391447,276.473684 C412.614309,277.244798 412.148026,278.324357 412.148026,279.55814 C412.148026,280.791922 412.614309,281.871481 413.391447,282.642595 C414.168586,283.413709 415.256579,283.876377 416.5,283.876377 C417.743421,283.876377 418.831414,283.413709 419.608553,282.642595 C420.385691,281.79437 420.851974,280.71481 420.851974,279.55814 C420.851974,278.324357 420.385691,277.244798 419.608553,276.473684 C418.753701,275.70257 417.743421,275.239902 416.5,275.239902 Z" id="Combined-Shape" style="mix-blend-mode: multiply;"></path>
                            <path d="M193,47 C179.75,47 169,57.75 169,71 C169,84.25 179.75,95 193,95 C206.25,95 217,84.25 217,71 C217,57.75 206.25,47 193,47 Z M197.166667,54.4166667 C197.25,54.75 197.5,55 197.833333,55.0833333 C197.916667,55.0833333 198.083333,55.0833333 198.166667,55.1666667 C198.083333,55.1666667 198,55.25 197.916667,55.25 C197.166667,55.4166667 196.25,55.6666667 195.166667,56.25 C194.916667,56.4166667 194.75,56.5833333 194.5,56.75 C193.75,57.4166667 192.833333,58.5 192.083333,59.5 C191.75,59.9166667 191.5,60.25 191.25,60.5833333 C191.083333,60.4166667 190.833333,60.25 190.583333,60.0833333 C190.25,59.8333333 189.75,59.6666667 189.25,59.6666667 L189.083333,59.6666667 L189.083333,59.6666667 C188.333333,59.75 187.583333,59.75 186.833333,60 C186.416667,60.1666667 186.083333,60.3333333 185.75,60.6666667 C185.416667,61 185.166667,61.4166667 185,61.9166667 C184.75,62.5 184.666667,62.9166667 184.666667,63.4166667 C184.666667,63.5833333 184.666667,63.75 184.75,64 C184.75,64 184.75,64 184.75,64 C184.25,63.8333333 183.916667,63.6666667 183.666667,63.4166667 C183.666667,63.4166667 183.583333,63.3333333 183.583333,63.1666667 C183.333333,62.6666667 183,61.75 182.666667,61 C182.5,60.5833333 182.333333,60.25 182.083333,59.9166667 C182,59.75 181.833333,59.5833333 181.666667,59.4166667 C181.5,59.25 181.25,59.1666667 180.916667,59.0833333 C180.833333,59.0833333 180.75,59.0833333 180.666667,59.0833333 C180.5,58.4166667 180.416667,57.6666667 180.416667,57.0833333 C180.416667,56.9166667 180.416667,56.75 180.416667,56.6666667 L180.416667,56.6666667 C180.416667,56.5 180.5,56.4166667 180.583333,56.1666667 C180.75,55.9166667 181.166667,55.5833333 181.5,55.1666667 C181.666667,54.9166667 181.916667,54.6666667 182,54.4166667 C182.166667,54.0833333 182.25,53.75 182.25,53.3333333 C182.25,52.9166667 182.166667,52.5 182,52.0833333 L182,52.0833333 C182,52 181.916667,51.9166667 181.916667,51.9166667 C184.25,50.5833333 186.75,49.6666667 189.5,49.1666667 C191.166667,49.0833333 193.416667,49 195.25,49 C195.083333,49.0833333 194.833333,49.1666667 194.666667,49.25 C194.083333,49.5 193.5,49.8333333 193.083333,50.0833333 C192.833333,50.25 192.666667,50.3333333 192.5,50.5833333 C192.416667,50.6666667 192.333333,50.75 192.25,50.9166667 C192.166667,51.0833333 192.083333,51.25 192.083333,51.5 C192.083333,51.5 192.083333,51.5833333 192.083333,51.75 C192.083333,51.8333333 192.166667,51.9166667 192.166667,51.9166667 C192.25,52 192.25,52.0833333 192.25,52.0833333 L192.333333,52.1666667 C192.5,52.25 192.666667,52.4166667 192.916667,52.6666667 C193.333333,53 193.75,53.3333333 194.166667,53.5833333 C194.333333,53.75 194.5,53.8333333 194.583333,53.9166667 L194.666667,54 C194.75,54.1666667 194.916667,54.25 195.083333,54.25 C195.25,54.25 195.416667,54.3333333 195.5,54.3333333 C196.166667,54.3333333 196.666667,54 197.083333,53.6666667 C197.666667,53.1666667 198.166667,52.5 198.583333,52.0833333 C198.833333,51.8333333 199,51.6666667 199.25,51.5833333 C199.416667,51.5 199.666667,51.4166667 199.833333,51.4166667 C200,51.4166667 200.25,51.4166667 200.5,51.5833333 C200.583333,51.75 200.583333,51.8333333 200.666667,52 C200.833333,52.3333333 201,52.6666667 201.166667,52.9166667 C201.083333,52.9166667 201.083333,52.9166667 201,53 C200.5,53.0833333 199.833333,53.1666667 199.166667,53.25 C198.833333,53.25 198.583333,53.3333333 198.25,53.4166667 C198,53.5 197.75,53.5 197.416667,53.6666667 C197.25,53.75 197.083333,54.0833333 197.166667,54.4166667 Z M180.416667,52.5833333 C180.833333,52.3333333 181.25,52.0833333 181.666667,51.8333333 C181.25,52.0833333 180.833333,52.3333333 180.416667,52.5833333 Z M197.25,49.0833333 C197.5,49.1666667 197.75,49.1666667 198,49.25 C197.666667,49.1666667 197.416667,49.1666667 197.25,49.0833333 Z M198.25,49.3333333 C198.75,49.4166667 199.166667,49.5833333 199.666667,49.75 C199.083333,49.8333333 198.583333,50.0833333 198.166667,50.3333333 C197.416667,50.8333333 197,51.5 196.5,52 C196.25,52.25 196.083333,52.4166667 195.916667,52.5 C195.75,52.5833333 195.666667,52.5833333 195.583333,52.6666667 C195.583333,52.6666667 195.583333,52.6666667 195.583333,52.6666667 C195.25,52.4166667 194.666667,52 194.166667,51.5833333 C194.083333,51.5 194,51.5 193.916667,51.4166667 C194.25,51.25 194.583333,51 195,50.8333333 C195.833333,50.4166667 196.75,50.0833333 197.5,49.75 C197.75,49.5 198,49.4166667 198.25,49.3333333 Z M194.666667,48.75 C194.916667,48.75 195.25,48.8333333 195.5,48.8333333 C195.25,48.8333333 195,48.8333333 194.666667,48.75 Z M196,48.9166667 C196.25,48.9166667 196.5,49 196.75,49 C196.5,49 196.25,48.9166667 196,48.9166667 Z M199.666667,49.6666667 C200.083333,49.75 200.416667,49.9166667 200.833333,50.0833333 C200.416667,50 200.083333,49.8333333 199.666667,49.6666667 Z M201.166667,50.25 C201.416667,50.3333333 201.75,50.5 202,50.5833333 C201.666667,50.4166667 201.416667,50.3333333 201.166667,50.25 Z M194.25,48.75 C193.833333,48.75 193.416667,48.75 193,48.75 C192.416667,48.75 191.833333,48.75 191.333333,48.8333333 C191.916667,48.8333333 192.416667,48.75 193,48.75 C193.416667,48.6666667 193.833333,48.75 194.25,48.75 Z M189.416667,49 C189.916667,48.9166667 190.5,48.8333333 191,48.8333333 C190.5,48.8333333 190,48.9166667 189.416667,49 Z M208.833333,86.8333333 C204.75,90.8333333 199.25,93.3333333 193.083333,93.3333333 C186.916667,93.3333333 181.333333,90.8333333 177.333333,86.8333333 C173.333333,82.75 170.833333,77.25 170.833333,71.0833333 C170.833333,64.9166667 173.333333,59.3333333 177.333333,55.3333333 C178.25,54.4166667 179.333333,53.5 180.416667,52.75 C180.5,53 180.583333,53.1666667 180.583333,53.3333333 C180.583333,53.5 180.5,53.6666667 180.416667,53.8333333 C180.25,54.0833333 179.916667,54.4166667 179.5,54.8333333 C179.333333,55 179.083333,55.25 178.916667,55.5833333 C178.75,55.8333333 178.666667,56.25 178.583333,56.5833333 L178.583333,56.5833333 C178.583333,56.75 178.583333,56.9166667 178.583333,57.1666667 C178.583333,59 179.166667,61.0833333 180.416667,62.6666667 C180.583333,62.8333333 180.833333,63 181.083333,63 C181.25,63 181.333333,63 181.5,62.9166667 C181.583333,63 181.583333,63.1666667 181.583333,63.25 C181.666667,63.5 181.833333,63.8333333 181.916667,64 C182,64.0833333 182,64.25 182.083333,64.3333333 C182.166667,64.4166667 182.25,64.5833333 182.333333,64.6666667 C183.083333,65.3333333 184.083333,65.6666667 185,65.8333333 C185.916667,66.0833333 186.75,66.1666667 187.333333,66.4166667 C187.583333,66.5 187.75,66.5833333 187.833333,66.75 C188,66.9166667 188.25,67.1666667 188.583333,67.5 C188.833333,67.75 189.166667,68 189.666667,68.1666667 C189.166667,69 188.916667,70 188.916667,71.0833333 C188.916667,71.8333333 189.083333,72.5833333 189.333333,73.3333333 C189.583333,73.8333333 189.916667,74.25 190.25,74.6666667 C190.75,75.1666667 191.333333,75.5 191.75,75.8333333 C192.166667,76.1666667 192.5,76.4166667 192.666667,76.8333333 C192.833333,77.1666667 192.916667,77.5833333 193,78.0833333 C193.083333,78.5833333 193.083333,79.0833333 193.083333,79.6666667 C193.083333,79.8333333 193.083333,80.0833333 193.083333,80.25 C193.083333,80.9166667 193.083333,81.6666667 193.25,82.4166667 L193.25,82.4166667 C193.416667,83.25 193.666667,84.3333333 194.166667,85.3333333 C194.583333,86.25 195.083333,87.0833333 195.833333,87.75 C195.916667,87.8333333 196,87.8333333 196,87.9166667 C196,87.9166667 196,87.9166667 196,87.9166667 C196,87.9166667 196.083333,88 196.083333,88 C196.166667,88.0833333 196.333333,88.0833333 196.416667,88.0833333 C196.416667,88.0833333 196.416667,88.0833333 196.416667,88.0833333 C196.416667,88.0833333 196.416667,88.0833333 196.416667,88.0833333 C196.75,88.0833333 197.083333,87.9166667 197.333333,87.75 C197.666667,87.4166667 197.833333,87.0833333 197.916667,86.75 C198,86.4166667 198,86 198,85.6666667 C198,85.25 197.916667,84.75 197.833333,84.3333333 C198,84.25 198.083333,84.25 198.166667,84.1666667 C198.416667,84 198.583333,83.8333333 198.75,83.6666667 C198.916667,83.3333333 199,83.0833333 199.083333,82.75 C199.083333,82.5 199.166667,82.3333333 199.166667,82.1666667 C199.333333,82.1666667 199.583333,82.0833333 199.75,82 C200,81.8333333 200.25,81.6666667 200.333333,81.5 C200.583333,81.25 200.666667,81 200.833333,80.75 C201,80.5833333 201.083333,80.3333333 201.333333,80.1666667 C201.416667,80.0833333 202,79.5833333 202.583333,79.0833333 C202.916667,78.8333333 203.166667,78.5833333 203.416667,78.3333333 C203.5,78.25 203.583333,78.1666667 203.666667,78.0833333 L203.666667,78.0833333 C203.75,78 203.833333,77.9166667 203.916667,77.8333333 C204.416667,77.0833333 204.833333,76.4166667 205.166667,75.75 C205.5,75.0833333 205.666667,74.4166667 205.666667,73.75 C205.666667,73.1666667 205.5,72.6666667 205.25,72.1666667 C205,71.6666667 204.583333,71.25 204.083333,70.8333333 C203.916667,70.6666667 203.75,70.5833333 203.583333,70.5833333 C203.333333,70.5 203,70.4166667 202.666667,70.3333333 C202.166667,70.25 201.666667,70.0833333 201.166667,70 C201.083333,70 201,70 200.916667,69.9166667 C200.916667,69.75 200.833333,69.5833333 200.833333,69.4166667 C200.75,69.25 200.583333,69.0833333 200.5,69 C200.333333,68.9166667 200.25,68.75 200,68.6666667 C199.083333,68.0833333 198,67.4166667 196.916667,66.9166667 C195.75,66.4166667 194.583333,65.9166667 193.25,65.9166667 L193.166667,65.9166667 C192.583333,65.9166667 192,66.0833333 191.416667,66.4166667 C191.083333,66.5833333 190.833333,66.8333333 190.583333,67.0833333 C190.5,66.9166667 190.416667,66.75 190.333333,66.5833333 C190.25,66.4166667 190.25,66.25 190.25,66 C190.25,65.8333333 190.166667,65.6666667 190.083333,65.4166667 C190,65.0833333 189.666667,64.75 189.333333,64.5833333 C189.333333,64.5833333 189.333333,64.5833333 189.25,64.5833333 C189.25,64.4166667 189.333333,64.25 189.333333,64.0833333 C189.333333,63.8333333 189.25,63.5833333 189.166667,63.3333333 C189.083333,63.0833333 188.916667,62.9166667 188.75,62.8333333 C188.583333,62.75 188.416667,62.75 188.25,62.75 C188.083333,62.75 187.916667,62.75 187.833333,62.8333333 C187.416667,62.9166667 187,63.1666667 186.583333,63.3333333 C186.416667,63.4166667 186.166667,63.5 186,63.5 C186,63.5 185.916667,63.5 185.916667,63.5 C185.916667,63.3333333 186,63.1666667 186.083333,62.9166667 C186.25,62.5833333 186.333333,62.3333333 186.5,62.25 C186.666667,62.0833333 186.916667,62 187.25,61.9166667 C187.583333,61.8333333 188.166667,61.8333333 188.75,61.75 L188.75,61.75 L188.833333,61.75 C188.916667,61.75 189.083333,61.75 189.25,61.8333333 C189.5,61.9166667 189.75,62.1666667 190,62.4166667 C190.083333,62.5 190.25,62.5833333 190.333333,62.75 C190.416667,62.8333333 190.416667,62.8333333 190.583333,62.9166667 C190.666667,63 190.833333,63.0833333 191.083333,63.0833333 L191.25,63.0833333 C191.416667,63.0833333 191.416667,63 191.5,63 C191.583333,62.9166667 191.583333,62.9166667 191.666667,62.9166667 L191.75,62.8333333 L191.833333,62.75 L191.833333,62.75 C192,62.5833333 192.75,61.5833333 193.583333,60.5 C194,60 194.416667,59.4166667 194.833333,59 C195,58.75 195.25,58.5833333 195.333333,58.5 C195.5,58.3333333 195.583333,58.25 195.666667,58.25 C196.583333,57.75 197.25,57.6666667 198,57.4166667 C198.75,57.25 199.666667,57 200.583333,56.3333333 C200.833333,56.1666667 201,55.9166667 200.916667,55.5833333 C200.916667,55.4166667 200.833333,55.3333333 200.75,55.1666667 C201,55.0833333 201.166667,55.0833333 201.416667,55 C201.75,54.9166667 202.083333,54.75 202.333333,54.5833333 C202.5,54.5 202.666667,54.3333333 202.75,54.1666667 C202.833333,54 202.916667,53.75 202.916667,53.5 C202.916667,53.5 202.916667,53.5 202.916667,53.5 C202.916667,53.5 202.916667,53.5 202.916667,53.5 C202.916667,53.1666667 202.75,52.9166667 202.416667,52.75 C202.416667,52.6666667 202.333333,52.6666667 202.25,52.5833333 C202.083333,52.3333333 201.916667,52.0833333 201.833333,51.8333333 C201.833333,51.75 201.75,51.75 201.75,51.6666667 C201.75,51.5833333 201.75,51.5 201.75,51.3333333 C201.75,51.3333333 201.75,51.25 201.75,51.25 C204.25,52.3333333 206.5,53.9166667 208.416667,55.8333333 C212.833333,59.25 215.333333,64.8333333 215.333333,71 C215.333333,77.1666667 212.833333,82.75 208.833333,86.8333333 Z M187.166667,64.4166667 C187.333333,64.3333333 187.416667,64.3333333 187.583333,64.25 C187.5,64.3333333 187.5,64.4166667 187.5,64.5 C187.333333,64.5 187.25,64.5 187.166667,64.4166667 Z M199.25,70.4166667 C199.333333,70.5833333 199.5,70.6666667 199.583333,70.75 C199.666667,70.8333333 199.75,70.8333333 199.833333,70.9166667 C200,71 200.083333,71 200.25,71.0833333 C200.75,71.25 201.416667,71.3333333 202.083333,71.5 C202.416667,71.5833333 202.666667,71.6666667 202.916667,71.6666667 C203,71.6666667 203.083333,71.75 203.166667,71.75 L203.25,71.75 C203.666667,72.0833333 203.833333,72.3333333 204,72.5833333 C204.166667,72.8333333 204.166667,73.0833333 204.166667,73.4166667 C204.166667,73.75 204.083333,74.25 203.833333,74.75 C203.583333,75.25 203.25,75.8333333 202.833333,76.5 C202.75,76.5833333 202.583333,76.75 202.333333,76.9166667 C201.583333,77.5 200.5,78.5 200.416667,78.5833333 C199.75,79.1666667 199.5,79.75 199.333333,80 C199.25,80.0833333 199.25,80.0833333 199.166667,80.1666667 C199.083333,80.1666667 199,80.25 198.75,80.25 L198.583333,80.25 C198.583333,80.25 198.583333,80.25 198.583333,80.25 C198.25,80.25 197.916667,80.5 197.833333,80.75 C197.75,80.9166667 197.75,81 197.75,81.0833333 C197.75,81.1666667 197.75,81.25 197.75,81.3333333 C197.75,81.5 197.75,81.5833333 197.75,81.6666667 C197.75,82 197.75,82.25 197.666667,82.3333333 L197.583333,82.4166667 C197.583333,82.4166667 197.5,82.4166667 197.416667,82.4166667 C197.333333,82.4166667 197.25,82.4166667 197.083333,82.4166667 C197,82.4166667 197,82.4166667 196.916667,82.4166667 C196.583333,82.4166667 196.333333,82.5833333 196.166667,82.8333333 C196,83.1666667 196.083333,83.5833333 196.333333,83.8333333 C196.333333,83.8333333 196.333333,83.9166667 196.416667,84 C196.5,84.25 196.666667,84.8333333 196.666667,85.3333333 C196.666667,85.5 196.666667,85.5833333 196.666667,85.6666667 C196.416667,85.3333333 196.083333,84.8333333 195.916667,84.3333333 C195.5,83.5 195.25,82.5833333 195.166667,81.8333333 L195.166667,81.8333333 C195.083333,81.3333333 195.083333,80.6666667 195.083333,80 C195.083333,79.8333333 195.083333,79.5833333 195.083333,79.4166667 C195.083333,78.8333333 195.083333,78.25 195,77.6666667 C194.916667,77.0833333 194.75,76.5 194.5,75.9166667 C194.25,75.4166667 193.916667,75.0833333 193.583333,74.75 C193.083333,74.3333333 192.583333,74 192.166667,73.6666667 C191.75,73.3333333 191.416667,73 191.25,72.5833333 C191,72.0833333 190.916667,71.5833333 190.916667,71 C190.916667,70 191.333333,69 191.833333,68.25 C192.083333,67.9166667 192.416667,67.5833333 192.75,67.4166667 C193.083333,67.25 193.333333,67.1666667 193.583333,67.1666667 L193.583333,67.1666667 C194.5,67.1666667 195.5,67.5 196.583333,68 C197.583333,68.4166667 198.5,69.0833333 199.333333,69.5833333 C199.333333,69.6666667 199.25,69.8333333 199.25,69.9166667 C199.083333,70.0833333 199.166667,70.25 199.25,70.4166667 Z" id="Shape" style="mix-blend-mode: multiply;"></path>
                            <path d="M142.04186,170.367521 C146.227907,170.367521 149.827907,171.441595 152.590698,173.424501 C155.186047,175.324786 156.776744,178.133903 156.776744,181.438746 L156.776744,181.438746 L156.776744,183.173789 C156.776744,183.421652 156.693023,183.586895 156.525581,183.752137 C156.35814,183.917379 156.190698,184 155.939535,184 L155.939535,184 L128.227907,184 C127.976744,184 127.809302,183.917379 127.64186,183.752137 C127.474419,183.586895 127.390698,183.421652 127.390698,183.173789 L127.390698,183.173789 L127.390698,181.438746 C127.390698,178.216524 128.981395,175.324786 131.576744,173.424501 C134.172093,171.441595 137.855814,170.367521 142.04186,170.367521 Z M141.95814,172.019943 L141.507106,172.024681 C137.773579,172.10342 134.671199,173.157572 132.497674,174.746439 C130.237209,176.39886 128.981395,178.712251 128.981395,181.438746 L128.981395,181.438746 L128.981395,182.347578 L154.934884,182.347578 L154.934884,181.438746 C154.934884,178.712251 153.67907,176.39886 151.418605,174.746439 C149.15814,173.011396 145.893023,172.019943 141.95814,172.019943 L141.95814,172.019943 Z M158.283721,158.387464 C161.465116,158.387464 164.060465,160.948718 164.060465,164.088319 C164.060465,166.566952 162.469767,168.7151 160.209302,169.458689 C159.740465,169.392593 159.218047,169.379373 158.684912,169.376729 L158.57052,169.37655 C159.143142,169.379441 159.706977,169.399674 160.209302,169.541311 C162.469767,169.789174 164.395349,170.532764 165.902326,171.606838 C167.750884,172.955214 168.905027,174.988882 168.994401,177.269256 L169,177.555556 L169,178.794872 C169,179.042735 168.916279,179.207977 168.748837,179.373219 C168.609302,179.510921 168.469767,179.591247 168.281783,179.614198 L168.162791,179.621083 L158.451163,179.621083 C158.384186,179.158405 158.263628,178.695726 158.132353,178.27535 L158.032558,177.968661 L167.325581,177.968661 L167.325581,177.555556 C167.325581,175.655271 166.488372,174.08547 164.897674,172.928775 C163.382724,171.82716 161.260275,171.100245 158.67497,171.033513 L158.283721,171.02849 L157.847723,171.035279 C156.262209,171.084718 154.823256,171.400285 153.595349,171.854701 C153.093023,171.441595 152.506977,171.111111 151.92093,170.780627 C153.072093,170.174739 154.434302,169.7077 155.943072,169.506789 L156.35814,169.458689 L156.13436,169.379688 C153.993395,168.571523 152.506977,166.48433 152.506977,164.088319 C152.506977,160.948718 155.102326,158.387464 158.283721,158.387464 Z M125.716279,158.387464 C128.897674,158.387464 131.493023,160.948718 131.493023,164.088319 C131.493023,166.566952 129.902326,168.7151 127.64186,169.458689 L128.110192,169.51989 C129.343152,169.699413 130.451163,170.009497 131.493023,170.450142 C131.744186,170.532764 131.911628,170.615385 132.07907,170.698006 C131.493023,171.02849 130.906977,171.358974 130.404651,171.77208 C129.176744,171.317664 127.737791,171.002097 126.152277,170.952658 L125.716279,170.945869 L125.32503,170.950892 C122.739725,171.017624 120.617276,171.744539 119.102326,172.846154 C117.587375,173.947768 116.755861,175.424082 116.680105,177.203722 L116.674419,177.472934 L116.674419,177.88604 L125.967442,177.88604 C125.833488,178.282621 125.699535,178.73208 125.608447,179.192114 L125.548837,179.538462 L115.837209,179.538462 C115.586047,179.538462 115.418605,179.45584 115.251163,179.290598 C115.111628,179.152896 115.030233,179.015195 115.006977,178.82968 L115,178.712251 L115,177.472934 C115,175.076923 116.172093,172.928775 118.097674,171.524217 C119.604651,170.450142 121.530233,169.706553 123.790698,169.458689 C121.530233,168.7151 119.939535,166.566952 119.939535,164.088319 C119.939535,160.948718 122.534884,158.387464 125.716279,158.387464 Z M142.04186,155 C146.311628,155 149.744186,158.387464 149.827907,162.683761 C149.827907,165.245014 148.488372,167.475783 146.562791,168.880342 C145.390698,169.728585 143.926884,170.216967 142.375553,170.278315 L142.04186,170.2849 L141.708167,170.278315 C140.156837,170.216967 138.693023,169.728585 137.52093,168.880342 C135.511628,167.558405 134.255814,165.245014 134.255814,162.683761 C134.255814,158.470085 137.772093,155 142.04186,155 Z M124.109818,169.422077 C124.000999,169.432005 123.894534,169.444051 123.790698,169.458689 L124.109818,169.422077 Z M126.11747,169.376729 C126.623814,169.379373 127.106047,169.392593 127.64186,169.458689 C127.173023,169.392593 126.650605,169.379373 126.11747,169.376729 Z M124.376278,169.402047 L124.406909,169.400239 L124.406909,169.400239 L124.376278,169.402047 L124.437627,169.398517 Z M124.683214,169.387686 L124.797774,169.384174 L124.797774,169.384174 L124.683214,169.387686 L124.913136,169.381453 Z M125.315088,169.376729 C125.18189,169.37739 125.04936,169.378711 124.918168,169.381351 L125.315088,169.376729 Z M141.95814,156.735043 C140.283721,156.735043 138.776744,157.396011 137.688372,158.470085 C136.6,159.54416 135.930233,161.031339 135.930233,162.683761 C135.930233,164.336182 136.6,165.823362 137.688372,166.897436 C138.44186,167.641026 139.446512,168.219373 140.618605,168.467236 C141.049169,168.608873 141.418225,168.629106 141.778493,168.631997 L141.95814,168.632479 L142.218009,168.623225 C142.574326,168.59943 142.962791,168.533333 143.297674,168.467236 C144.386047,168.219373 145.390698,167.723647 146.227907,166.897436 C147.316279,165.823362 147.986047,164.336182 147.986047,162.683761 C147.986047,161.031339 147.316279,159.54416 146.227907,158.470085 C145.139535,157.396011 143.632558,156.735043 141.95814,156.735043 Z M158.283721,160.039886 C157.111628,160.039886 156.106977,160.452991 155.353488,161.196581 C154.6,161.940171 154.181395,162.931624 154.181395,164.088319 C154.181395,165.245014 154.6,166.236467 155.353488,166.980057 C156.053156,167.670533 156.969388,168.076051 158.035152,168.130459 L158.283721,168.136752 L158.53229,168.130459 C159.598054,168.076051 160.514286,167.670533 161.213953,166.980057 C161.967442,166.236467 162.386047,165.245014 162.386047,164.088319 C162.386047,162.931624 161.967442,161.940171 161.213953,161.196581 C160.460465,160.452991 159.455814,160.039886 158.283721,160.039886 Z M125.716279,160.039886 C124.544186,160.039886 123.539535,160.452991 122.786047,161.196581 C122.032558,161.940171 121.613953,162.931624 121.613953,164.088319 C121.613953,165.245014 122.032558,166.236467 122.786047,166.980057 C123.485714,167.670533 124.401946,168.076051 125.46771,168.130459 L125.716279,168.136752 L125.94938,168.130459 C126.958424,168.076051 127.946844,167.670533 128.646512,166.980057 C129.4,166.236467 129.818605,165.245014 129.818605,164.088319 C129.818605,162.931624 129.4,161.940171 128.646512,161.196581 C127.893023,160.452991 126.888372,160.039886 125.716279,160.039886 Z" id="Combined-Shape" style="mix-blend-mode: multiply;"></path>
                            <path d="M946.766147,124.424731 L943.258352,117.486559 C943.258352,117.408602 943.258352,117.330645 943.180401,117.252688 L926.498886,84.4327957 C926.420935,84.2768817 926.342984,84.1989247 926.265033,84.1209677 L913.247216,75.155914 C913.091314,75.077957 912.935412,75 912.77951,75 C912.623608,75 912.545657,75 912.389755,75.077957 C912.155902,75.233871 912,75.4677419 912,75.7795699 L912,91.2930108 C912,91.4489247 912,91.5268817 912.077951,91.6827957 L928.837416,124.502688 L928.837416,124.502688 L930.942094,128.634409 L931.565702,129.803763 L932.501114,131.674731 C932.890869,132.532258 933.74833,133 934.605791,133 C934.605791,133 934.605791,133 934.605791,133 C934.995546,133 935.30735,132.922043 935.697105,132.766129 L941.387528,129.88172 L943.648107,128.712366 L945.674833,127.698925 C946.532294,127.30914 947,126.451613 947,125.594086 C947,125.126344 946.922049,124.736559 946.766147,124.424731 Z M927.555556,90.7668737 L941.166667,117.617391 L939.066667,118.710145 L936.188889,113.246377 L923.666667,89.0496894 L925.766667,85.9275362 L927.555556,90.7668737 Z M933.266404,121.231884 L917.833333,91.766104 L917.990814,91.3032907 L918.935696,88.4492754 L921.770341,89.374902 L922.242782,89.5291731 L937.833333,118.917818 L933.266404,121.231884 Z M924.5,84.942029 L922.579196,87.8019324 L918.891253,86.5652174 C918.814421,86.5652174 918.737589,86.5652174 918.660757,86.5652174 C918.353428,86.5652174 918.046099,86.7971014 917.892435,87.1062802 L916.663121,90.9710145 L913.666667,90.6618357 L913.666667,77.5217391 L924.5,84.942029 Z M917.425384,97.6871829 L913.666667,91.8115942 L917.041841,92.1249589 L928.93166,115.862337 L932,121.894608 L930.082287,122.913043 L917.425384,97.6871829 Z M944.919034,126.244609 L940.109695,128.62796 L937.823288,129.781195 L934.827306,131.241958 C934.669623,131.318841 934.590781,131.318841 934.433098,131.318841 C934.117731,131.318841 933.802365,131.165076 933.723523,130.857547 L933.09279,129.704312 L932.462057,128.551078 L930.333333,124.476317 L941.923052,118.710145 L945.2344,125.014493 C945.313242,125.168257 945.313242,125.24514 945.313242,125.398904 C945.392083,125.860198 945.2344,126.090845 944.919034,126.244609 Z" id="Shape" style="mix-blend-mode: multiply;"></path>
                            <path d="M871.177989,284.290185 L881.555707,257.680959 C881.633152,257.368827 881.633152,257.056696 881.400815,256.822597 C879.697011,255.183906 878.767663,252.764885 878.767663,250.345865 C878.767663,249.253404 879,248.08291 879.387228,247.068482 C880.548913,244.025198 883.182065,242.074375 886.202446,241.684211 L883.569293,248.317009 L883.569293,248.317009 C883.414402,248.62914 883.414402,248.941272 883.414402,249.253404 C883.414402,250.267832 884.033967,251.28226 885.040761,251.672424 L885.040761,251.672424 L888.370924,252.998984 L888.370924,252.998984 C888.680707,253.15505 888.990489,253.15505 889.300272,253.15505 C889.300272,253.15505 889.300272,253.15505 889.300272,253.15505 C890.307065,253.15505 891.236413,252.530786 891.623641,251.516358 L891.623641,251.516358 L894.256793,244.88356 C895.57337,246.444219 896.347826,248.317009 896.347826,250.345865 C896.347826,251.360293 896.115489,252.452754 895.728261,253.545214 C895.03125,255.183906 893.869565,256.666531 892.398098,257.680959 C890.92663,258.695387 889.14538,259.31965 887.441576,259.31965 C887.131793,259.31965 886.822011,259.553749 886.744565,259.787848 L876.366848,286.319041 C876.289402,286.631173 876.289402,286.943304 876.521739,287.177403 C878.225543,288.816094 879.154891,291.235115 879.154891,293.654135 C879.154891,294.746596 878.922554,295.91709 878.535326,296.931518 C877.373641,299.974802 874.740489,301.925625 871.720109,302.315789 L874.353261,295.761024 C874.508152,295.448893 874.585598,295.058728 874.585598,294.746596 C874.585598,294.278399 874.430707,293.810201 874.19837,293.342004 C873.966033,292.951839 873.501359,292.561674 873.036685,292.405609 L873.036685,292.405609 L869.629076,291.157082 L869.629076,291.157082 C869.319293,291.001016 869.009511,291.001016 868.699728,291.001016 C867.692935,291.001016 866.763587,291.625279 866.376359,292.639707 L863.743207,299.272506 C862.42663,297.711847 861.652174,295.839057 861.652174,293.810201 C861.652174,292.795773 861.884511,291.703312 862.271739,290.610851 C862.96875,288.97216 864.130435,287.489535 865.601902,286.475107 C867.07337,285.460679 868.85462,284.836415 870.558424,284.836415 C870.790761,284.758382 871.100543,284.602317 871.177989,284.290185 L871.177989,284.290185 M887.38809,240 C883.252567,240 879.507187,242.503667 877.868583,246.493888 C877.400411,247.745721 877.166324,249.075795 877.166324,250.405868 C877.166324,253.066015 878.102669,255.726161 879.975359,257.682152 L869.909651,283.344743 C868.036961,283.501222 866.164271,284.127139 864.603696,285.222494 C862.887064,286.396088 861.482546,288.117359 860.702259,290.07335 C860.234086,291.325183 860,292.577017 860,293.828851 C860,296.645477 861.24846,299.383863 863.433265,301.339853 C863.589322,301.496333 863.74538,301.496333 863.979466,301.496333 C864.057495,301.496333 864.135524,301.496333 864.135524,301.496333 C864.36961,301.418093 864.603696,301.261614 864.681725,301.026895 L867.724846,293.281174 C867.880903,292.811736 868.271047,292.577017 868.661191,292.577017 C868.73922,292.577017 868.895277,292.577017 869.051335,292.655257 L869.051335,292.655257 L872.4846,293.90709 C872.640657,293.98533 872.796715,294.06357 872.874743,294.220049 C872.952772,294.376528 873.030801,294.533007 873.030801,294.767726 C873.030801,294.924205 873.030801,295.080685 872.952772,295.237164 L869.909651,302.982885 C869.831622,303.217604 869.831622,303.530562 869.98768,303.687042 C870.143737,303.92176 870.377823,304 870.61191,304 C870.61191,304 870.61191,304 870.61191,304 C874.747433,304 878.492813,301.496333 880.131417,297.506112 C880.599589,296.254279 880.833676,294.924205 880.833676,293.594132 C880.833676,290.933985 879.897331,288.273839 878.024641,286.317848 L888.090349,260.655257 C889.963039,260.498778 891.835729,259.872861 893.396304,258.777506 C895.112936,257.603912 896.517454,255.882641 897.297741,253.92665 C897.765914,252.674817 898,251.422983 898,250.171149 C898,247.354523 896.75154,244.616137 894.566735,242.660147 C894.410678,242.503667 894.25462,242.503667 894.020534,242.503667 C893.942505,242.503667 893.864476,242.503667 893.864476,242.503667 C893.63039,242.581907 893.396304,242.738386 893.318275,242.973105 L890.275154,250.718826 L890.275154,250.718826 C890.119097,251.110024 889.728953,251.344743 889.338809,251.344743 C889.182752,251.344743 889.104723,251.344743 888.948665,251.266504 L888.948665,251.266504 L885.593429,249.93643 L885.593429,249.93643 C885.203285,249.779951 884.969199,249.388753 884.969199,248.997555 C884.969199,248.841076 884.969199,248.762836 885.047228,248.606357 L885.047228,248.606357 L888.090349,240.860636 C888.168378,240.625917 888.168378,240.312958 888.01232,240.156479 C887.856263,240.156479 887.622177,240 887.38809,240" id="Shape" style="mix-blend-mode: multiply;"></path>
                            <path d="M814,39 C800.75,39 790,49.75 790,63 C790,76.25 800.75,87 814,87 C827.25,87 838,76.25 838,63 C838,49.75 827.25,39 814,39 Z M818.166667,46.4166667 C818.25,46.75 818.5,47 818.833333,47.0833333 C818.916667,47.0833333 819.083333,47.0833333 819.166667,47.1666667 C819.083333,47.1666667 819,47.25 818.916667,47.25 C818.166667,47.4166667 817.25,47.6666667 816.166667,48.25 C815.916667,48.4166667 815.75,48.5833333 815.5,48.75 C814.75,49.4166667 813.833333,50.5 813.083333,51.5 C812.75,51.9166667 812.5,52.25 812.25,52.5833333 C812.083333,52.4166667 811.833333,52.25 811.583333,52.0833333 C811.25,51.8333333 810.75,51.6666667 810.25,51.6666667 L810.083333,51.6666667 L810.083333,51.6666667 C809.333333,51.75 808.583333,51.75 807.833333,52 C807.416667,52.1666667 807.083333,52.3333333 806.75,52.6666667 C806.416667,53 806.166667,53.4166667 806,53.9166667 C805.75,54.5 805.666667,54.9166667 805.666667,55.4166667 C805.666667,55.5833333 805.666667,55.75 805.75,56 C805.75,56 805.75,56 805.75,56 C805.25,55.8333333 804.916667,55.6666667 804.666667,55.4166667 C804.666667,55.4166667 804.583333,55.3333333 804.583333,55.1666667 C804.333333,54.6666667 804,53.75 803.666667,53 C803.5,52.5833333 803.333333,52.25 803.083333,51.9166667 C803,51.75 802.833333,51.5833333 802.666667,51.4166667 C802.5,51.25 802.25,51.1666667 801.916667,51.0833333 C801.833333,51.0833333 801.75,51.0833333 801.666667,51.0833333 C801.5,50.4166667 801.416667,49.6666667 801.416667,49.0833333 C801.416667,48.9166667 801.416667,48.75 801.416667,48.6666667 L801.416667,48.6666667 C801.416667,48.5 801.5,48.4166667 801.583333,48.1666667 C801.75,47.9166667 802.166667,47.5833333 802.5,47.1666667 C802.666667,46.9166667 802.916667,46.6666667 803,46.4166667 C803.166667,46.0833333 803.25,45.75 803.25,45.3333333 C803.25,44.9166667 803.166667,44.5 803,44.0833333 L803,44.0833333 C803,44 802.916667,43.9166667 802.916667,43.9166667 C805.25,42.5833333 807.75,41.6666667 810.5,41.1666667 C812.166667,41.0833333 814.416667,41 816.25,41 C816.083333,41.0833333 815.833333,41.1666667 815.666667,41.25 C815.083333,41.5 814.5,41.8333333 814.083333,42.0833333 C813.833333,42.25 813.666667,42.3333333 813.5,42.5833333 C813.416667,42.6666667 813.333333,42.75 813.25,42.9166667 C813.166667,43.0833333 813.083333,43.25 813.083333,43.5 C813.083333,43.5 813.083333,43.5833333 813.083333,43.75 C813.083333,43.8333333 813.166667,43.9166667 813.166667,43.9166667 C813.25,44 813.25,44.0833333 813.25,44.0833333 L813.333333,44.1666667 C813.5,44.25 813.666667,44.4166667 813.916667,44.6666667 C814.333333,45 814.75,45.3333333 815.166667,45.5833333 C815.333333,45.75 815.5,45.8333333 815.583333,45.9166667 L815.666667,46 C815.75,46.1666667 815.916667,46.25 816.083333,46.25 C816.25,46.25 816.416667,46.3333333 816.5,46.3333333 C817.166667,46.3333333 817.666667,46 818.083333,45.6666667 C818.666667,45.1666667 819.166667,44.5 819.583333,44.0833333 C819.833333,43.8333333 820,43.6666667 820.25,43.5833333 C820.416667,43.5 820.666667,43.4166667 820.833333,43.4166667 C821,43.4166667 821.25,43.4166667 821.5,43.5833333 C821.583333,43.75 821.583333,43.8333333 821.666667,44 C821.833333,44.3333333 822,44.6666667 822.166667,44.9166667 C822.083333,44.9166667 822.083333,44.9166667 822,45 C821.5,45.0833333 820.833333,45.1666667 820.166667,45.25 C819.833333,45.25 819.583333,45.3333333 819.25,45.4166667 C819,45.5 818.75,45.5 818.416667,45.6666667 C818.25,45.75 818.083333,46.0833333 818.166667,46.4166667 Z M801.416667,44.5833333 C801.833333,44.3333333 802.25,44.0833333 802.666667,43.8333333 C802.25,44.0833333 801.833333,44.3333333 801.416667,44.5833333 Z M818.25,41.0833333 C818.5,41.1666667 818.75,41.1666667 819,41.25 C818.666667,41.1666667 818.416667,41.1666667 818.25,41.0833333 Z M819.25,41.3333333 C819.75,41.4166667 820.166667,41.5833333 820.666667,41.75 C820.083333,41.8333333 819.583333,42.0833333 819.166667,42.3333333 C818.416667,42.8333333 818,43.5 817.5,44 C817.25,44.25 817.083333,44.4166667 816.916667,44.5 C816.75,44.5833333 816.666667,44.5833333 816.583333,44.6666667 C816.583333,44.6666667 816.583333,44.6666667 816.583333,44.6666667 C816.25,44.4166667 815.666667,44 815.166667,43.5833333 C815.083333,43.5 815,43.5 814.916667,43.4166667 C815.25,43.25 815.583333,43 816,42.8333333 C816.833333,42.4166667 817.75,42.0833333 818.5,41.75 C818.75,41.5 819,41.4166667 819.25,41.3333333 Z M815.666667,40.75 C815.916667,40.75 816.25,40.8333333 816.5,40.8333333 C816.25,40.8333333 816,40.8333333 815.666667,40.75 Z M817,40.9166667 C817.25,40.9166667 817.5,41 817.75,41 C817.5,41 817.25,40.9166667 817,40.9166667 Z M820.666667,41.6666667 C821.083333,41.75 821.416667,41.9166667 821.833333,42.0833333 C821.416667,42 821.083333,41.8333333 820.666667,41.6666667 Z M822.166667,42.25 C822.416667,42.3333333 822.75,42.5 823,42.5833333 C822.666667,42.4166667 822.416667,42.3333333 822.166667,42.25 Z M815.25,40.75 C814.833333,40.75 814.416667,40.75 814,40.75 C813.416667,40.75 812.833333,40.75 812.333333,40.8333333 C812.916667,40.8333333 813.416667,40.75 814,40.75 C814.416667,40.6666667 814.833333,40.75 815.25,40.75 Z M810.416667,41 C810.916667,40.9166667 811.5,40.8333333 812,40.8333333 C811.5,40.8333333 811,40.9166667 810.416667,41 Z M829.833333,78.8333333 C825.75,82.8333333 820.25,85.3333333 814.083333,85.3333333 C807.916667,85.3333333 802.333333,82.8333333 798.333333,78.8333333 C794.333333,74.75 791.833333,69.25 791.833333,63.0833333 C791.833333,56.9166667 794.333333,51.3333333 798.333333,47.3333333 C799.25,46.4166667 800.333333,45.5 801.416667,44.75 C801.5,45 801.583333,45.1666667 801.583333,45.3333333 C801.583333,45.5 801.5,45.6666667 801.416667,45.8333333 C801.25,46.0833333 800.916667,46.4166667 800.5,46.8333333 C800.333333,47 800.083333,47.25 799.916667,47.5833333 C799.75,47.8333333 799.666667,48.25 799.583333,48.5833333 L799.583333,48.5833333 C799.583333,48.75 799.583333,48.9166667 799.583333,49.1666667 C799.583333,51 800.166667,53.0833333 801.416667,54.6666667 C801.583333,54.8333333 801.833333,55 802.083333,55 C802.25,55 802.333333,55 802.5,54.9166667 C802.583333,55 802.583333,55.1666667 802.583333,55.25 C802.666667,55.5 802.833333,55.8333333 802.916667,56 C803,56.0833333 803,56.25 803.083333,56.3333333 C803.166667,56.4166667 803.25,56.5833333 803.333333,56.6666667 C804.083333,57.3333333 805.083333,57.6666667 806,57.8333333 C806.916667,58.0833333 807.75,58.1666667 808.333333,58.4166667 C808.583333,58.5 808.75,58.5833333 808.833333,58.75 C809,58.9166667 809.25,59.1666667 809.583333,59.5 C809.833333,59.75 810.166667,60 810.666667,60.1666667 C810.166667,61 809.916667,62 809.916667,63.0833333 C809.916667,63.8333333 810.083333,64.5833333 810.333333,65.3333333 C810.583333,65.8333333 810.916667,66.25 811.25,66.6666667 C811.75,67.1666667 812.333333,67.5 812.75,67.8333333 C813.166667,68.1666667 813.5,68.4166667 813.666667,68.8333333 C813.833333,69.1666667 813.916667,69.5833333 814,70.0833333 C814.083333,70.5833333 814.083333,71.0833333 814.083333,71.6666667 C814.083333,71.8333333 814.083333,72.0833333 814.083333,72.25 C814.083333,72.9166667 814.083333,73.6666667 814.25,74.4166667 L814.25,74.4166667 C814.416667,75.25 814.666667,76.3333333 815.166667,77.3333333 C815.583333,78.25 816.083333,79.0833333 816.833333,79.75 C816.916667,79.8333333 817,79.8333333 817,79.9166667 C817,79.9166667 817,79.9166667 817,79.9166667 C817,79.9166667 817.083333,80 817.083333,80 C817.166667,80.0833333 817.333333,80.0833333 817.416667,80.0833333 C817.416667,80.0833333 817.416667,80.0833333 817.416667,80.0833333 C817.416667,80.0833333 817.416667,80.0833333 817.416667,80.0833333 C817.75,80.0833333 818.083333,79.9166667 818.333333,79.75 C818.666667,79.4166667 818.833333,79.0833333 818.916667,78.75 C819,78.4166667 819,78 819,77.6666667 C819,77.25 818.916667,76.75 818.833333,76.3333333 C819,76.25 819.083333,76.25 819.166667,76.1666667 C819.416667,76 819.583333,75.8333333 819.75,75.6666667 C819.916667,75.3333333 820,75.0833333 820.083333,74.75 C820.083333,74.5 820.166667,74.3333333 820.166667,74.1666667 C820.333333,74.1666667 820.583333,74.0833333 820.75,74 C821,73.8333333 821.25,73.6666667 821.333333,73.5 C821.583333,73.25 821.666667,73 821.833333,72.75 C822,72.5833333 822.083333,72.3333333 822.333333,72.1666667 C822.416667,72.0833333 823,71.5833333 823.583333,71.0833333 C823.916667,70.8333333 824.166667,70.5833333 824.416667,70.3333333 C824.5,70.25 824.583333,70.1666667 824.666667,70.0833333 L824.666667,70.0833333 C824.75,70 824.833333,69.9166667 824.916667,69.8333333 C825.416667,69.0833333 825.833333,68.4166667 826.166667,67.75 C826.5,67.0833333 826.666667,66.4166667 826.666667,65.75 C826.666667,65.1666667 826.5,64.6666667 826.25,64.1666667 C826,63.6666667 825.583333,63.25 825.083333,62.8333333 C824.916667,62.6666667 824.75,62.5833333 824.583333,62.5833333 C824.333333,62.5 824,62.4166667 823.666667,62.3333333 C823.166667,62.25 822.666667,62.0833333 822.166667,62 C822.083333,62 822,62 821.916667,61.9166667 C821.916667,61.75 821.833333,61.5833333 821.833333,61.4166667 C821.75,61.25 821.583333,61.0833333 821.5,61 C821.333333,60.9166667 821.25,60.75 821,60.6666667 C820.083333,60.0833333 819,59.4166667 817.916667,58.9166667 C816.75,58.4166667 815.583333,57.9166667 814.25,57.9166667 L814.166667,57.9166667 C813.583333,57.9166667 813,58.0833333 812.416667,58.4166667 C812.083333,58.5833333 811.833333,58.8333333 811.583333,59.0833333 C811.5,58.9166667 811.416667,58.75 811.333333,58.5833333 C811.25,58.4166667 811.25,58.25 811.25,58 C811.25,57.8333333 811.166667,57.6666667 811.083333,57.4166667 C811,57.0833333 810.666667,56.75 810.333333,56.5833333 C810.333333,56.5833333 810.333333,56.5833333 810.25,56.5833333 C810.25,56.4166667 810.333333,56.25 810.333333,56.0833333 C810.333333,55.8333333 810.25,55.5833333 810.166667,55.3333333 C810.083333,55.0833333 809.916667,54.9166667 809.75,54.8333333 C809.583333,54.75 809.416667,54.75 809.25,54.75 C809.083333,54.75 808.916667,54.75 808.833333,54.8333333 C808.416667,54.9166667 808,55.1666667 807.583333,55.3333333 C807.416667,55.4166667 807.166667,55.5 807,55.5 C807,55.5 806.916667,55.5 806.916667,55.5 C806.916667,55.3333333 807,55.1666667 807.083333,54.9166667 C807.25,54.5833333 807.333333,54.3333333 807.5,54.25 C807.666667,54.0833333 807.916667,54 808.25,53.9166667 C808.583333,53.8333333 809.166667,53.8333333 809.75,53.75 L809.75,53.75 L809.833333,53.75 C809.916667,53.75 810.083333,53.75 810.25,53.8333333 C810.5,53.9166667 810.75,54.1666667 811,54.4166667 C811.083333,54.5 811.25,54.5833333 811.333333,54.75 C811.416667,54.8333333 811.416667,54.8333333 811.583333,54.9166667 C811.666667,55 811.833333,55.0833333 812.083333,55.0833333 L812.25,55.0833333 C812.416667,55.0833333 812.416667,55 812.5,55 C812.583333,54.9166667 812.583333,54.9166667 812.666667,54.9166667 L812.75,54.8333333 L812.833333,54.75 L812.833333,54.75 C813,54.5833333 813.75,53.5833333 814.583333,52.5 C815,52 815.416667,51.4166667 815.833333,51 C816,50.75 816.25,50.5833333 816.333333,50.5 C816.5,50.3333333 816.583333,50.25 816.666667,50.25 C817.583333,49.75 818.25,49.6666667 819,49.4166667 C819.75,49.25 820.666667,49 821.583333,48.3333333 C821.833333,48.1666667 822,47.9166667 821.916667,47.5833333 C821.916667,47.4166667 821.833333,47.3333333 821.75,47.1666667 C822,47.0833333 822.166667,47.0833333 822.416667,47 C822.75,46.9166667 823.083333,46.75 823.333333,46.5833333 C823.5,46.5 823.666667,46.3333333 823.75,46.1666667 C823.833333,46 823.916667,45.75 823.916667,45.5 C823.916667,45.5 823.916667,45.5 823.916667,45.5 C823.916667,45.5 823.916667,45.5 823.916667,45.5 C823.916667,45.1666667 823.75,44.9166667 823.416667,44.75 C823.416667,44.6666667 823.333333,44.6666667 823.25,44.5833333 C823.083333,44.3333333 822.916667,44.0833333 822.833333,43.8333333 C822.833333,43.75 822.75,43.75 822.75,43.6666667 C822.75,43.5833333 822.75,43.5 822.75,43.3333333 C822.75,43.3333333 822.75,43.25 822.75,43.25 C825.25,44.3333333 827.5,45.9166667 829.416667,47.8333333 C833.833333,51.25 836.333333,56.8333333 836.333333,63 C836.333333,69.1666667 833.833333,74.75 829.833333,78.8333333 Z M808.166667,56.4166667 C808.333333,56.3333333 808.416667,56.3333333 808.583333,56.25 C808.5,56.3333333 808.5,56.4166667 808.5,56.5 C808.333333,56.5 808.25,56.5 808.166667,56.4166667 Z M820.25,62.4166667 C820.333333,62.5833333 820.5,62.6666667 820.583333,62.75 C820.666667,62.8333333 820.75,62.8333333 820.833333,62.9166667 C821,63 821.083333,63 821.25,63.0833333 C821.75,63.25 822.416667,63.3333333 823.083333,63.5 C823.416667,63.5833333 823.666667,63.6666667 823.916667,63.6666667 C824,63.6666667 824.083333,63.75 824.166667,63.75 L824.25,63.75 C824.666667,64.0833333 824.833333,64.3333333 825,64.5833333 C825.166667,64.8333333 825.166667,65.0833333 825.166667,65.4166667 C825.166667,65.75 825.083333,66.25 824.833333,66.75 C824.583333,67.25 824.25,67.8333333 823.833333,68.5 C823.75,68.5833333 823.583333,68.75 823.333333,68.9166667 C822.583333,69.5 821.5,70.5 821.416667,70.5833333 C820.75,71.1666667 820.5,71.75 820.333333,72 C820.25,72.0833333 820.25,72.0833333 820.166667,72.1666667 C820.083333,72.1666667 820,72.25 819.75,72.25 L819.583333,72.25 C819.583333,72.25 819.583333,72.25 819.583333,72.25 C819.25,72.25 818.916667,72.5 818.833333,72.75 C818.75,72.9166667 818.75,73 818.75,73.0833333 C818.75,73.1666667 818.75,73.25 818.75,73.3333333 C818.75,73.5 818.75,73.5833333 818.75,73.6666667 C818.75,74 818.75,74.25 818.666667,74.3333333 L818.583333,74.4166667 C818.583333,74.4166667 818.5,74.4166667 818.416667,74.4166667 C818.333333,74.4166667 818.25,74.4166667 818.083333,74.4166667 C818,74.4166667 818,74.4166667 817.916667,74.4166667 C817.583333,74.4166667 817.333333,74.5833333 817.166667,74.8333333 C817,75.1666667 817.083333,75.5833333 817.333333,75.8333333 C817.333333,75.8333333 817.333333,75.9166667 817.416667,76 C817.5,76.25 817.666667,76.8333333 817.666667,77.3333333 C817.666667,77.5 817.666667,77.5833333 817.666667,77.6666667 C817.416667,77.3333333 817.083333,76.8333333 816.916667,76.3333333 C816.5,75.5 816.25,74.5833333 816.166667,73.8333333 L816.166667,73.8333333 C816.083333,73.3333333 816.083333,72.6666667 816.083333,72 C816.083333,71.8333333 816.083333,71.5833333 816.083333,71.4166667 C816.083333,70.8333333 816.083333,70.25 816,69.6666667 C815.916667,69.0833333 815.75,68.5 815.5,67.9166667 C815.25,67.4166667 814.916667,67.0833333 814.583333,66.75 C814.083333,66.3333333 813.583333,66 813.166667,65.6666667 C812.75,65.3333333 812.416667,65 812.25,64.5833333 C812,64.0833333 811.916667,63.5833333 811.916667,63 C811.916667,62 812.333333,61 812.833333,60.25 C813.083333,59.9166667 813.416667,59.5833333 813.75,59.4166667 C814.083333,59.25 814.333333,59.1666667 814.583333,59.1666667 L814.583333,59.1666667 C815.5,59.1666667 816.5,59.5 817.583333,60 C818.583333,60.4166667 819.5,61.0833333 820.333333,61.5833333 C820.333333,61.6666667 820.25,61.8333333 820.25,61.9166667 C820.083333,62.0833333 820.166667,62.25 820.25,62.4166667 Z" id="Shape" style="mix-blend-mode: multiply;"></path>
                            <path d="M683.04186,103.367521 C687.227907,103.367521 690.827907,104.441595 693.590698,106.424501 C696.186047,108.324786 697.776744,111.133903 697.776744,114.438746 L697.776744,114.438746 L697.776744,116.173789 C697.776744,116.421652 697.693023,116.586895 697.525581,116.752137 C697.35814,116.917379 697.190698,117 696.939535,117 L696.939535,117 L669.227907,117 C668.976744,117 668.809302,116.917379 668.64186,116.752137 C668.474419,116.586895 668.390698,116.421652 668.390698,116.173789 L668.390698,116.173789 L668.390698,114.438746 C668.390698,111.216524 669.981395,108.324786 672.576744,106.424501 C675.172093,104.441595 678.855814,103.367521 683.04186,103.367521 Z M682.95814,105.019943 L682.507106,105.024681 C678.773579,105.10342 675.671199,106.157572 673.497674,107.746439 C671.237209,109.39886 669.981395,111.712251 669.981395,114.438746 L669.981395,114.438746 L669.981395,115.347578 L695.934884,115.347578 L695.934884,114.438746 C695.934884,111.712251 694.67907,109.39886 692.418605,107.746439 C690.15814,106.011396 686.893023,105.019943 682.95814,105.019943 L682.95814,105.019943 Z M699.283721,91.3874644 C702.465116,91.3874644 705.060465,93.9487179 705.060465,97.0883191 C705.060465,99.5669516 703.469767,101.7151 701.209302,102.458689 C700.740465,102.392593 700.218047,102.379373 699.684912,102.376729 L699.57052,102.37655 C700.143142,102.379441 700.706977,102.399674 701.209302,102.541311 C703.469767,102.789174 705.395349,103.532764 706.902326,104.606838 C708.750884,105.955214 709.905027,107.988882 709.994401,110.269256 L710,110.555556 L710,111.794872 C710,112.042735 709.916279,112.207977 709.748837,112.373219 C709.609302,112.510921 709.469767,112.591247 709.281783,112.614198 L709.162791,112.621083 L699.451163,112.621083 C699.384186,112.158405 699.263628,111.695726 699.132353,111.27535 L699.032558,110.968661 L708.325581,110.968661 L708.325581,110.555556 C708.325581,108.655271 707.488372,107.08547 705.897674,105.928775 C704.382724,104.82716 702.260275,104.100245 699.67497,104.033513 L699.283721,104.02849 L698.847723,104.035279 C697.262209,104.084718 695.823256,104.400285 694.595349,104.854701 C694.093023,104.441595 693.506977,104.111111 692.92093,103.780627 C694.072093,103.174739 695.434302,102.7077 696.943072,102.506789 L697.35814,102.458689 L697.13436,102.379688 C694.993395,101.571523 693.506977,99.4843305 693.506977,97.0883191 C693.506977,93.9487179 696.102326,91.3874644 699.283721,91.3874644 Z M666.716279,91.3874644 C669.897674,91.3874644 672.493023,93.9487179 672.493023,97.0883191 C672.493023,99.5669516 670.902326,101.7151 668.64186,102.458689 L669.110192,102.51989 C670.343152,102.699413 671.451163,103.009497 672.493023,103.450142 C672.744186,103.532764 672.911628,103.615385 673.07907,103.698006 C672.493023,104.02849 671.906977,104.358974 671.404651,104.77208 C670.176744,104.317664 668.737791,104.002097 667.152277,103.952658 L666.716279,103.945869 L666.32503,103.950892 C663.739725,104.017624 661.617276,104.744539 660.102326,105.846154 C658.587375,106.947768 657.755861,108.424082 657.680105,110.203722 L657.674419,110.472934 L657.674419,110.88604 L666.967442,110.88604 C666.833488,111.282621 666.699535,111.73208 666.608447,112.192114 L666.548837,112.538462 L656.837209,112.538462 C656.586047,112.538462 656.418605,112.45584 656.251163,112.290598 C656.111628,112.152896 656.030233,112.015195 656.006977,111.82968 L656,111.712251 L656,110.472934 C656,108.076923 657.172093,105.928775 659.097674,104.524217 C660.604651,103.450142 662.530233,102.706553 664.790698,102.458689 C662.530233,101.7151 660.939535,99.5669516 660.939535,97.0883191 C660.939535,93.9487179 663.534884,91.3874644 666.716279,91.3874644 Z M683.04186,88 C687.311628,88 690.744186,91.3874644 690.827907,95.6837607 C690.827907,98.2450142 689.488372,100.475783 687.562791,101.880342 C686.390698,102.728585 684.926884,103.216967 683.375553,103.278315 L683.04186,103.2849 L682.708167,103.278315 C681.156837,103.216967 679.693023,102.728585 678.52093,101.880342 C676.511628,100.558405 675.255814,98.2450142 675.255814,95.6837607 C675.255814,91.4700855 678.772093,88 683.04186,88 Z M665.109818,102.422077 C665.000999,102.432005 664.894534,102.444051 664.790698,102.458689 L665.109818,102.422077 Z M667.11747,102.376729 C667.623814,102.379373 668.106047,102.392593 668.64186,102.458689 C668.173023,102.392593 667.650605,102.379373 667.11747,102.376729 Z M665.376278,102.402047 L665.406909,102.400239 L665.406909,102.400239 L665.376278,102.402047 L665.437627,102.398517 Z M665.683214,102.387686 L665.797774,102.384174 L665.797774,102.384174 L665.683214,102.387686 L665.913136,102.381453 Z M666.315088,102.376729 C666.18189,102.37739 666.04936,102.378711 665.918168,102.381351 L666.315088,102.376729 Z M682.95814,89.7350427 C681.283721,89.7350427 679.776744,90.3960114 678.688372,91.4700855 C677.6,92.5441595 676.930233,94.031339 676.930233,95.6837607 C676.930233,97.3361823 677.6,98.8233618 678.688372,99.8974359 C679.44186,100.641026 680.446512,101.219373 681.618605,101.467236 C682.049169,101.608873 682.418225,101.629106 682.778493,101.631997 L682.95814,101.632479 L683.218009,101.623225 C683.574326,101.59943 683.962791,101.533333 684.297674,101.467236 C685.386047,101.219373 686.390698,100.723647 687.227907,99.8974359 C688.316279,98.8233618 688.986047,97.3361823 688.986047,95.6837607 C688.986047,94.031339 688.316279,92.5441595 687.227907,91.4700855 C686.139535,90.3960114 684.632558,89.7350427 682.95814,89.7350427 Z M699.283721,93.039886 C698.111628,93.039886 697.106977,93.4529915 696.353488,94.1965812 C695.6,94.9401709 695.181395,95.9316239 695.181395,97.0883191 C695.181395,98.2450142 695.6,99.2364672 696.353488,99.980057 C697.053156,100.670533 697.969388,101.076051 699.035152,101.130459 L699.283721,101.136752 L699.53229,101.130459 C700.598054,101.076051 701.514286,100.670533 702.213953,99.980057 C702.967442,99.2364672 703.386047,98.2450142 703.386047,97.0883191 C703.386047,95.9316239 702.967442,94.9401709 702.213953,94.1965812 C701.460465,93.4529915 700.455814,93.039886 699.283721,93.039886 Z M666.716279,93.039886 C665.544186,93.039886 664.539535,93.4529915 663.786047,94.1965812 C663.032558,94.9401709 662.613953,95.9316239 662.613953,97.0883191 C662.613953,98.2450142 663.032558,99.2364672 663.786047,99.980057 C664.485714,100.670533 665.401946,101.076051 666.46771,101.130459 L666.716279,101.136752 L666.94938,101.130459 C667.958424,101.076051 668.946844,100.670533 669.646512,99.980057 C670.4,99.2364672 670.818605,98.2450142 670.818605,97.0883191 C670.818605,95.9316239 670.4,94.9401709 669.646512,94.1965812 C668.893023,93.4529915 667.888372,93.039886 666.716279,93.039886 Z" id="Combined-Shape" style="mix-blend-mode: multiply;"></path>
                            <path d="M735.547651,297.541748 L741.315623,291.780583 C741.399216,291.697087 741.399216,291.697087 741.48281,291.613592 L746.33125,286.770874 C746.749219,286.353398 747,285.768932 747,285.184466 C747,284.6 746.749219,284.015534 746.33125,283.598058 L739.392966,276.667961 C738.974997,276.250485 738.38984,276 737.804684,276 C737.804684,276 737.804684,276 737.804684,276 C737.804684,276 737.804684,276 737.804684,276 C737.219527,276 736.634371,276.250485 736.216402,276.667961 L736.216402,276.667961 L731.200775,281.67767 L731.200775,281.67767 L725.432803,287.438835 C722.92499,284.933981 720.417176,282.345631 718.578113,280.341748 C717.658581,279.339806 716.822643,278.504854 716.321081,277.920388 C715.735924,277.335922 715.485143,277.001942 715.485143,277.001942 L715.485143,277.001942 C714.899986,276.417476 714.231236,276.16699 713.64608,276.16699 C713.64608,276.16699 713.64608,276.16699 713.64608,276.16699 C713.228111,276.16699 712.810142,276.250485 712.475767,276.417476 C712.141391,276.584466 711.89061,276.751456 711.639829,277.001942 L704.952326,283.681553 C704.367169,284.266019 704.116388,284.933981 704.116388,285.601942 C704.116388,286.436893 704.450763,287.104854 704.952326,287.52233 L704.952326,287.52233 C704.952326,287.52233 705.286701,287.856311 705.871858,288.440777 C707.627327,290.11068 711.472641,293.951456 715.317955,297.708738 L708.379671,304.638835 C708.296077,304.72233 708.212484,304.805825 708.212484,304.972816 L704.032794,317.914563 C703.9492,318.248544 704.032794,318.499029 704.199982,318.749515 C704.367169,318.916505 704.617951,319 704.785138,319 C704.868732,319 704.952326,319 705.03592,319 L718.327332,315.075728 C718.494519,315.075728 718.578113,314.992233 718.661707,314.825243 L725.516397,307.978641 C727.940617,310.4 730.44843,312.98835 732.371088,314.908738 C733.374213,315.91068 734.126557,316.745631 734.711714,317.330097 C735.29687,317.914563 735.631245,318.248544 735.631245,318.248544 L735.631245,318.248544 C736.132808,318.749515 736.885152,319 737.470308,319 C737.470308,319 737.470308,319 737.470308,319 C738.222653,319 738.891403,318.749515 739.392966,318.248544 L739.392966,318.248544 L746.080468,311.485437 L746.080468,311.485437 C746.582031,310.984466 746.749219,310.4 746.832812,309.732039 C746.832812,309.231068 746.665625,308.646602 746.247656,308.229126 C746.080468,308.062136 740.563279,302.551456 735.547651,297.541748 Z M737.303121,277.836893 L737.303121,277.836893 C737.386715,277.753398 737.553902,277.669903 737.72109,277.669903 C737.888277,277.669903 737.971871,277.753398 738.139059,277.836893 L745.077343,284.76699 C745.160937,284.850485 745.244531,285.017476 745.244531,285.184466 C745.244531,285.351456 745.160937,285.434951 745.077343,285.601942 L740.730466,289.943689 L732.956244,282.178641 L737.303121,277.836893 Z M716.321081,309.231068 L713.478892,309.231068 L713.478892,306.392233 L734.126557,285.768932 L737.135933,288.774757 L716.321081,309.231068 Z M712.726548,292.699029 L714.732799,290.695146 L713.562486,289.526214 L711.556235,291.530097 C710.469516,290.528155 709.549984,289.526214 708.714046,288.774757 L713.395298,284.099029 L712.224985,282.930097 L707.543733,287.605825 C706.707795,286.770874 706.206233,286.269903 706.122639,286.186408 L706.122639,286.186408 C705.955451,286.019417 705.788264,285.685437 705.788264,285.434951 C705.788264,285.184466 705.871858,285.017476 706.122639,284.76699 L712.810142,278.087379 C712.893736,278.003883 713.060923,277.920388 713.144517,277.836893 C713.311704,277.753398 713.395298,277.753398 713.562486,277.753398 C713.729673,277.753398 713.980455,277.836893 714.31483,278.087379 L714.31483,278.087379 C714.732799,278.504854 719.414051,283.681553 724.346084,288.607767 L716.488268,296.456311 C715.150768,295.120388 713.896861,293.867961 712.726548,292.699029 Z M731.785931,283.431068 L732.956244,284.6 L712.475767,305.056311 L710.55311,304.638835 L731.785931,283.431068 Z M705.955451,316.745631 L709.46639,306.058252 L711.89061,306.559223 L711.89061,309.982524 C711.89061,310.23301 711.974204,310.4 712.141391,310.56699 C712.308579,310.733981 712.475767,310.817476 712.726548,310.817476 L716.070299,310.817476 L716.822643,313.48932 L705.955451,316.745631 Z M718.243738,312.570874 L717.574987,310.316505 L738.306246,289.943689 L739.560153,291.196117 L718.243738,312.570874 Z M744.826562,310.149515 L744.826562,310.149515 L738.139059,316.912621 C738.055465,316.996117 737.72109,317.163107 737.386715,317.163107 C737.386715,317.163107 737.386715,317.163107 737.386715,317.163107 C737.135933,317.163107 736.885152,317.079612 736.717964,316.912621 C736.634371,316.829126 736.132808,316.328155 735.29687,315.409709 L740.061716,310.650485 L738.891403,309.481553 L734.126557,314.240777 C733.290619,313.405825 732.371088,312.403883 731.367962,311.401942 L733.374213,309.398058 L732.2039,308.229126 L730.197649,310.23301 C729.027336,309.064078 727.857023,307.81165 726.68671,306.642718 L734.460932,298.794175 C736.885152,301.215534 739.476559,303.803883 741.48281,305.807767 C743.489061,307.81165 744.910155,309.231068 744.910155,309.231068 C744.993749,309.314563 744.993749,309.398058 744.993749,309.565049 C745.077343,309.732039 744.910155,309.982524 744.826562,310.149515 Z" id="Shape" style="mix-blend-mode: multiply;"></path>
                            <path d="M566.5,223 L566.606467,223.009943 C566.818433,223.049232 567.021689,223.202023 567.163968,223.415929 C569.321862,226.077876 572.558704,227.824779 576.293522,227.824779 L576.293522,227.824779 L576.680392,227.818417 C579.763284,227.716837 582.564696,226.403965 585.672065,224.247788 C585.838057,224.164602 586.004049,224.081416 586.17004,224.081416 C586.336032,224.081416 586.502024,224.081416 586.58502,224.164602 C586.834008,224.330973 587,224.580531 587,224.913274 L587,224.913274 L587,254.277876 C586.917004,254.444248 586.17004,257.106195 583.265182,260.433628 C580.360324,263.761062 575.297571,267.587611 566.748988,270 L566.748988,270 L566.251012,270 C557.702429,267.587611 552.639676,263.761062 549.734818,260.433628 C546.82996,257.106195 546,254.361062 546,254.277876 L546,254.277876 L546,224.830088 C546,224.497345 546.165992,224.247788 546.41498,224.081416 C546.580972,223.99823 546.663968,223.99823 546.82996,223.99823 C546.995951,223.99823 547.161943,224.081416 547.327935,224.164602 C550.481781,226.410619 553.469636,227.741593 556.706478,227.741593 C560.3583,227.741593 563.678138,225.99469 565.836032,223.332743 C566.002024,223.083186 566.251012,223 566.5,223 L566.5,223 Z M566.5,225.079646 C564.093117,227.741593 560.607287,229.40531 556.706478,229.40531 C553.469636,229.40531 550.564777,228.240708 547.659919,226.410619 L547.659919,226.410619 L547.659919,254.028319 C547.659919,254.028319 547.659919,254.19469 547.742915,254.277876 C547.825911,254.527434 547.991903,254.943363 548.240891,255.442478 C548.738866,256.440708 549.651822,257.854867 550.979757,259.352212 C553.635628,262.346903 558.366397,266.00708 566.5,268.336283 C574.467611,266.00708 579.115385,262.430088 581.854251,259.435398 C584.34413,256.690265 585.174089,254.444248 585.340081,253.945133 L585.340081,253.945133 L585.340081,226.410619 C582.435223,228.240708 579.530364,229.40531 576.293522,229.40531 L576.293522,229.40531 L575.912872,229.399789 C572.244426,229.293286 568.906883,227.652861 566.5,225.079646 Z M570.483806,234.895575 C570.649798,234.895575 570.898785,234.978761 571.064777,235.145133 C571.230769,235.311504 571.313765,235.477876 571.313765,235.727434 L571.313765,235.727434 L571.313765,240.80177 L576.376518,240.80177 L576.49448,240.808702 C576.680837,240.831809 576.819163,240.912684 576.95749,241.051327 C577.123482,241.217699 577.206478,241.384071 577.206478,241.633628 L577.206478,241.633628 L577.206478,249.536283 C577.206478,249.785841 577.123482,249.952212 576.95749,250.118584 C576.791498,250.284956 576.625506,250.368142 576.376518,250.368142 L576.376518,250.368142 L571.313765,250.368142 L571.313765,255.442478 C571.313765,255.692035 571.230769,255.858407 571.064777,256.024779 C570.898785,256.19115 570.732794,256.274336 570.483806,256.274336 L570.483806,256.274336 L562.59919,256.274336 C562.350202,256.274336 562.184211,256.19115 562.018219,256.024779 C561.852227,255.858407 561.769231,255.692035 561.769231,255.442478 L561.769231,255.442478 L561.769231,250.368142 L556.706478,250.368142 C556.45749,250.368142 556.291498,250.284956 556.125506,250.118584 C555.959514,249.952212 555.876518,249.785841 555.876518,249.536283 L555.876518,249.536283 L555.876518,241.633628 C555.876518,241.384071 555.959514,241.217699 556.125506,241.051327 C556.291498,240.884956 556.45749,240.80177 556.706478,240.80177 L556.706478,240.80177 L561.769231,240.80177 L561.769231,235.727434 C561.769231,235.477876 561.852227,235.311504 562.018219,235.145133 C562.184211,234.978761 562.350202,234.895575 562.59919,234.895575 L562.59919,234.895575 Z M569.653846,236.559292 L563.42915,236.559292 L563.42915,241.633628 C563.42915,241.883186 563.346154,242.049558 563.180162,242.215929 C563.01417,242.382301 562.848178,242.465487 562.59919,242.465487 L562.59919,242.465487 L557.536437,242.465487 L557.536437,248.704425 L562.59919,248.704425 C562.848178,248.704425 563.01417,248.787611 563.180162,248.953982 C563.346154,249.120354 563.42915,249.286726 563.42915,249.536283 L563.42915,249.536283 L563.42915,254.610619 L569.653846,254.610619 L569.653846,249.536283 C569.653846,249.286726 569.736842,249.120354 569.902834,248.953982 C570.068826,248.787611 570.234818,248.704425 570.483806,248.704425 L570.483806,248.704425 L575.546559,248.704425 L575.546559,242.465487 L570.483806,242.465487 C570.234818,242.465487 570.068826,242.382301 569.902834,242.215929 C569.736842,242.049558 569.653846,241.883186 569.653846,241.633628 L569.653846,241.633628 L569.653846,236.559292 Z" id="Combined-Shape" style="mix-blend-mode: multiply;"></path>
                        </g>
                    </g>
                </g>
                <g id="Group-14" transform="translate(137.000000, 85.000000)" fill-rule="nonzero">
                    <path d="M25.872,19.736 L25.104,25.784 L16.896,25.784 L16.896,53 L9.024,53 L9.024,25.784 L0.432,25.784 L0.432,19.736 L25.872,19.736 Z M43.824,26.696 C46.032011,26.696 47.7599938,27.3679933 49.008,28.712 C50.2560062,30.0560067 50.88,31.9439878 50.88,34.376 L50.88,53 L43.296,53 L43.296,35.672 C43.296,34.3919936 43.0880021,33.5040025 42.672,33.008 C42.2559979,32.5119975 41.6640038,32.264 40.896,32.264 C39.3599923,32.264 37.888007,33.3519891 36.48,35.528 L36.48,53 L28.896,53 L28.896,17.384 L36.48,16.616 L36.48,30.248 C37.5360053,29.0639941 38.6559941,28.176003 39.84,27.584 C41.0240059,26.991997 42.3519926,26.696 43.824,26.696 Z M78.816,39.752 C78.816,40.8080053 78.7680005,41.7199962 78.672,42.488 L62.88,42.488 C63.1360013,44.6320107 63.7439952,46.1359957 64.704,47 C65.6640048,47.8640043 66.9919915,48.296 68.688,48.296 C69.7120051,48.296 70.7039952,48.1120018 71.664,47.744 C72.6240048,47.3759982 73.6639944,46.8080038 74.784,46.04 L77.904,50.264 C74.9279851,52.6320118 71.6160182,53.816 67.968,53.816 C63.8399794,53.816 60.672011,52.6000122 58.464,50.168 C56.255989,47.7359878 55.152,44.4720205 55.152,40.376 C55.152,37.783987 55.6159954,35.4560103 56.544,33.392 C57.4720046,31.3279897 58.831991,29.696 60.624,28.496 C62.416009,27.295994 64.5599875,26.696 67.056,26.696 C70.7360184,26.696 73.6159896,27.8479885 75.696,30.152 C77.7760104,32.4560115 78.816,35.6559795 78.816,39.752 Z M71.376,37.592 C71.3119997,33.6879805 69.9360134,31.736 67.248,31.736 C65.9359934,31.736 64.9200036,32.2159952 64.2,33.176 C63.4799964,34.1360048 63.0400008,35.719989 62.88,37.928 L71.376,37.928 L71.376,37.592 Z M389.712,18.92 C392.208012,18.92 394.375991,19.2719965 396.216,19.976 C398.056009,20.6800035 399.727992,21.7519928 401.232,23.192 L397.584,27.464 C395.311989,25.6079907 392.880013,24.68 390.288,24.68 C388.911993,24.68 387.824004,24.9599972 387.024,25.52 C386.223996,26.0800028 385.824,26.8879947 385.824,27.944 C385.824,28.6800037 385.999998,29.2799977 386.352,29.744 C386.704002,30.2080023 387.327996,30.6479979 388.224,31.064 C389.120004,31.4800021 390.463991,31.9759971 392.256,32.552 C395.648017,33.6400054 398.143992,34.9759921 399.744,36.56 C401.344008,38.1440079 402.144,40.3919854 402.144,43.304 C402.144,45.3840104 401.616005,47.2159921 400.56,48.8 C399.503995,50.3840079 397.98401,51.6159956 396,52.496 C394.01599,53.3760044 391.664014,53.816 388.944,53.816 C386.223986,53.816 383.81601,53.3840043 381.72,52.52 C379.62399,51.6559957 377.824008,50.5040072 376.32,49.064 L380.304,44.696 C381.584006,45.7840054 382.903993,46.5999973 384.264,47.144 C385.624007,47.6880027 387.103992,47.96 388.704,47.96 C390.336008,47.96 391.623995,47.6000036 392.568,46.88 C393.512005,46.1599964 393.984,45.1600064 393.984,43.88 C393.984,43.0479958 393.808002,42.3520028 393.456,41.792 C393.103998,41.2319972 392.496004,40.7280022 391.632,40.28 C390.767996,39.8319978 389.520008,39.3520026 387.888,38.84 C384.207982,37.7199944 381.592008,36.3440082 380.04,34.712 C378.487992,33.0799918 377.712,31.0160125 377.712,28.52 C377.712,26.5999904 378.223995,24.9120073 379.248,23.456 C380.272005,21.9999927 381.695991,20.8800039 383.52,20.096 C385.344009,19.3119961 387.407988,18.92 389.712,18.92 Z M428.544,39.752 C428.544,40.8080053 428.496,41.7199962 428.4,42.488 L412.608,42.488 C412.864001,44.6320107 413.471995,46.1359957 414.432,47 C415.392005,47.8640043 416.719992,48.296 418.416,48.296 C419.440005,48.296 420.431995,48.1120018 421.392,47.744 C422.352005,47.3759982 423.391994,46.8080038 424.512,46.04 L427.632,50.264 C424.655985,52.6320118 421.344018,53.816 417.696,53.816 C413.567979,53.816 410.400011,52.6000122 408.192,50.168 C405.983989,47.7359878 404.88,44.4720205 404.88,40.376 C404.88,37.783987 405.343995,35.4560103 406.272,33.392 C407.200005,31.3279897 408.559991,29.696 410.352,28.496 C412.144009,27.295994 414.287988,26.696 416.784,26.696 C420.464018,26.696 423.34399,27.8479885 425.424,30.152 C427.50401,32.4560115 428.544,35.6559795 428.544,39.752 Z M421.104,37.592 C421.04,33.6879805 419.664013,31.736 416.976,31.736 C415.663993,31.736 414.648004,32.2159952 413.928,33.176 C413.207996,34.1360048 412.768001,35.719989 412.608,37.928 L421.104,37.928 L421.104,37.592 Z M446.64,26.792 C447.568005,26.792 448.415996,26.9039989 449.184,27.128 L447.984,34.472 C447.023995,34.2479989 446.256003,34.136 445.68,34.136 C444.175992,34.136 443.032004,34.6559948 442.248,35.696 C441.463996,36.7360052 440.848002,38.2959896 440.4,40.376 L440.4,53 L432.816,53 L432.816,27.512 L439.44,27.512 L440.064,32.456 C440.640003,30.6959912 441.511994,29.312005 442.68,28.304 C443.848006,27.295995 445.167993,26.792 446.64,26.792 Z M474,27.512 L465.984,53 L457.008,53 L448.8,27.512 L457.056,27.512 L461.568,47.24 L466.272,27.512 L474,27.512 Z M498.912,39.752 C498.912,40.8080053 498.864,41.7199962 498.768,42.488 L482.976,42.488 C483.232001,44.6320107 483.839995,46.1359957 484.8,47 C485.760005,47.8640043 487.087992,48.296 488.784,48.296 C489.808005,48.296 490.799995,48.1120018 491.76,47.744 C492.720005,47.3759982 493.759994,46.8080038 494.88,46.04 L498,50.264 C495.023985,52.6320118 491.712018,53.816 488.064,53.816 C483.935979,53.816 480.768011,52.6000122 478.56,50.168 C476.351989,47.7359878 475.248,44.4720205 475.248,40.376 C475.248,37.783987 475.711995,35.4560103 476.64,33.392 C477.568005,31.3279897 478.927991,29.696 480.72,28.496 C482.512009,27.295994 484.655988,26.696 487.152,26.696 C490.832018,26.696 493.71199,27.8479885 495.792,30.152 C497.87201,32.4560115 498.912,35.6559795 498.912,39.752 Z M491.472,37.592 C491.408,33.6879805 490.032013,31.736 487.344,31.736 C486.031993,31.736 485.016004,32.2159952 484.296,33.176 C483.575996,34.1360048 483.136001,35.719989 482.976,37.928 L491.472,37.928 L491.472,37.592 Z M517.008,26.792 C517.936005,26.792 518.783996,26.9039989 519.552,27.128 L518.352,34.472 C517.391995,34.2479989 516.624003,34.136 516.048,34.136 C514.543992,34.136 513.400004,34.6559948 512.616,35.696 C511.831996,36.7360052 511.216002,38.2959896 510.768,40.376 L510.768,53 L503.184,53 L503.184,27.512 L509.808,27.512 L510.432,32.456 C511.008003,30.6959912 511.879994,29.312005 513.048,28.304 C514.216006,27.295995 515.535993,26.792 517.008,26.792 Z" id="TheServer" fill="#003147"></path>
                    <g id="Logo/Wordmark-dark" transform="translate(100.350000, 0.218121)">
                        <path d="M91.6141732,39.9411765 C90.8976378,40.6617647 89.976378,41.3823529 88.9527559,42.2058824 C87.9291339,43.0294118 86.8031496,43.75 85.6771654,44.3676471 C84.5511811,44.9852941 83.3228346,45.6029412 82.0944882,46.0147059 C80.8661417,46.4264706 79.6377953,46.7352941 78.6141732,46.7352941 C78.3070866,46.7352941 77.8976378,46.7352941 77.5905512,46.6323529 C77.2834646,46.5294118 76.976378,46.4264706 76.6692913,46.2205882 C76.3622047,46.0147059 76.1574803,45.8088235 75.8503937,45.3970588 C75.5433071,44.9852941 75.3385827,44.6764706 75.0314961,44.1617647 C76.6692913,43.75 78.1023622,43.1323529 79.5354331,42.3088235 C80.8661417,41.4852941 82.0944882,40.5588235 83.1181102,39.5294118 C84.1417323,38.5 84.8582677,37.3676471 85.4724409,36.2352941 C86.0866142,35.1029412 86.2913386,33.9705882 86.2913386,32.7352941 C86.2913386,31.7058824 86.0866142,30.6764706 85.7795276,29.8529412 C85.3700787,29.0294118 84.8582677,28.3088235 84.2440945,27.6911765 C83.6299213,27.0735294 82.8110236,26.6617647 81.8897638,26.25 C80.9685039,25.8382353 80.0472441,25.7352941 79.023622,25.7352941 C77.6929134,25.7352941 76.5669291,25.9411765 75.5433071,26.4558824 C74.519685,26.8676471 73.5984252,27.4852941 72.6771654,28.3088235 C71.8582677,29.1323529 71.1417323,29.9558824 70.4251969,30.9852941 C69.8110236,32.0147059 69.2992126,33.0441176 68.8897638,34.1764706 C68.480315,35.3088235 68.1732283,36.4411765 67.9685039,37.5735294 C67.7637795,38.7058824 67.6614173,39.8382353 67.6614173,40.8676471 C67.6614173,41.0735294 67.6614173,41.3823529 67.6614173,41.5882353 C67.4566929,41.6911765 67.2519685,41.8970588 67.0472441,42 C66.023622,42.8235294 64.8976378,43.5441176 63.7716535,44.1617647 C62.6456693,44.7794118 61.4173228,45.3970588 60.1889764,45.8088235 C58.9606299,46.2205882 57.7322835,46.5294118 56.7086614,46.5294118 C56.4015748,46.5294118 55.992126,46.5294118 55.6850394,46.4264706 C55.3779528,46.3235294 55.0708661,46.2205882 54.7637795,46.0147059 C54.4566929,45.8088235 54.2519685,45.6029412 53.9448819,45.1911765 C53.6377953,44.7794118 53.4330709,44.4705882 53.1259843,43.9558824 C54.7637795,43.5441176 56.1968504,42.9264706 57.6299213,42.1029412 C58.9606299,41.2794118 60.1889764,40.3529412 61.2125984,39.3235294 C62.2362205,38.2941176 62.9527559,37.1617647 63.5669291,36.0294118 C64.1811024,34.8970588 64.3858268,33.7647059 64.3858268,32.5294118 C64.3858268,31.5 64.1811024,30.4705882 63.8740157,29.6470588 C63.4645669,28.8235294 62.9527559,28.1029412 62.3385827,27.4852941 C61.7244094,26.8676471 60.9055118,26.4558824 59.984252,26.0441176 C59.0629921,25.6323529 58.1417323,25.5294118 57.1181102,25.5294118 C55.7874016,25.5294118 54.6614173,25.7352941 53.6377953,26.25 C52.6141732,26.6617647 51.6929134,27.2794118 50.7716535,28.1029412 C49.9527559,28.9264706 49.2362205,29.75 48.519685,30.7794118 C47.9055118,31.8088235 47.3937008,32.8382353 46.984252,33.9705882 C46.5748031,35 46.2677165,36.1323529 46.0629921,37.1617647 C45.8582677,37.2647059 45.6535433,37.3676471 45.4488189,37.4705882 C44.5275591,37.8823529 43.7086614,37.9852941 42.8897638,37.9852941 C42.5826772,37.9852941 42.2755906,37.8823529 42.0708661,37.7794118 C41.7637795,37.6764706 41.5590551,37.4705882 41.3543307,37.1617647 C41.1496063,36.8529412 40.9448819,36.5441176 40.8425197,36.1323529 C40.7401575,35.7205882 40.6377953,35.1029412 40.6377953,34.4852941 C40.6377953,34.0735294 40.6377953,33.5588235 40.7401575,33.0441176 C40.8425197,32.4264706 40.9448819,31.8088235 41.0472441,31.1911765 C41.1496063,30.5735294 41.2519685,29.9558824 41.3543307,29.4411765 C41.4566929,28.8235294 41.4566929,28.4117647 41.4566929,28.1029412 C41.4566929,27.6911765 41.3543307,27.2794118 41.2519685,26.9705882 C41.1496063,26.6617647 40.9448819,26.3529412 40.6377953,26.1470588 C40.4330709,25.9411765 40.1259843,25.7352941 39.7165354,25.6323529 C39.4094488,25.5294118 39,25.4264706 38.6929134,25.4264706 C37.6692913,25.4264706 36.7480315,25.7352941 36.0314961,26.25 C35.2125984,26.7647059 34.5984252,27.4852941 33.984252,28.3088235 C33.3700787,29.1323529 32.8582677,29.9558824 32.3464567,30.8823529 C31.8346457,31.8088235 31.4251969,32.6323529 31.1181102,33.3529412 L30.8110236,33.3529412 C30.8110236,32.4264706 30.7086614,31.3970588 30.7086614,30.4705882 C30.7086614,29.5441176 30.7086614,28.6176471 30.7086614,28 C30.7086614,27.3823529 30.7086614,26.9705882 30.7086614,26.6617647 C30.7086614,26.3529412 30.6062992,26.0441176 30.503937,25.9411765 C30.4015748,25.7352941 30.1968504,25.6323529 29.8897638,25.6323529 C29.5826772,25.6323529 29.2755906,25.5294118 28.7637795,25.5294118 C28.3543307,25.5294118 27.9448819,25.5294118 27.7401575,25.6323529 C27.4330709,25.6323529 27.2283465,25.7352941 27.023622,25.9411765 C26.8188976,26.0441176 26.6141732,26.25 26.511811,26.5588235 C26.4094488,26.7647059 26.2047244,27.1764706 26.1023622,27.5882353 C25.8976378,28.2058824 25.5905512,29.0294118 25.3858268,29.9558824 C25.1811024,30.8823529 24.8740157,31.9117647 24.6692913,33.0441176 C24.6692913,33.0441176 24.6692913,33.0441176 24.6692913,33.0441176 C24.2598425,33.3529412 23.7480315,33.6617647 23.2362205,33.9705882 C22.3149606,34.4852941 21.0866142,35 19.6535433,35.4117647 C18.2204724,35.8235294 16.5826772,36.0294118 14.7401575,36.0294118 C14.5354331,36.0294118 14.4330709,36.0294118 14.2283465,35.9264706 C14.1259843,35.9264706 14.023622,35.8235294 13.8188976,35.8235294 C13.7165354,35.7205882 13.6141732,35.7205882 13.4094488,35.7205882 C13.3070866,35.7205882 13.1023622,35.6176471 12.7952756,35.6176471 C12.5905512,35.6176471 12.3858268,35.6176471 12.1811024,35.7205882 C11.976378,35.8235294 11.6692913,35.9264706 11.3622047,36.1323529 L11.4645669,35.7205882 C12.5905512,34.2794118 13.7165354,32.6323529 14.8425197,30.9852941 C15.9685039,29.3382353 16.992126,27.5882353 18.015748,25.8382353 C19.0393701,24.0882353 19.9606299,22.3382353 20.7795276,20.5882353 C21.5984252,18.8382353 22.3149606,17.1911765 22.9291339,15.5441176 C23.5433071,13.8970588 24.0551181,12.3529412 24.3622047,11.0147059 C24.6692913,9.57352941 24.8740157,8.33823529 24.8740157,7.20588235 C24.8740157,5.97058824 24.6692913,4.94117647 24.2598425,4.11764706 C23.8503937,3.29411765 23.4409449,2.57352941 22.8267717,2.16176471 C22.2125984,1.75 21.5984252,1.33823529 20.8818898,1.02941176 C20.1653543,0.823529412 19.5511811,0.720588235 18.9370079,0.720588235 C17.2992126,0.720588235 15.8661417,1.23529412 14.5354331,2.16176471 C13.2047244,3.08823529 11.976378,4.42647059 10.9527559,6.07352941 C9.82677165,7.72058824 8.90551181,9.67647059 7.98425197,11.9411765 C7.06299213,14.2058824 6.34645669,16.5735294 5.62992126,19.0441176 C4.91338583,21.5147059 4.4015748,24.1911765 3.88976378,26.7647059 C3.37795276,29.4411765 2.96850394,32.0147059 2.66141732,34.5882353 C2.35433071,37.1617647 2.04724409,39.5294118 1.74015748,41.7941176 C1.43307087,44.0588235 1.33070866,46.0147059 1.22834646,47.7647059 C1.12598425,49.5147059 1.02362205,50.8529412 0.921259843,51.9852941 C0.921259843,53.0147059 0.818897638,53.6323529 0.818897638,53.7352941 C0.818897638,54.8676471 0.818897638,56.1029412 0.921259843,57.2352941 C1.02362205,58.4705882 1.12598425,59.7058824 1.33070866,60.8382353 C1.53543307,61.9705882 1.84251969,63.1029412 2.1496063,64.1323529 C2.55905512,65.1617647 2.96850394,66.0882353 3.48031496,66.9117647 C3.99212598,67.7352941 4.70866142,68.3529412 5.42519685,68.7647059 C6.14173228,69.2794118 7.06299213,69.4852941 8.08661417,69.4852941 C9.11023622,69.4852941 10.0314961,69.2794118 10.8503937,68.8676471 C11.6692913,68.4558824 12.3858268,67.8382353 13,67.2205882 C13.6141732,66.6029412 14.1259843,65.6764706 14.6377953,64.8529412 C15.1496063,63.9264706 15.4566929,63 15.8661417,62.0735294 C16.1732283,61.1470588 16.480315,60.1176471 16.6850394,59.1911765 C16.8897638,58.2647059 17.0944882,57.3382353 17.1968504,56.6176471 C17.2992126,55.7941176 17.4015748,55.1764706 17.4015748,54.6617647 C17.4015748,54.1470588 17.503937,53.7352941 17.503937,53.6323529 C17.503937,52.1911765 17.2992126,50.75 16.8897638,49.4117647 C16.480315,47.9705882 16.0708661,46.7352941 15.6614173,45.6029412 C15.1496063,44.2647059 14.5354331,43.0294118 13.8188976,41.7941176 C15.1496063,41.6911765 16.3779528,41.5882353 17.7086614,41.3823529 C18.8346457,41.1764706 20.0629921,40.8676471 21.3937008,40.5588235 C22.007874,40.3529412 22.6220472,40.1470588 23.2362205,39.9411765 C23.2362205,40.25 23.1338583,40.4558824 23.1338583,40.7647059 C22.9291339,42 22.8267717,43.1323529 22.7244094,44.2647059 C22.6220472,45.3970588 22.6220472,46.3235294 22.6220472,47.1470588 C22.6220472,47.8676471 22.6220472,48.5882353 22.7244094,49.3088235 C22.8267717,50.0294118 22.9291339,50.6470588 23.2362205,51.1617647 C23.4409449,51.6764706 23.8503937,52.1911765 24.2598425,52.5 C24.6692913,52.8088235 25.3858268,53.0147059 26.1023622,53.0147059 C26.4094488,53.0147059 26.7165354,52.9117647 27.023622,52.8088235 C27.3307087,52.7058824 27.5354331,52.5 27.8425197,52.1911765 C28.1496063,51.8823529 28.3543307,51.4705882 28.5590551,51.0588235 C28.7637795,50.5441176 29.0708661,50.0294118 29.2755906,49.2058824 L34.2913386,35.2058824 L34.7007874,35.2058824 C34.8031496,36.3382353 35.007874,37.5735294 35.3149606,38.7058824 C35.519685,39.8382353 35.9291339,40.8676471 36.4409449,41.7941176 C36.9527559,42.7205882 37.6692913,43.4411765 38.488189,44.0588235 C39.3070866,44.6764706 40.4330709,44.8823529 41.8661417,44.8823529 C42.6850394,44.8823529 43.4015748,44.7794118 44.1181102,44.5735294 C44.7322835,44.3676471 45.2440945,44.1617647 45.8582677,43.9558824 C45.9606299,44.5735294 46.0629921,45.1911765 46.2677165,45.8088235 C46.6771654,47.25 47.3937008,48.4852941 48.2125984,49.5147059 C49.1338583,50.5441176 50.1574803,51.4705882 51.488189,52.0882353 C52.8188976,52.7058824 54.3543307,53.0147059 56.0944882,53.0147059 C57.2204724,53.0147059 58.3464567,52.9117647 59.3700787,52.6029412 C60.496063,52.3970588 61.519685,51.9852941 62.5433071,51.5735294 C63.5669291,51.1617647 64.488189,50.6470588 65.4094488,50.1323529 C66.3307087,49.6176471 67.1496063,49 67.9685039,48.4852941 C68.2755906,48.2794118 68.6850394,47.9705882 68.992126,47.7647059 C69.2992126,48.3823529 69.7086614,49 70.1181102,49.5147059 C71.0393701,50.5441176 72.0629921,51.4705882 73.3937008,52.0882353 C74.7244094,52.7058824 76.2598425,53.0147059 78,53.0147059 C79.1259843,53.0147059 80.2519685,52.9117647 81.2755906,52.6029412 C82.4015748,52.3970588 83.4251969,51.9852941 84.4488189,51.5735294 C85.4724409,51.1617647 86.3937008,50.6470588 87.3149606,50.1323529 C88.2362205,49.6176471 89.0551181,49 89.8740157,48.4852941 C91.7165354,47.1470588 93.4566929,45.7058824 95.0944882,43.9558824 L91.6141732,39.9411765 Z M10.5433071,26.5588235 C10.6456693,25.3235294 10.8503937,23.9852941 11.2598425,22.3382353 C11.5669291,20.7941176 12.0787402,18.9411765 12.6929134,16.8823529 C13.3070866,14.8235294 14.1259843,12.4558824 15.2519685,9.77941176 C15.5590551,8.85294118 15.9685039,8.13235294 16.480315,7.72058824 C16.8897638,7.30882353 17.6062992,7 18.4251969,7 C18.9370079,7 19.2440945,7.20588235 19.5511811,7.72058824 C19.8582677,8.13235294 19.9606299,8.85294118 19.9606299,9.88235294 C19.9606299,10.6029412 19.6535433,11.6323529 19.0393701,12.9705882 C18.4251969,14.3088235 17.7086614,15.9558824 16.7874016,17.7058824 C15.8661417,19.4558824 14.8425197,21.4117647 13.7165354,23.4705882 C12.5905512,25.5294118 11.4645669,27.6911765 10.3385827,29.8529412 C10.3385827,28.8235294 10.4409449,27.6911765 10.5433071,26.5588235 Z M11.6692913,57.3382353 C11.5669291,58.3676471 11.4645669,59.3970588 11.2598425,60.2205882 C11.0551181,61.1470588 10.7480315,61.8676471 10.4409449,62.3823529 C10.0314961,63 9.51968504,63.2058824 8.90551181,63.2058824 C8.7007874,63.2058824 8.49606299,63.1029412 8.29133858,62.7941176 C8.08661417,62.5882353 7.88188976,61.9705882 7.77952756,61.1470588 C7.57480315,60.3235294 7.47244094,59.0882353 7.37007874,57.4411765 C7.26771654,55.7941176 7.26771654,53.6323529 7.26771654,50.8529412 C7.26771654,50.4411765 7.26771654,49.9264706 7.37007874,49.2058824 C7.37007874,48.4852941 7.47244094,47.7647059 7.47244094,47.0441176 C7.47244094,46.3235294 7.57480315,45.3970588 7.67716535,44.5735294 C7.77952756,43.75 7.77952756,43.0294118 7.88188976,42.3088235 C7.98425197,41.6911765 8.08661417,41.0735294 8.18897638,40.6617647 C8.29133858,40.25 8.39370079,40.0441176 8.39370079,40.0441176 C8.5984252,40.0441176 8.90551181,40.25 9.11023622,40.7647059 C9.31496063,41.2794118 9.62204724,41.8970588 9.82677165,42.7205882 C10.0314961,43.5441176 10.3385827,44.4705882 10.5433071,45.5 C10.7480315,46.5294118 10.9527559,47.5588235 11.1574803,48.5882353 C11.3622047,49.6176471 11.4645669,50.6470588 11.5669291,51.5735294 C11.6692913,52.5 11.7716535,53.3235294 11.7716535,53.9411765 C11.7716535,55.2794118 11.7716535,56.3088235 11.6692913,57.3382353 Z M52.511811,38.0882353 C52.511811,37.4705882 52.6141732,36.9558824 52.7165354,36.3382353 C52.8188976,35.7205882 53.023622,35.1029412 53.2283465,34.4852941 C53.4330709,33.8676471 53.7401575,33.3529412 54.1496063,32.8382353 C54.5590551,32.3235294 54.9685039,32.0147059 55.5826772,31.7058824 C56.1968504,31.3970588 56.8110236,31.2941176 57.6299213,31.2941176 C58.0393701,31.2941176 58.4488189,31.6029412 58.7559055,32.1176471 C59.0629921,32.6323529 59.1653543,33.3529412 59.1653543,34.1764706 C59.1653543,34.7941176 58.9606299,35.4117647 58.4488189,36.0294118 C57.9370079,36.6470588 57.4251969,37.2647059 56.7086614,37.7794118 C55.992126,38.2941176 55.2755906,38.8088235 54.5590551,39.1176471 C53.7401575,39.4264706 53.023622,39.6323529 52.4094488,39.6323529 C52.511811,39.1176471 52.511811,38.6029412 52.511811,38.0882353 Z M74.4173228,38.0882353 C74.4173228,37.4705882 74.519685,36.9558824 74.6220472,36.3382353 C74.7244094,35.7205882 74.9291339,35.1029412 75.1338583,34.4852941 C75.3385827,33.8676471 75.6456693,33.3529412 76.0551181,32.8382353 C76.4645669,32.3235294 76.8740157,32.0147059 77.488189,31.7058824 C78.1023622,31.3970588 78.7165354,31.2941176 79.5354331,31.2941176 C79.9448819,31.2941176 80.3543307,31.6029412 80.6614173,32.1176471 C80.9685039,32.6323529 81.0708661,33.3529412 81.0708661,34.1764706 C81.0708661,34.7941176 80.8661417,35.4117647 80.3543307,36.0294118 C79.8425197,36.6470588 79.3307087,37.2647059 78.6141732,37.7794118 C77.8976378,38.2941176 77.1811024,38.8088235 76.4645669,39.1176471 C75.6456693,39.4264706 74.9291339,39.6323529 74.3149606,39.6323529 C74.4173228,39.1176471 74.4173228,38.6029412 74.4173228,38.0882353 Z" id="Shape" fill="#00A6E2"></path>
                        <path d="M110.96063,52.7058824 C110.03937,50.9558824 109.015748,49.1029412 108.094488,47.3529412 C107.173228,45.6029412 106.251969,43.75 105.330709,42 C105.125984,42 104.818898,42 104.511811,42 C104.204724,42 104,42 103.692913,42 L99.496063,42 L99.496063,52.7058824 L91.8188976,52.7058824 L91.8188976,20.7941176 L104,20.7941176 C107.480315,20.7941176 110.551181,21.6176471 113.110236,23.2647059 C115.669291,24.9117647 116.897638,27.5882353 116.897638,31.2941176 C116.897638,33.25 116.488189,34.8970588 115.566929,36.3382353 C114.645669,37.7794118 113.519685,38.9117647 112.188976,39.7352941 C113.417323,41.8970588 114.645669,44.0588235 115.771654,46.2205882 C117,48.3823529 118.228346,50.5441176 119.354331,52.7058824 L110.96063,52.7058824 L110.96063,52.7058824 Z M103.897638,26.9705882 L99.5984252,26.9705882 L99.5984252,35.8235294 L104,35.8235294 C105.535433,35.8235294 106.76378,35.4117647 107.685039,34.6911765 C108.606299,33.9705882 109.11811,32.8382353 109.11811,31.3970588 C109.11811,29.8529412 108.708661,28.7205882 107.787402,28 C106.76378,27.2794118 105.535433,26.9705882 103.897638,26.9705882 Z" id="Shape" fill="#003147"></path>
                        <path d="M169.92126,52.7058824 L156.92126,52.7058824 L156.92126,20.7941176 L169.92126,20.7941176 C174.834646,20.7941176 178.622047,22.2352941 181.181102,25.2205882 C183.740157,28.2058824 184.968504,31.9117647 184.968504,36.5441176 C184.968504,41.4852941 183.637795,45.3970588 180.874016,48.3823529 C178.110236,51.2647059 174.425197,52.7058824 169.92126,52.7058824 Z M169.818898,26.9705882 L164.496063,26.9705882 L164.496063,46.5294118 L169.409449,46.5294118 C171.559055,46.5294118 173.401575,45.7058824 174.732283,44.0588235 C176.165354,42.4117647 176.88189,39.9411765 176.88189,36.4411765 C176.88189,33.5588235 176.267717,31.2941176 175.03937,29.5441176 C174.015748,27.7941176 172.173228,26.9705882 169.818898,26.9705882 Z" id="Shape" fill="#003147"></path>
                        <polygon id="Path" fill="#003147" points="197.661417 20.6911765 197.661417 52.6029412 189.984252 52.6029412 189.984252 20.6911765"></polygon>
                        <path d="M211.787402,20.6911765 L211.787402,40.25 C211.787402,42.5147059 212.401575,44.1617647 213.527559,45.1911765 C214.653543,46.3235294 216.188976,46.8382353 217.929134,46.8382353 C219.771654,46.8382353 221.204724,46.3235294 222.330709,45.1911765 C223.456693,44.0588235 224.070866,42.4117647 224.070866,40.25 L224.070866,20.6911765 L231.748031,20.6911765 L231.748031,40.6617647 C231.748031,44.5735294 230.519685,47.6617647 227.96063,49.8235294 C225.401575,52.0882353 222.125984,53.1176471 217.929134,53.1176471 C213.834646,53.1176471 210.456693,51.9852941 207.897638,49.8235294 C205.338583,47.6617647 204.110236,44.5735294 204.110236,40.5588235 L204.110236,20.6911765 L211.787402,20.6911765 Z" id="Path" fill="#003147"></path>
                        <path d="M236.354331,29.0294118 C236.354331,26.4558824 237.377953,24.3970588 239.425197,22.6470588 C241.472441,20.8970588 244.338583,20.0735294 247.92126,20.0735294 C249.559055,20.0735294 251.094488,20.2794118 252.732283,20.7941176 C254.370079,21.3088235 255.80315,21.8235294 257.031496,22.6470588 L254.677165,28.1029412 C253.244094,27.5882353 252.015748,27.1764706 251.094488,26.8676471 C250.173228,26.5588235 249.047244,26.4558824 247.92126,26.4558824 C246.795276,26.4558824 245.874016,26.6617647 245.259843,27.1764706 C244.543307,27.6911765 244.23622,28.3088235 244.23622,29.0294118 C244.23622,29.9558824 244.748031,30.6764706 245.771654,31.1911765 C246.795276,31.7058824 248.023622,32.4264706 249.456693,33.25 C251.708661,34.3823529 253.858268,35.8235294 255.905512,37.5735294 C257.952756,39.2205882 258.976378,41.3823529 258.976378,44.0588235 C258.976378,46.7352941 257.850394,48.8970588 255.700787,50.6470588 C253.551181,52.3970588 250.480315,53.3235294 246.590551,53.3235294 C245.055118,53.3235294 243.314961,53.0147059 241.165354,52.5 C239.015748,51.9852941 237.480315,51.3676471 236.456693,50.6470588 L238.811024,44.6764706 C239.732283,45.1911765 240.858268,45.7058824 242.291339,46.1176471 C243.724409,46.5294118 245.15748,46.8382353 246.283465,46.8382353 C247.818898,46.8382353 248.944882,46.5294118 249.76378,46.0147059 C250.582677,45.5 250.889764,44.7794118 250.889764,43.9558824 C250.889764,43.2352941 250.377953,42.5147059 249.251969,41.7941176 C248.125984,41.0735294 246.897638,40.4558824 245.669291,39.7352941 C243.519685,38.6029412 241.370079,37.2647059 239.322835,35.6176471 C237.377953,33.9705882 236.354331,31.8088235 236.354331,29.0294118 Z" id="Path" fill="#003147"></path>
                        <path d="M141.259843,20.6911765 L153.543307,52.6029412 L145.661417,52.6029412 L143.204724,45.9117647 L131.84252,45.9117647 L129.385827,52.6029412 L121.811024,52.6029412 L133.889764,20.6911765 L141.259843,20.6911765 Z M137.472441,30.3676471 L134.094488,39.9411765 L141.055118,39.9411765 L137.472441,30.3676471 Z" id="Shape" fill="#003147"></path>
                    </g>
                </g>
            </g>
        </g>
    </g>
</svg>