<?xml version="1.0" encoding="UTF-8" standalone="no"?>
<svg
   xmlns:dc="http://purl.org/dc/elements/1.1/"
   xmlns:cc="http://creativecommons.org/ns#"
   xmlns:rdf="http://www.w3.org/1999/02/22-rdf-syntax-ns#"
   xmlns:svg="http://www.w3.org/2000/svg"
   xmlns="http://www.w3.org/2000/svg"
   xmlns:xlink="http://www.w3.org/1999/xlink"
   id="svg388"
   version="1.1"
   viewBox="0 0 794 240"
   height="240px"
   width="794px">
  <defs
     id="defs337">
    <polygon
       points="0 0 318.957265 0 794 0 794 240 0 240"
       id="path-1" />
  </defs>
  <g
     fill-rule="evenodd"
     fill="none"
     stroke-width="1"
     stroke="none"
     id="Page-1">
    <g
       transform="translate(-323.000000, -176.000000)"
       id="Home">
      <g
         transform="translate(323.000000, 176.000000)"
         id="Group-23">
        <g
           id="Group-15">
          <mask
             fill="white"
             id="mask-2">
            <use
               id="use339"
               xlink:href="#path-1" />
          </mask>
          <use
             xlink:href="#path-1"
             fill="#F8F8F8"
             id="Rectangle" />
          <g
             fill-rule="nonzero"
             fill="#E1E7E8"
             mask="url(#mask-2)"
             id="Group-25">
            <g
               id="g365"
               transform="translate(-138.000000, -47.000000)">
              <path
                 style="mix-blend-mode: multiply;"
                 id="Shape"
                 d="M346.766147,78.4247312 L343.258352,71.4865591 C343.258352,71.4086022 343.258352,71.3306452 343.180401,71.2526882 L326.498886,38.4327957 C326.420935,38.2768817 326.342984,38.1989247 326.265033,38.1209677 L313.247216,29.155914 C313.091314,29.077957 312.935412,29 312.77951,29 C312.623608,29 312.545657,29 312.389755,29.077957 C312.155902,29.233871 312,29.4677419 312,29.7795699 L312,45.2930108 C312,45.4489247 312,45.5268817 312.077951,45.6827957 L328.837416,78.5026882 L328.837416,78.5026882 L330.942094,82.6344086 L331.565702,83.8037634 L332.501114,85.6747312 C332.890869,86.5322581 333.74833,87 334.605791,87 C334.605791,87 334.605791,87 334.605791,87 C334.995546,87 335.30735,86.922043 335.697105,86.766129 L341.387528,83.8817204 L343.648107,82.7123656 L345.674833,81.6989247 C346.532294,81.3091398 347,80.4516129 347,79.594086 C347,79.1263441 346.922049,78.7365591 346.766147,78.4247312 Z M327.555556,44.7668737 L341.166667,71.6173913 L339.066667,72.7101449 L336.188889,67.2463768 L323.666667,43.0496894 L325.766667,39.9275362 L327.555556,44.7668737 Z M333.266404,75.2318841 L317.833333,45.766104 L317.990814,45.3032907 L318.935696,42.4492754 L321.770341,43.374902 L322.242782,43.5291731 L337.833333,72.9178176 L333.266404,75.2318841 Z M324.5,38.942029 L322.579196,41.8019324 L318.891253,40.5652174 C318.814421,40.5652174 318.737589,40.5652174 318.660757,40.5652174 C318.353428,40.5652174 318.046099,40.7971014 317.892435,41.1062802 L316.663121,44.9710145 L313.666667,44.6618357 L313.666667,31.5217391 L324.5,38.942029 Z M317.425384,51.6871829 L313.666667,45.8115942 L317.041841,46.1249589 L328.93166,69.8623371 L332,75.8946081 L330.082287,76.9130435 L317.425384,51.6871829 Z M344.919034,80.2446094 L340.109695,82.6279604 L337.823288,83.7811948 L334.827306,85.2419583 C334.669623,85.3188406 334.590781,85.3188406 334.433098,85.3188406 C334.117731,85.3188406 333.802365,85.165076 333.723523,84.8575468 L333.09279,83.7043125 L332.462057,82.5510781 L330.333333,78.4763167 L341.923052,72.7101449 L345.2344,79.0144928 C345.313242,79.1682573 345.313242,79.2451396 345.313242,79.3989042 C345.392083,79.8601979 345.2344,80.0908448 344.919034,80.2446094 Z" />
              <path
                 style="mix-blend-mode: multiply;"
                 id="path344"
                 d="M250.177989,272.290185 L260.555707,245.680959 C260.633152,245.368827 260.633152,245.056696 260.400815,244.822597 C258.697011,243.183906 257.767663,240.764885 257.767663,238.345865 C257.767663,237.253404 258,236.08291 258.387228,235.068482 C259.548913,232.025198 262.182065,230.074375 265.202446,229.684211 L262.569293,236.317009 L262.569293,236.317009 C262.414402,236.62914 262.414402,236.941272 262.414402,237.253404 C262.414402,238.267832 263.033967,239.28226 264.040761,239.672424 L264.040761,239.672424 L267.370924,240.998984 L267.370924,240.998984 C267.680707,241.15505 267.990489,241.15505 268.300272,241.15505 C268.300272,241.15505 268.300272,241.15505 268.300272,241.15505 C269.307065,241.15505 270.236413,240.530786 270.623641,239.516358 L270.623641,239.516358 L273.256793,232.88356 C274.57337,234.444219 275.347826,236.317009 275.347826,238.345865 C275.347826,239.360293 275.115489,240.452754 274.728261,241.545214 C274.03125,243.183906 272.869565,244.666531 271.398098,245.680959 C269.92663,246.695387 268.14538,247.31965 266.441576,247.31965 C266.131793,247.31965 265.822011,247.553749 265.744565,247.787848 L255.366848,274.319041 C255.289402,274.631173 255.289402,274.943304 255.521739,275.177403 C257.225543,276.816094 258.154891,279.235115 258.154891,281.654135 C258.154891,282.746596 257.922554,283.91709 257.535326,284.931518 C256.373641,287.974802 253.740489,289.925625 250.720109,290.315789 L253.353261,283.761024 C253.508152,283.448893 253.585598,283.058728 253.585598,282.746596 C253.585598,282.278399 253.430707,281.810201 253.19837,281.342004 C252.966033,280.951839 252.501359,280.561674 252.036685,280.405609 L252.036685,280.405609 L248.629076,279.157082 L248.629076,279.157082 C248.319293,279.001016 248.009511,279.001016 247.699728,279.001016 C246.692935,279.001016 245.763587,279.625279 245.376359,280.639707 L242.743207,287.272506 C241.42663,285.711847 240.652174,283.839057 240.652174,281.810201 C240.652174,280.795773 240.884511,279.703312 241.271739,278.610851 C241.96875,276.97216 243.130435,275.489535 244.601902,274.475107 C246.07337,273.460679 247.85462,272.836415 249.558424,272.836415 C249.790761,272.758382 250.100543,272.602317 250.177989,272.290185 L250.177989,272.290185 M266.38809,228 C262.252567,228 258.507187,230.503667 256.868583,234.493888 C256.400411,235.745721 256.166324,237.075795 256.166324,238.405868 C256.166324,241.066015 257.102669,243.726161 258.975359,245.682152 L248.909651,271.344743 C247.036961,271.501222 245.164271,272.127139 243.603696,273.222494 C241.887064,274.396088 240.482546,276.117359 239.702259,278.07335 C239.234086,279.325183 239,280.577017 239,281.828851 C239,284.645477 240.24846,287.383863 242.433265,289.339853 C242.589322,289.496333 242.74538,289.496333 242.979466,289.496333 C243.057495,289.496333 243.135524,289.496333 243.135524,289.496333 C243.36961,289.418093 243.603696,289.261614 243.681725,289.026895 L246.724846,281.281174 C246.880903,280.811736 247.271047,280.577017 247.661191,280.577017 C247.73922,280.577017 247.895277,280.577017 248.051335,280.655257 L248.051335,280.655257 L251.4846,281.90709 C251.640657,281.98533 251.796715,282.06357 251.874743,282.220049 C251.952772,282.376528 252.030801,282.533007 252.030801,282.767726 C252.030801,282.924205 252.030801,283.080685 251.952772,283.237164 L248.909651,290.982885 C248.831622,291.217604 248.831622,291.530562 248.98768,291.687042 C249.143737,291.92176 249.377823,292 249.61191,292 C249.61191,292 249.61191,292 249.61191,292 C253.747433,292 257.492813,289.496333 259.131417,285.506112 C259.599589,284.254279 259.833676,282.924205 259.833676,281.594132 C259.833676,278.933985 258.897331,276.273839 257.024641,274.317848 L267.090349,248.655257 C268.963039,248.498778 270.835729,247.872861 272.396304,246.777506 C274.112936,245.603912 275.517454,243.882641 276.297741,241.92665 C276.765914,240.674817 277,239.422983 277,238.171149 C277,235.354523 275.75154,232.616137 273.566735,230.660147 C273.410678,230.503667 273.25462,230.503667 273.020534,230.503667 C272.942505,230.503667 272.864476,230.503667 272.864476,230.503667 C272.63039,230.581907 272.396304,230.738386 272.318275,230.973105 L269.275154,238.718826 L269.275154,238.718826 C269.119097,239.110024 268.728953,239.344743 268.338809,239.344743 C268.182752,239.344743 268.104723,239.344743 267.948665,239.266504 L267.948665,239.266504 L264.593429,237.93643 L264.593429,237.93643 C264.203285,237.779951 263.969199,237.388753 263.969199,236.997555 C263.969199,236.841076 263.969199,236.762836 264.047228,236.606357 L264.047228,236.606357 L267.090349,228.860636 C267.168378,228.625917 267.168378,228.312958 267.01232,228.156479 C266.856263,228.156479 266.622177,228 266.38809,228" />
              <path
                 style="mix-blend-mode: multiply;"
                 id="Combined-Shape"
                 d="M459.679417,56.8461538 L459.827793,56.8579452 C460.064334,56.895463 460.247116,57.0133761 460.376138,57.0776923 C460.530965,57.1548718 460.685792,57.3092308 460.840619,57.4635897 L460.840619,57.4635897 L466.64663,63.2520513 L465.562842,64.3325641 L465.020947,63.7923077 L460.298725,59.084359 L460.298725,78.1476923 L473.226776,78.1476923 L473.226776,79.6912821 L459.52459,79.6912821 C459.29235,79.6912821 459.137523,79.6141026 458.982696,79.4597436 C458.827869,79.3053846 458.750455,79.1510256 458.750455,78.9194872 L458.750455,78.9194872 L458.750455,59.4702564 L454.337887,63.7923077 L453.795993,64.3325641 L453.254098,63.7923077 L452.712204,63.2520513 L458.518215,57.4635897 C458.595628,57.4635897 458.673042,57.3864103 458.750455,57.3092308 L458.750455,57.3092308 L458.750455,57.1548718 L458.905282,57.1548718 C458.905282,57.0776923 458.982696,57.0776923 458.982696,57.0776923 C459.137523,56.9233333 459.369763,56.8461538 459.679417,56.8461538 L459.679417,56.8461538 Z M457.899543,37 C465.196347,37 471.406393,41.2482517 474.356164,47.4632867 C480.954338,48.25 486,53.9143357 486,60.7587413 C486,68.2325175 480.022831,74.2115385 472.726027,74.2115385 L472.726027,74.2115385 L464.497717,74.2115385 L464.497717,72.6381119 L464.497717,72.6381119 L472.726027,72.6381119 C475.986301,72.6381119 478.936073,71.3006993 481.031963,69.1765734 C483.127854,66.9737762 484.447489,64.0629371 484.447489,60.7587413 C484.447489,54.5437063 479.789954,49.5087413 473.812785,48.958042 C473.579909,48.8793706 473.269406,48.722028 473.191781,48.486014 C470.474886,42.6643357 464.652968,38.5734266 457.899543,38.5734266 L457.899543,38.5734266 L457.477434,38.5786083 C452.989031,38.6889412 448.958489,40.5545137 446.022831,43.5297203 C442.995434,46.5979021 441.13242,50.8461538 441.13242,55.5664336 C441.13242,56.2744755 441.210046,56.9825175 441.287671,57.6118881 C441.287671,57.9265734 441.13242,58.2412587 440.821918,58.3986014 C438.3379,59.5786713 436.552511,62.1748252 436.552511,65.1643357 C436.552511,67.2097902 437.406393,69.0979021 438.726027,70.4353147 C440.045662,71.7727273 441.908676,72.6381119 443.926941,72.6381119 L443.926941,72.6381119 L455.570776,72.6381119 L455.570776,74.2115385 L455.570776,74.2115385 L443.926941,74.2115385 C438.958904,74.2115385 435,70.1206294 435,65.1643357 C435,61.7027972 436.863014,58.7132867 439.657534,57.2185315 C439.579909,56.6678322 439.579909,56.1171329 439.579909,55.5664336 C439.579909,45.3391608 447.730594,37 457.899543,37 Z" />
              <path
                 style="mix-blend-mode: multiply;"
                 id="path347"
                 d="M416.5,267 C424.008876,267 430,272.934924 430,280.197397 C430,282.462039 429.121302,284.960954 427.923077,287.537961 C426.724852,290.114967 425.127219,292.691974 423.529586,295.034707 C420.973373,298.861171 418.337278,301.984816 417.45858,303 L417.45858,303 L415.621302,303 C414.982249,302.29718 413.544379,300.579176 411.866864,298.314534 C409.630178,295.347072 406.914201,291.364425 405.076923,287.537961 C403.878698,284.960954 403,282.462039 403,280.197397 C403,272.934924 409.071006,267 416.5,267 Z M416.579882,268.561822 C413.304734,268.561822 410.349112,269.889371 408.192308,271.997831 C406.035503,274.106291 404.677515,276.995662 404.677515,280.197397 C404.677515,281.915401 405.316568,284.180043 406.35503,286.444685 C407.393491,288.709328 408.831361,291.130152 410.269231,293.316703 C412.745562,297.065076 415.381657,300.266811 416.5,301.672451 C416.659763,301.516269 416.819527,301.281996 417.059172,301.047722 C417.778107,300.18872 418.736686,298.939262 419.85503,297.455531 C422.091716,294.488069 424.727811,290.583514 426.485207,286.913232 C427.683432,284.414317 428.402367,282.071584 428.482249,280.197397 C428.482249,276.995662 427.12426,274.106291 424.967456,271.997831 C422.810651,269.889371 419.85503,268.561822 416.579882,268.561822 Z M416.5,273.697674 C419.76398,273.697674 422.40625,276.319461 422.40625,279.55814 C422.40625,282.796818 419.76398,285.418605 416.5,285.418605 C413.23602,285.418605 410.59375,282.796818 410.59375,279.55814 C410.59375,276.319461 413.23602,273.697674 416.5,273.697674 Z M416.5,275.239902 C415.256579,275.239902 414.168586,275.70257 413.391447,276.473684 C412.614309,277.244798 412.148026,278.324357 412.148026,279.55814 C412.148026,280.791922 412.614309,281.871481 413.391447,282.642595 C414.168586,283.413709 415.256579,283.876377 416.5,283.876377 C417.743421,283.876377 418.831414,283.413709 419.608553,282.642595 C420.385691,281.79437 420.851974,280.71481 420.851974,279.55814 C420.851974,278.324357 420.385691,277.244798 419.608553,276.473684 C418.753701,275.70257 417.743421,275.239902 416.5,275.239902 Z" />
              <path
                 style="mix-blend-mode: multiply;"
                 id="path351"
                 d="M142.04186,170.367521 C146.227907,170.367521 149.827907,171.441595 152.590698,173.424501 C155.186047,175.324786 156.776744,178.133903 156.776744,181.438746 L156.776744,181.438746 L156.776744,183.173789 C156.776744,183.421652 156.693023,183.586895 156.525581,183.752137 C156.35814,183.917379 156.190698,184 155.939535,184 L155.939535,184 L128.227907,184 C127.976744,184 127.809302,183.917379 127.64186,183.752137 C127.474419,183.586895 127.390698,183.421652 127.390698,183.173789 L127.390698,183.173789 L127.390698,181.438746 C127.390698,178.216524 128.981395,175.324786 131.576744,173.424501 C134.172093,171.441595 137.855814,170.367521 142.04186,170.367521 Z M141.95814,172.019943 L141.507106,172.024681 C137.773579,172.10342 134.671199,173.157572 132.497674,174.746439 C130.237209,176.39886 128.981395,178.712251 128.981395,181.438746 L128.981395,181.438746 L128.981395,182.347578 L154.934884,182.347578 L154.934884,181.438746 C154.934884,178.712251 153.67907,176.39886 151.418605,174.746439 C149.15814,173.011396 145.893023,172.019943 141.95814,172.019943 L141.95814,172.019943 Z M158.283721,158.387464 C161.465116,158.387464 164.060465,160.948718 164.060465,164.088319 C164.060465,166.566952 162.469767,168.7151 160.209302,169.458689 C159.740465,169.392593 159.218047,169.379373 158.684912,169.376729 L158.57052,169.37655 C159.143142,169.379441 159.706977,169.399674 160.209302,169.541311 C162.469767,169.789174 164.395349,170.532764 165.902326,171.606838 C167.750884,172.955214 168.905027,174.988882 168.994401,177.269256 L169,177.555556 L169,178.794872 C169,179.042735 168.916279,179.207977 168.748837,179.373219 C168.609302,179.510921 168.469767,179.591247 168.281783,179.614198 L168.162791,179.621083 L158.451163,179.621083 C158.384186,179.158405 158.263628,178.695726 158.132353,178.27535 L158.032558,177.968661 L167.325581,177.968661 L167.325581,177.555556 C167.325581,175.655271 166.488372,174.08547 164.897674,172.928775 C163.382724,171.82716 161.260275,171.100245 158.67497,171.033513 L158.283721,171.02849 L157.847723,171.035279 C156.262209,171.084718 154.823256,171.400285 153.595349,171.854701 C153.093023,171.441595 152.506977,171.111111 151.92093,170.780627 C153.072093,170.174739 154.434302,169.7077 155.943072,169.506789 L156.35814,169.458689 L156.13436,169.379688 C153.993395,168.571523 152.506977,166.48433 152.506977,164.088319 C152.506977,160.948718 155.102326,158.387464 158.283721,158.387464 Z M125.716279,158.387464 C128.897674,158.387464 131.493023,160.948718 131.493023,164.088319 C131.493023,166.566952 129.902326,168.7151 127.64186,169.458689 L128.110192,169.51989 C129.343152,169.699413 130.451163,170.009497 131.493023,170.450142 C131.744186,170.532764 131.911628,170.615385 132.07907,170.698006 C131.493023,171.02849 130.906977,171.358974 130.404651,171.77208 C129.176744,171.317664 127.737791,171.002097 126.152277,170.952658 L125.716279,170.945869 L125.32503,170.950892 C122.739725,171.017624 120.617276,171.744539 119.102326,172.846154 C117.587375,173.947768 116.755861,175.424082 116.680105,177.203722 L116.674419,177.472934 L116.674419,177.88604 L125.967442,177.88604 C125.833488,178.282621 125.699535,178.73208 125.608447,179.192114 L125.548837,179.538462 L115.837209,179.538462 C115.586047,179.538462 115.418605,179.45584 115.251163,179.290598 C115.111628,179.152896 115.030233,179.015195 115.006977,178.82968 L115,178.712251 L115,177.472934 C115,175.076923 116.172093,172.928775 118.097674,171.524217 C119.604651,170.450142 121.530233,169.706553 123.790698,169.458689 C121.530233,168.7151 119.939535,166.566952 119.939535,164.088319 C119.939535,160.948718 122.534884,158.387464 125.716279,158.387464 Z M142.04186,155 C146.311628,155 149.744186,158.387464 149.827907,162.683761 C149.827907,165.245014 148.488372,167.475783 146.562791,168.880342 C145.390698,169.728585 143.926884,170.216967 142.375553,170.278315 L142.04186,170.2849 L141.708167,170.278315 C140.156837,170.216967 138.693023,169.728585 137.52093,168.880342 C135.511628,167.558405 134.255814,165.245014 134.255814,162.683761 C134.255814,158.470085 137.772093,155 142.04186,155 Z M124.109818,169.422077 C124.000999,169.432005 123.894534,169.444051 123.790698,169.458689 L124.109818,169.422077 Z M126.11747,169.376729 C126.623814,169.379373 127.106047,169.392593 127.64186,169.458689 C127.173023,169.392593 126.650605,169.379373 126.11747,169.376729 Z M124.376278,169.402047 L124.406909,169.400239 L124.406909,169.400239 L124.376278,169.402047 L124.437627,169.398517 Z M124.683214,169.387686 L124.797774,169.384174 L124.797774,169.384174 L124.683214,169.387686 L124.913136,169.381453 Z M125.315088,169.376729 C125.18189,169.37739 125.04936,169.378711 124.918168,169.381351 L125.315088,169.376729 Z M141.95814,156.735043 C140.283721,156.735043 138.776744,157.396011 137.688372,158.470085 C136.6,159.54416 135.930233,161.031339 135.930233,162.683761 C135.930233,164.336182 136.6,165.823362 137.688372,166.897436 C138.44186,167.641026 139.446512,168.219373 140.618605,168.467236 C141.049169,168.608873 141.418225,168.629106 141.778493,168.631997 L141.95814,168.632479 L142.218009,168.623225 C142.574326,168.59943 142.962791,168.533333 143.297674,168.467236 C144.386047,168.219373 145.390698,167.723647 146.227907,166.897436 C147.316279,165.823362 147.986047,164.336182 147.986047,162.683761 C147.986047,161.031339 147.316279,159.54416 146.227907,158.470085 C145.139535,157.396011 143.632558,156.735043 141.95814,156.735043 Z M158.283721,160.039886 C157.111628,160.039886 156.106977,160.452991 155.353488,161.196581 C154.6,161.940171 154.181395,162.931624 154.181395,164.088319 C154.181395,165.245014 154.6,166.236467 155.353488,166.980057 C156.053156,167.670533 156.969388,168.076051 158.035152,168.130459 L158.283721,168.136752 L158.53229,168.130459 C159.598054,168.076051 160.514286,167.670533 161.213953,166.980057 C161.967442,166.236467 162.386047,165.245014 162.386047,164.088319 C162.386047,162.931624 161.967442,161.940171 161.213953,161.196581 C160.460465,160.452991 159.455814,160.039886 158.283721,160.039886 Z M125.716279,160.039886 C124.544186,160.039886 123.539535,160.452991 122.786047,161.196581 C122.032558,161.940171 121.613953,162.931624 121.613953,164.088319 C121.613953,165.245014 122.032558,166.236467 122.786047,166.980057 C123.485714,167.670533 124.401946,168.076051 125.46771,168.130459 L125.716279,168.136752 L125.94938,168.130459 C126.958424,168.076051 127.946844,167.670533 128.646512,166.980057 C129.4,166.236467 129.818605,165.245014 129.818605,164.088319 C129.818605,162.931624 129.4,161.940171 128.646512,161.196581 C127.893023,160.452991 126.888372,160.039886 125.716279,160.039886 Z" />
              <path
                 style="mix-blend-mode:multiply"
                 id="path357"
                 d="m 193,47 c -13.25,0 -24,10.75 -24,24 0,13.25 10.75,24 24,24 13.25,0 24,-10.75 24,-24 0,-13.25 -10.75,-24 -24,-24 z m 4.16667,7.416667 C 197.24997,54.75 197.5,55 197.83333,55.083333 c 0.0833,0 0.25,0 0.33334,0.08333 -0.0833,0 -0.16667,0.08333 -0.25,0.08333 -0.75,0.166667 -1.66667,0.416667 -2.75,1 -0.25,0.166667 -0.41667,0.333333 -0.66667,0.5 -0.75,0.666667 -1.66667,1.75 -2.41667,2.75 -0.33333,0.416667 -0.58333,0.75 -0.83333,1.083333 -0.16667,-0.166666 -0.41667,-0.333333 -0.66667,-0.5 C 190.25,59.833326 189.75,59.66666 189.25,59.66666 h -0.16667 v 0 c -0.75,0.08333 -1.5,0.08333 -2.25,0.333333 -0.41666,0.166667 -0.75,0.333333 -1.08333,0.666667 -0.33333,0.333333 -0.58333,0.75 -0.75,1.25 -0.25,0.583333 -0.33333,1 -0.33333,1.5 0,0.166666 0,0.333333 0.0833,0.583333 v 0 c -0.5,-0.166667 -0.83333,-0.333333 -1.08333,-0.583333 0,0 -0.0833,-0.08333 -0.0833,-0.25 C 183.33333,62.666667 183,61.75 182.66667,61 182.5,60.583333 182.33333,60.25 182.08333,59.916667 c -0.0833,-0.166667 -0.25,-0.333334 -0.41666,-0.5 -0.16667,-0.166667 -0.41667,-0.25 -0.75,-0.333334 h -0.25 c -0.16667,-0.666666 -0.25,-1.416666 -0.25,-2 v -0.416666 0 c 0,-0.166667 0.0833,-0.25 0.16666,-0.5 0.16667,-0.25 0.58334,-0.583334 0.91667,-1 0.16667,-0.25 0.41667,-0.5 0.5,-0.75 0.16667,-0.333334 0.25,-0.666667 0.25,-1.083334 0,-0.416666 -0.0833,-0.833333 -0.25,-1.25 v 0 c 0,-0.08333 -0.0833,-0.166666 -0.0833,-0.166666 2.33333,-1.333334 4.83333,-2.25 7.58333,-2.75 C 191.16667,49.083337 193.41667,49 195.25,49 c -0.16667,0.08333 -0.41667,0.166667 -0.58333,0.25 -0.58334,0.25 -1.16667,0.583333 -1.58334,0.833333 -0.25,0.166667 -0.41666,0.25 -0.58333,0.5 -0.0833,0.08333 -0.16667,0.166667 -0.25,0.333334 C 192.1667,51.083333 192.08333,51.25 192.08333,51.5 v 0.25 c 0,0.08333 0.0833,0.166667 0.0833,0.166667 0.0834,0.08333 0.0834,0.166666 0.0834,0.166666 l 0.0833,0.08333 c 0.16667,0.08333 0.33334,0.25 0.58334,0.5 0.41666,0.333333 0.83333,0.666666 1.25,0.916666 0.16666,0.166667 0.33333,0.25 0.41666,0.333334 l 0.0834,0.08334 c 0.0833,0.166667 0.25,0.25 0.41666,0.25 0.16667,0 0.33334,0.08333 0.41667,0.08333 0.66667,0 1.16667,-0.333333 1.58333,-0.666666 0.58334,-0.5 1.08334,-1.166667 1.5,-1.583334 0.25,-0.25 0.41667,-0.416666 0.66667,-0.5 0.16667,-0.08333 0.41667,-0.166666 0.58333,-0.166666 0.16667,0 0.41667,0 0.66667,0.166666 0.0833,0.166667 0.0833,0.25 0.16667,0.416667 0.16666,0.333333 0.33333,0.666667 0.5,0.916667 -0.0833,0 -0.0833,0 -0.16667,0.08333 -0.5,0.08333 -1.16667,0.166667 -1.83333,0.25 -0.33334,0 -0.58334,0.08333 -0.91667,0.166667 -0.25,0.08333 -0.5,0.08333 -0.83333,0.25 -0.16667,0.08333 -0.33334,0.416666 -0.25,0.75 z m -16.75,-1.833334 1.25,-0.75 z m 17.83333,-3.25 c 0.5,0.08333 0.91667,0.25 1.41667,0.416667 -0.58334,0.08333 -1.08334,0.333333 -1.5,0.583333 C 197.41667,50.833333 197,51.5 196.5,52 c -0.25,0.25 -0.41667,0.416667 -0.58333,0.5 -0.16667,0.08333 -0.25,0.08333 -0.33334,0.166667 v 0 C 195.25,52.416667 194.66667,52 194.16667,51.583333 194.08337,51.500003 194,51.500003 193.91667,51.416667 194.25,51.25 194.58333,51 195,50.833333 c 0.83333,-0.416666 1.75,-0.75 2.5,-1.083333 0.25,-0.25 0.5,-0.333333 0.75,-0.416667 z m 10.58333,37.5 c -4.08333,4 -9.58333,6.5 -15.75,6.5 -6.16666,0 -11.75,-2.5 -15.75,-6.5 -4,-4.083333 -6.5,-9.583333 -6.5,-15.75 0,-6.166666 2.5,-11.75 6.5,-15.75 0.91667,-0.916666 2,-1.833333 3.08334,-2.583333 0.0833,0.25 0.16666,0.416667 0.16666,0.583333 0,0.166667 -0.0833,0.333334 -0.16666,0.5 -0.16667,0.25 -0.5,0.583334 -0.91667,1 -0.16667,0.166667 -0.41667,0.416667 -0.58333,0.75 -0.16667,0.25 -0.25,0.666667 -0.33334,1 v 0 0.583334 c 0,1.833333 0.58334,3.916666 1.83334,5.5 C 180.58333,62.833333 180.83333,63 181.08333,63 c 0.16667,0 0.25,0 0.41667,-0.08333 0.0833,0.08333 0.0833,0.25 0.0833,0.333333 0.0833,0.25 0.25,0.583333 0.33334,0.75 0.0833,0.08333 0.0833,0.25 0.16666,0.333333 0.0833,0.08333 0.16667,0.25 0.25,0.333334 0.75,0.666666 1.75,1 2.66667,1.166666 0.91667,0.25 1.75,0.333334 2.33333,0.583334 0.25,0.08333 0.41667,0.166666 0.5,0.333333 l 0.75,0.75 c 0.25,0.25 0.58334,0.5 1.08334,0.666667 -0.5,0.833333 -0.75,1.833333 -0.75,2.916666 0,0.75 0.16666,1.5 0.41666,2.25 0.25,0.5 0.58334,0.916667 0.91667,1.333334 0.5,0.5 1.08333,0.833333 1.5,1.166666 0.41667,0.333334 0.75,0.583334 0.91667,1 0.16666,0.333334 0.25,0.75 0.33333,1.25 0.0833,0.5 0.0833,1 0.0833,1.583334 V 80.25 c 0,0.666667 0,1.416667 0.16667,2.166667 v 0 c 0.16667,0.833333 0.41667,1.916666 0.91667,2.916666 0.41666,0.916667 0.91666,1.75 1.66666,2.416667 0.0833,0.08333 0.16667,0.08333 0.16667,0.166667 v 0 l 0.0834,0.08333 c 0.0833,0.08333 0.25,0.08333 0.33334,0.08333 v 0 0 c 0.33333,0 0.66666,-0.166666 0.91666,-0.333333 0.33334,-0.333333 0.5,-0.666667 0.58334,-1 0.0833,-0.33333 0.0833,-0.749997 0.0833,-1.08333 0,-0.416667 -0.0833,-0.916667 -0.16667,-1.333334 0.16667,-0.08333 0.25,-0.08333 0.33334,-0.166666 0.25,-0.166667 0.41666,-0.333334 0.58333,-0.5 0.16667,-0.333334 0.25,-0.583334 0.33333,-0.916667 0,-0.25 0.0833,-0.416667 0.0833,-0.583333 0.16666,0 0.41666,-0.08333 0.58333,-0.166667 0.25,-0.166667 0.5,-0.333333 0.58333,-0.5 0.25,-0.25 0.33334,-0.5 0.5,-0.75 0.16667,-0.166667 0.25,-0.416667 0.5,-0.583333 0.0833,-0.08333 0.66667,-0.583334 1.25,-1.083334 0.33334,-0.25 0.58334,-0.5 0.83334,-0.75 l 0.25,-0.25 v 0 l 0.25,-0.25 c 0.5,-0.75 0.91666,-1.416666 1.25,-2.083333 0.33333,-0.666667 0.5,-1.333333 0.5,-2 0,-0.583333 -0.16667,-1.083333 -0.41667,-1.583333 -0.25,-0.5 -0.66667,-0.916667 -1.16667,-1.333334 -0.16666,-0.166666 -0.33333,-0.25 -0.5,-0.25 -0.25,-0.08333 -0.58333,-0.166666 -0.91666,-0.25 -0.5,-0.08333 -1,-0.25 -1.5,-0.333333 -0.0833,0 -0.16667,0 -0.25,-0.08333 0,-0.166667 -0.0833,-0.333334 -0.0833,-0.5 -0.0833,-0.16667 -0.25,-0.333337 -0.33333,-0.41667 -0.16667,-0.08333 -0.25,-0.25 -0.5,-0.333333 -0.91667,-0.583334 -2,-1.25 -3.08333,-1.75 -1.16667,-0.5 -2.33334,-1 -3.66667,-1 h -0.0833 c -0.58334,0 -1.16667,0.166666 -1.75,0.5 -0.33334,0.166666 -0.58334,0.416666 -0.83334,0.666666 l -0.25,-0.5 c -0.0834,-0.166666 -0.0834,-0.333333 -0.0834,-0.583333 0,-0.166667 -0.0833,-0.333333 -0.16667,-0.583333 -0.0833,-0.333334 -0.41666,-0.666667 -0.75,-0.833334 h -0.0833 c 0,-0.166666 0.0833,-0.333333 0.0833,-0.5 0,-0.25 -0.0833,-0.5 -0.16666,-0.75 -0.0833,-0.25 -0.25,-0.416666 -0.41667,-0.5 C 188.5833,62.75 188.41664,62.75 188.24997,62.75 c -0.16667,0 -0.33333,0 -0.41667,0.08333 -0.41666,0.08333 -0.83333,0.333334 -1.25,0.5 -0.16666,0.08334 -0.41666,0.16667 -0.58333,0.16667 h -0.0833 c 0,-0.166667 0.0833,-0.333333 0.16666,-0.583333 0.16667,-0.333334 0.25,-0.583334 0.41667,-0.666667 0.16667,-0.166667 0.41667,-0.25 0.75,-0.333333 0.33333,-0.08333 0.91667,-0.08333 1.5,-0.166667 v 0 h 0.0833 c 0.0833,0 0.25,0 0.41667,0.08333 0.25,0.08333 0.5,0.333334 0.75,0.583334 0.0833,0.08333 0.25,0.166666 0.33333,0.333333 0.0833,0.08333 0.0833,0.08333 0.25,0.166667 0.0833,0.08333 0.25,0.166666 0.5,0.166666 h 0.16667 c 0.16667,0 0.16667,-0.08333 0.25,-0.08333 0.0833,-0.08333 0.0833,-0.08333 0.16667,-0.08333 l 0.0833,-0.08333 0.0833,-0.08333 v 0 c 0.16667,-0.166667 0.91667,-1.166667 1.75,-2.25 0.41667,-0.5 0.83334,-1.083333 1.25,-1.5 0.16667,-0.25 0.41667,-0.416667 0.5,-0.5 0.16667,-0.166667 0.25,-0.25 0.33334,-0.25 C 196.58333,57.75 197.25,57.666667 198,57.416667 198.75,57.25 199.66667,57 200.58333,56.333333 c 0.25,-0.166666 0.41667,-0.416666 0.33334,-0.75 0,-0.166666 -0.0833,-0.25 -0.16667,-0.416666 0.25,-0.08333 0.41667,-0.08333 0.66667,-0.166667 0.33333,-0.08333 0.66666,-0.25 0.91666,-0.416667 0.16667,-0.08333 0.33334,-0.25 0.41667,-0.416666 C 202.8333,54 202.91667,53.75 202.91667,53.5 v 0 0 c 0,-0.333333 -0.16667,-0.583333 -0.5,-0.75 0,-0.08333 -0.0833,-0.08333 -0.16667,-0.166667 -0.16667,-0.25 -0.33333,-0.5 -0.41667,-0.75 0,-0.08333 -0.0833,-0.08333 -0.0833,-0.166666 v -0.333334 -0.08333 c 2.5,1.083333 5.02858,2.313797 6.94525,4.230464 4.41666,3.416667 6.63808,9.352869 6.63808,15.519536 0,6.166667 -2.5,11.75 -6.5,15.833333 z M 187.16667,64.416667 c 0.16666,-0.08333 0.25,-0.08333 0.41666,-0.166667 -0.0833,0.08333 -0.0833,0.166667 -0.0833,0.25 -0.16667,0 -0.25,0 -0.33333,-0.08333 z m 12.08333,6 c 0.0833,0.166666 0.25,0.25 0.33333,0.333333 0.0833,0.08333 0.16667,0.08333 0.25,0.166667 0.16667,0.08333 0.25,0.08333 0.41667,0.166666 0.5,0.166667 1.16667,0.25 1.83333,0.416667 0.33334,0.08333 0.58334,0.166667 0.83334,0.166667 0.0833,0 0.16666,0.08333 0.25,0.08333 h 0.0833 c 0.41667,0.333333 0.58333,0.583333 0.75,0.833333 0.16667,0.25 0.16667,0.5 0.16667,0.833334 0,0.333333 -0.0833,0.833333 -0.33334,1.333333 -0.25,0.5 -0.58333,1.083333 -1,1.75 -0.0833,0.08333 -0.25,0.25 -0.5,0.416667 C 201.58333,77.5 200.5,78.5 200.41667,78.583333 199.75,79.166667 199.5,79.75 199.33333,80 l -0.16666,0.166667 c -0.0833,0 -0.16667,0.08333 -0.41667,0.08333 h -0.16667 v 0 c -0.33333,0 -0.66666,0.25 -0.75,0.5 -0.0833,0.166667 -0.0833,0.25 -0.0833,0.333333 v 0.25 0.333334 c 0,0.333333 0,0.583333 -0.0833,0.666666 l -0.0833,0.08333 h -0.16666 -0.33334 -0.16666 c -0.33334,0 -0.58334,0.166666 -0.75,0.416666 -0.16667,0.333334 -0.0833,0.75 0.16666,1 0,0 0,0.08333 0.0833,0.166667 0.0833,0.25 0.25,0.833333 0.25,1.333333 v 0.333334 c -0.25,-0.333334 -0.58334,-0.833334 -0.75,-1.333334 -0.41667,-0.833333 -0.66667,-1.75 -0.75,-2.5 v 0 c -0.0833,-0.5 -0.0833,-1.166666 -0.0833,-1.833333 V 79.41666 c 0,-0.583334 0,-1.166667 -0.0833,-1.75 -0.0833,-0.583334 -0.25,-1.166667 -0.5,-1.75 -0.25,-0.5 -0.58333,-0.833334 -0.91667,-1.166667 -0.5,-0.416667 -1,-0.75 -1.41666,-1.083333 -0.41677,-0.33333 -0.7501,-0.666663 -0.91677,-1.08333 -0.25,-0.5 -0.33333,-1 -0.33333,-1.583333 0,-1 0.41666,-2 0.91666,-2.75 0.25,-0.333333 0.58334,-0.666667 0.91667,-0.833333 0.33333,-0.166667 0.58333,-0.25 0.83333,-0.25 v 0 c 0.91667,0 1.91667,0.333333 3,0.833333 1,0.416667 1.91667,1.083333 2.75,1.583333 0,0.08333 -0.0833,0.25 -0.0833,0.333334 -0.16667,0.166666 -0.0833,0.333333 0,0.5 z" />
              <path
                 style="mix-blend-mode: multiply;"
                 id="path361"
                 d="M735.547651,297.541748 L741.315623,291.780583 C741.399216,291.697087 741.399216,291.697087 741.48281,291.613592 L746.33125,286.770874 C746.749219,286.353398 747,285.768932 747,285.184466 C747,284.6 746.749219,284.015534 746.33125,283.598058 L739.392966,276.667961 C738.974997,276.250485 738.38984,276 737.804684,276 C737.804684,276 737.804684,276 737.804684,276 C737.804684,276 737.804684,276 737.804684,276 C737.219527,276 736.634371,276.250485 736.216402,276.667961 L736.216402,276.667961 L731.200775,281.67767 L731.200775,281.67767 L725.432803,287.438835 C722.92499,284.933981 720.417176,282.345631 718.578113,280.341748 C717.658581,279.339806 716.822643,278.504854 716.321081,277.920388 C715.735924,277.335922 715.485143,277.001942 715.485143,277.001942 L715.485143,277.001942 C714.899986,276.417476 714.231236,276.16699 713.64608,276.16699 C713.64608,276.16699 713.64608,276.16699 713.64608,276.16699 C713.228111,276.16699 712.810142,276.250485 712.475767,276.417476 C712.141391,276.584466 711.89061,276.751456 711.639829,277.001942 L704.952326,283.681553 C704.367169,284.266019 704.116388,284.933981 704.116388,285.601942 C704.116388,286.436893 704.450763,287.104854 704.952326,287.52233 L704.952326,287.52233 C704.952326,287.52233 705.286701,287.856311 705.871858,288.440777 C707.627327,290.11068 711.472641,293.951456 715.317955,297.708738 L708.379671,304.638835 C708.296077,304.72233 708.212484,304.805825 708.212484,304.972816 L704.032794,317.914563 C703.9492,318.248544 704.032794,318.499029 704.199982,318.749515 C704.367169,318.916505 704.617951,319 704.785138,319 C704.868732,319 704.952326,319 705.03592,319 L718.327332,315.075728 C718.494519,315.075728 718.578113,314.992233 718.661707,314.825243 L725.516397,307.978641 C727.940617,310.4 730.44843,312.98835 732.371088,314.908738 C733.374213,315.91068 734.126557,316.745631 734.711714,317.330097 C735.29687,317.914563 735.631245,318.248544 735.631245,318.248544 L735.631245,318.248544 C736.132808,318.749515 736.885152,319 737.470308,319 C737.470308,319 737.470308,319 737.470308,319 C738.222653,319 738.891403,318.749515 739.392966,318.248544 L739.392966,318.248544 L746.080468,311.485437 L746.080468,311.485437 C746.582031,310.984466 746.749219,310.4 746.832812,309.732039 C746.832812,309.231068 746.665625,308.646602 746.247656,308.229126 C746.080468,308.062136 740.563279,302.551456 735.547651,297.541748 Z M737.303121,277.836893 L737.303121,277.836893 C737.386715,277.753398 737.553902,277.669903 737.72109,277.669903 C737.888277,277.669903 737.971871,277.753398 738.139059,277.836893 L745.077343,284.76699 C745.160937,284.850485 745.244531,285.017476 745.244531,285.184466 C745.244531,285.351456 745.160937,285.434951 745.077343,285.601942 L740.730466,289.943689 L732.956244,282.178641 L737.303121,277.836893 Z M716.321081,309.231068 L713.478892,309.231068 L713.478892,306.392233 L734.126557,285.768932 L737.135933,288.774757 L716.321081,309.231068 Z M712.726548,292.699029 L714.732799,290.695146 L713.562486,289.526214 L711.556235,291.530097 C710.469516,290.528155 709.549984,289.526214 708.714046,288.774757 L713.395298,284.099029 L712.224985,282.930097 L707.543733,287.605825 C706.707795,286.770874 706.206233,286.269903 706.122639,286.186408 L706.122639,286.186408 C705.955451,286.019417 705.788264,285.685437 705.788264,285.434951 C705.788264,285.184466 705.871858,285.017476 706.122639,284.76699 L712.810142,278.087379 C712.893736,278.003883 713.060923,277.920388 713.144517,277.836893 C713.311704,277.753398 713.395298,277.753398 713.562486,277.753398 C713.729673,277.753398 713.980455,277.836893 714.31483,278.087379 L714.31483,278.087379 C714.732799,278.504854 719.414051,283.681553 724.346084,288.607767 L716.488268,296.456311 C715.150768,295.120388 713.896861,293.867961 712.726548,292.699029 Z M731.785931,283.431068 L732.956244,284.6 L712.475767,305.056311 L710.55311,304.638835 L731.785931,283.431068 Z M705.955451,316.745631 L709.46639,306.058252 L711.89061,306.559223 L711.89061,309.982524 C711.89061,310.23301 711.974204,310.4 712.141391,310.56699 C712.308579,310.733981 712.475767,310.817476 712.726548,310.817476 L716.070299,310.817476 L716.822643,313.48932 L705.955451,316.745631 Z M718.243738,312.570874 L717.574987,310.316505 L738.306246,289.943689 L739.560153,291.196117 L718.243738,312.570874 Z M744.826562,310.149515 L744.826562,310.149515 L738.139059,316.912621 C738.055465,316.996117 737.72109,317.163107 737.386715,317.163107 C737.386715,317.163107 737.386715,317.163107 737.386715,317.163107 C737.135933,317.163107 736.885152,317.079612 736.717964,316.912621 C736.634371,316.829126 736.132808,316.328155 735.29687,315.409709 L740.061716,310.650485 L738.891403,309.481553 L734.126557,314.240777 C733.290619,313.405825 732.371088,312.403883 731.367962,311.401942 L733.374213,309.398058 L732.2039,308.229126 L730.197649,310.23301 C729.027336,309.064078 727.857023,307.81165 726.68671,306.642718 L734.460932,298.794175 C736.885152,301.215534 739.476559,303.803883 741.48281,305.807767 C743.489061,307.81165 744.910155,309.231068 744.910155,309.231068 C744.993749,309.314563 744.993749,309.398058 744.993749,309.565049 C745.077343,309.732039 744.910155,309.982524 744.826562,310.149515 Z" />
              <path
                 style="mix-blend-mode: multiply;"
                 id="path363"
                 d="M566.5,223 L566.606467,223.009943 C566.818433,223.049232 567.021689,223.202023 567.163968,223.415929 C569.321862,226.077876 572.558704,227.824779 576.293522,227.824779 L576.293522,227.824779 L576.680392,227.818417 C579.763284,227.716837 582.564696,226.403965 585.672065,224.247788 C585.838057,224.164602 586.004049,224.081416 586.17004,224.081416 C586.336032,224.081416 586.502024,224.081416 586.58502,224.164602 C586.834008,224.330973 587,224.580531 587,224.913274 L587,224.913274 L587,254.277876 C586.917004,254.444248 586.17004,257.106195 583.265182,260.433628 C580.360324,263.761062 575.297571,267.587611 566.748988,270 L566.748988,270 L566.251012,270 C557.702429,267.587611 552.639676,263.761062 549.734818,260.433628 C546.82996,257.106195 546,254.361062 546,254.277876 L546,254.277876 L546,224.830088 C546,224.497345 546.165992,224.247788 546.41498,224.081416 C546.580972,223.99823 546.663968,223.99823 546.82996,223.99823 C546.995951,223.99823 547.161943,224.081416 547.327935,224.164602 C550.481781,226.410619 553.469636,227.741593 556.706478,227.741593 C560.3583,227.741593 563.678138,225.99469 565.836032,223.332743 C566.002024,223.083186 566.251012,223 566.5,223 L566.5,223 Z M566.5,225.079646 C564.093117,227.741593 560.607287,229.40531 556.706478,229.40531 C553.469636,229.40531 550.564777,228.240708 547.659919,226.410619 L547.659919,226.410619 L547.659919,254.028319 C547.659919,254.028319 547.659919,254.19469 547.742915,254.277876 C547.825911,254.527434 547.991903,254.943363 548.240891,255.442478 C548.738866,256.440708 549.651822,257.854867 550.979757,259.352212 C553.635628,262.346903 558.366397,266.00708 566.5,268.336283 C574.467611,266.00708 579.115385,262.430088 581.854251,259.435398 C584.34413,256.690265 585.174089,254.444248 585.340081,253.945133 L585.340081,253.945133 L585.340081,226.410619 C582.435223,228.240708 579.530364,229.40531 576.293522,229.40531 L576.293522,229.40531 L575.912872,229.399789 C572.244426,229.293286 568.906883,227.652861 566.5,225.079646 Z M570.483806,234.895575 C570.649798,234.895575 570.898785,234.978761 571.064777,235.145133 C571.230769,235.311504 571.313765,235.477876 571.313765,235.727434 L571.313765,235.727434 L571.313765,240.80177 L576.376518,240.80177 L576.49448,240.808702 C576.680837,240.831809 576.819163,240.912684 576.95749,241.051327 C577.123482,241.217699 577.206478,241.384071 577.206478,241.633628 L577.206478,241.633628 L577.206478,249.536283 C577.206478,249.785841 577.123482,249.952212 576.95749,250.118584 C576.791498,250.284956 576.625506,250.368142 576.376518,250.368142 L576.376518,250.368142 L571.313765,250.368142 L571.313765,255.442478 C571.313765,255.692035 571.230769,255.858407 571.064777,256.024779 C570.898785,256.19115 570.732794,256.274336 570.483806,256.274336 L570.483806,256.274336 L562.59919,256.274336 C562.350202,256.274336 562.184211,256.19115 562.018219,256.024779 C561.852227,255.858407 561.769231,255.692035 561.769231,255.442478 L561.769231,255.442478 L561.769231,250.368142 L556.706478,250.368142 C556.45749,250.368142 556.291498,250.284956 556.125506,250.118584 C555.959514,249.952212 555.876518,249.785841 555.876518,249.536283 L555.876518,249.536283 L555.876518,241.633628 C555.876518,241.384071 555.959514,241.217699 556.125506,241.051327 C556.291498,240.884956 556.45749,240.80177 556.706478,240.80177 L556.706478,240.80177 L561.769231,240.80177 L561.769231,235.727434 C561.769231,235.477876 561.852227,235.311504 562.018219,235.145133 C562.184211,234.978761 562.350202,234.895575 562.59919,234.895575 L562.59919,234.895575 Z M569.653846,236.559292 L563.42915,236.559292 L563.42915,241.633628 C563.42915,241.883186 563.346154,242.049558 563.180162,242.215929 C563.01417,242.382301 562.848178,242.465487 562.59919,242.465487 L562.59919,242.465487 L557.536437,242.465487 L557.536437,248.704425 L562.59919,248.704425 C562.848178,248.704425 563.01417,248.787611 563.180162,248.953982 C563.346154,249.120354 563.42915,249.286726 563.42915,249.536283 L563.42915,249.536283 L563.42915,254.610619 L569.653846,254.610619 L569.653846,249.536283 C569.653846,249.286726 569.736842,249.120354 569.902834,248.953982 C570.068826,248.787611 570.234818,248.704425 570.483806,248.704425 L570.483806,248.704425 L575.546559,248.704425 L575.546559,242.465487 L570.483806,242.465487 C570.234818,242.465487 570.068826,242.382301 569.902834,242.215929 C569.736842,242.049558 569.653846,241.883186 569.653846,241.633628 L569.653846,241.633628 L569.653846,236.559292 Z" />
              <use
                 height="100%"
                 width="100%"
                 transform="translate(541,-67)"
                 id="use394"
                 xlink:href="#path351"
                 y="0"
                 x="0" />
              <use
                 transform="translate(621.00003,-8)"
                 height="100%"
                 width="100%"
                 id="use396"
                 xlink:href="#path357"
                 y="0"
                 x="0" />
              <use
                 height="100%"
                 width="100%"
                 transform="translate(600,46)"
                 id="use398"
                 xlink:href="#Shape"
                 y="0"
                 x="0" />
              <use
                 height="100%"
                 width="100%"
                 transform="translate(621,12)"
                 id="use402"
                 xlink:href="#path344"
                 y="0"
                 x="0" />
            </g>
          </g>
        </g>
        <g
           fill-rule="nonzero"
           transform="translate(137.000000, 85.000000)"
           id="Group-14">
          <path
             fill="#003147"
             id="TheServer"
             d="M25.872,19.736 L25.104,25.784 L16.896,25.784 L16.896,53 L9.024,53 L9.024,25.784 L0.432,25.784 L0.432,19.736 L25.872,19.736 Z M43.824,26.696 C46.032011,26.696 47.7599938,27.3679933 49.008,28.712 C50.2560062,30.0560067 50.88,31.9439878 50.88,34.376 L50.88,53 L43.296,53 L43.296,35.672 C43.296,34.3919936 43.0880021,33.5040025 42.672,33.008 C42.2559979,32.5119975 41.6640038,32.264 40.896,32.264 C39.3599923,32.264 37.888007,33.3519891 36.48,35.528 L36.48,53 L28.896,53 L28.896,17.384 L36.48,16.616 L36.48,30.248 C37.5360053,29.0639941 38.6559941,28.176003 39.84,27.584 C41.0240059,26.991997 42.3519926,26.696 43.824,26.696 Z M78.816,39.752 C78.816,40.8080053 78.7680005,41.7199962 78.672,42.488 L62.88,42.488 C63.1360013,44.6320107 63.7439952,46.1359957 64.704,47 C65.6640048,47.8640043 66.9919915,48.296 68.688,48.296 C69.7120051,48.296 70.7039952,48.1120018 71.664,47.744 C72.6240048,47.3759982 73.6639944,46.8080038 74.784,46.04 L77.904,50.264 C74.9279851,52.6320118 71.6160182,53.816 67.968,53.816 C63.8399794,53.816 60.672011,52.6000122 58.464,50.168 C56.255989,47.7359878 55.152,44.4720205 55.152,40.376 C55.152,37.783987 55.6159954,35.4560103 56.544,33.392 C57.4720046,31.3279897 58.831991,29.696 60.624,28.496 C62.416009,27.295994 64.5599875,26.696 67.056,26.696 C70.7360184,26.696 73.6159896,27.8479885 75.696,30.152 C77.7760104,32.4560115 78.816,35.6559795 78.816,39.752 Z M71.376,37.592 C71.3119997,33.6879805 69.9360134,31.736 67.248,31.736 C65.9359934,31.736 64.9200036,32.2159952 64.2,33.176 C63.4799964,34.1360048 63.0400008,35.719989 62.88,37.928 L71.376,37.928 L71.376,37.592 Z M389.712,18.92 C392.208012,18.92 394.375991,19.2719965 396.216,19.976 C398.056009,20.6800035 399.727992,21.7519928 401.232,23.192 L397.584,27.464 C395.311989,25.6079907 392.880013,24.68 390.288,24.68 C388.911993,24.68 387.824004,24.9599972 387.024,25.52 C386.223996,26.0800028 385.824,26.8879947 385.824,27.944 C385.824,28.6800037 385.999998,29.2799977 386.352,29.744 C386.704002,30.2080023 387.327996,30.6479979 388.224,31.064 C389.120004,31.4800021 390.463991,31.9759971 392.256,32.552 C395.648017,33.6400054 398.143992,34.9759921 399.744,36.56 C401.344008,38.1440079 402.144,40.3919854 402.144,43.304 C402.144,45.3840104 401.616005,47.2159921 400.56,48.8 C399.503995,50.3840079 397.98401,51.6159956 396,52.496 C394.01599,53.3760044 391.664014,53.816 388.944,53.816 C386.223986,53.816 383.81601,53.3840043 381.72,52.52 C379.62399,51.6559957 377.824008,50.5040072 376.32,49.064 L380.304,44.696 C381.584006,45.7840054 382.903993,46.5999973 384.264,47.144 C385.624007,47.6880027 387.103992,47.96 388.704,47.96 C390.336008,47.96 391.623995,47.6000036 392.568,46.88 C393.512005,46.1599964 393.984,45.1600064 393.984,43.88 C393.984,43.0479958 393.808002,42.3520028 393.456,41.792 C393.103998,41.2319972 392.496004,40.7280022 391.632,40.28 C390.767996,39.8319978 389.520008,39.3520026 387.888,38.84 C384.207982,37.7199944 381.592008,36.3440082 380.04,34.712 C378.487992,33.0799918 377.712,31.0160125 377.712,28.52 C377.712,26.5999904 378.223995,24.9120073 379.248,23.456 C380.272005,21.9999927 381.695991,20.8800039 383.52,20.096 C385.344009,19.3119961 387.407988,18.92 389.712,18.92 Z M428.544,39.752 C428.544,40.8080053 428.496,41.7199962 428.4,42.488 L412.608,42.488 C412.864001,44.6320107 413.471995,46.1359957 414.432,47 C415.392005,47.8640043 416.719992,48.296 418.416,48.296 C419.440005,48.296 420.431995,48.1120018 421.392,47.744 C422.352005,47.3759982 423.391994,46.8080038 424.512,46.04 L427.632,50.264 C424.655985,52.6320118 421.344018,53.816 417.696,53.816 C413.567979,53.816 410.400011,52.6000122 408.192,50.168 C405.983989,47.7359878 404.88,44.4720205 404.88,40.376 C404.88,37.783987 405.343995,35.4560103 406.272,33.392 C407.200005,31.3279897 408.559991,29.696 410.352,28.496 C412.144009,27.295994 414.287988,26.696 416.784,26.696 C420.464018,26.696 423.34399,27.8479885 425.424,30.152 C427.50401,32.4560115 428.544,35.6559795 428.544,39.752 Z M421.104,37.592 C421.04,33.6879805 419.664013,31.736 416.976,31.736 C415.663993,31.736 414.648004,32.2159952 413.928,33.176 C413.207996,34.1360048 412.768001,35.719989 412.608,37.928 L421.104,37.928 L421.104,37.592 Z M446.64,26.792 C447.568005,26.792 448.415996,26.9039989 449.184,27.128 L447.984,34.472 C447.023995,34.2479989 446.256003,34.136 445.68,34.136 C444.175992,34.136 443.032004,34.6559948 442.248,35.696 C441.463996,36.7360052 440.848002,38.2959896 440.4,40.376 L440.4,53 L432.816,53 L432.816,27.512 L439.44,27.512 L440.064,32.456 C440.640003,30.6959912 441.511994,29.312005 442.68,28.304 C443.848006,27.295995 445.167993,26.792 446.64,26.792 Z M474,27.512 L465.984,53 L457.008,53 L448.8,27.512 L457.056,27.512 L461.568,47.24 L466.272,27.512 L474,27.512 Z M498.912,39.752 C498.912,40.8080053 498.864,41.7199962 498.768,42.488 L482.976,42.488 C483.232001,44.6320107 483.839995,46.1359957 484.8,47 C485.760005,47.8640043 487.087992,48.296 488.784,48.296 C489.808005,48.296 490.799995,48.1120018 491.76,47.744 C492.720005,47.3759982 493.759994,46.8080038 494.88,46.04 L498,50.264 C495.023985,52.6320118 491.712018,53.816 488.064,53.816 C483.935979,53.816 480.768011,52.6000122 478.56,50.168 C476.351989,47.7359878 475.248,44.4720205 475.248,40.376 C475.248,37.783987 475.711995,35.4560103 476.64,33.392 C477.568005,31.3279897 478.927991,29.696 480.72,28.496 C482.512009,27.295994 484.655988,26.696 487.152,26.696 C490.832018,26.696 493.71199,27.8479885 495.792,30.152 C497.87201,32.4560115 498.912,35.6559795 498.912,39.752 Z M491.472,37.592 C491.408,33.6879805 490.032013,31.736 487.344,31.736 C486.031993,31.736 485.016004,32.2159952 484.296,33.176 C483.575996,34.1360048 483.136001,35.719989 482.976,37.928 L491.472,37.928 L491.472,37.592 Z M517.008,26.792 C517.936005,26.792 518.783996,26.9039989 519.552,27.128 L518.352,34.472 C517.391995,34.2479989 516.624003,34.136 516.048,34.136 C514.543992,34.136 513.400004,34.6559948 512.616,35.696 C511.831996,36.7360052 511.216002,38.2959896 510.768,40.376 L510.768,53 L503.184,53 L503.184,27.512 L509.808,27.512 L510.432,32.456 C511.008003,30.6959912 511.879994,29.312005 513.048,28.304 C514.216006,27.295995 515.535993,26.792 517.008,26.792 Z" />
          <g
             transform="translate(100.350000, 0.218121)"
             id="Logo/Wordmark-dark">
            <path
               fill="#00A6E2"
               id="path370"
               d="M91.6141732,39.9411765 C90.8976378,40.6617647 89.976378,41.3823529 88.9527559,42.2058824 C87.9291339,43.0294118 86.8031496,43.75 85.6771654,44.3676471 C84.5511811,44.9852941 83.3228346,45.6029412 82.0944882,46.0147059 C80.8661417,46.4264706 79.6377953,46.7352941 78.6141732,46.7352941 C78.3070866,46.7352941 77.8976378,46.7352941 77.5905512,46.6323529 C77.2834646,46.5294118 76.976378,46.4264706 76.6692913,46.2205882 C76.3622047,46.0147059 76.1574803,45.8088235 75.8503937,45.3970588 C75.5433071,44.9852941 75.3385827,44.6764706 75.0314961,44.1617647 C76.6692913,43.75 78.1023622,43.1323529 79.5354331,42.3088235 C80.8661417,41.4852941 82.0944882,40.5588235 83.1181102,39.5294118 C84.1417323,38.5 84.8582677,37.3676471 85.4724409,36.2352941 C86.0866142,35.1029412 86.2913386,33.9705882 86.2913386,32.7352941 C86.2913386,31.7058824 86.0866142,30.6764706 85.7795276,29.8529412 C85.3700787,29.0294118 84.8582677,28.3088235 84.2440945,27.6911765 C83.6299213,27.0735294 82.8110236,26.6617647 81.8897638,26.25 C80.9685039,25.8382353 80.0472441,25.7352941 79.023622,25.7352941 C77.6929134,25.7352941 76.5669291,25.9411765 75.5433071,26.4558824 C74.519685,26.8676471 73.5984252,27.4852941 72.6771654,28.3088235 C71.8582677,29.1323529 71.1417323,29.9558824 70.4251969,30.9852941 C69.8110236,32.0147059 69.2992126,33.0441176 68.8897638,34.1764706 C68.480315,35.3088235 68.1732283,36.4411765 67.9685039,37.5735294 C67.7637795,38.7058824 67.6614173,39.8382353 67.6614173,40.8676471 C67.6614173,41.0735294 67.6614173,41.3823529 67.6614173,41.5882353 C67.4566929,41.6911765 67.2519685,41.8970588 67.0472441,42 C66.023622,42.8235294 64.8976378,43.5441176 63.7716535,44.1617647 C62.6456693,44.7794118 61.4173228,45.3970588 60.1889764,45.8088235 C58.9606299,46.2205882 57.7322835,46.5294118 56.7086614,46.5294118 C56.4015748,46.5294118 55.992126,46.5294118 55.6850394,46.4264706 C55.3779528,46.3235294 55.0708661,46.2205882 54.7637795,46.0147059 C54.4566929,45.8088235 54.2519685,45.6029412 53.9448819,45.1911765 C53.6377953,44.7794118 53.4330709,44.4705882 53.1259843,43.9558824 C54.7637795,43.5441176 56.1968504,42.9264706 57.6299213,42.1029412 C58.9606299,41.2794118 60.1889764,40.3529412 61.2125984,39.3235294 C62.2362205,38.2941176 62.9527559,37.1617647 63.5669291,36.0294118 C64.1811024,34.8970588 64.3858268,33.7647059 64.3858268,32.5294118 C64.3858268,31.5 64.1811024,30.4705882 63.8740157,29.6470588 C63.4645669,28.8235294 62.9527559,28.1029412 62.3385827,27.4852941 C61.7244094,26.8676471 60.9055118,26.4558824 59.984252,26.0441176 C59.0629921,25.6323529 58.1417323,25.5294118 57.1181102,25.5294118 C55.7874016,25.5294118 54.6614173,25.7352941 53.6377953,26.25 C52.6141732,26.6617647 51.6929134,27.2794118 50.7716535,28.1029412 C49.9527559,28.9264706 49.2362205,29.75 48.519685,30.7794118 C47.9055118,31.8088235 47.3937008,32.8382353 46.984252,33.9705882 C46.5748031,35 46.2677165,36.1323529 46.0629921,37.1617647 C45.8582677,37.2647059 45.6535433,37.3676471 45.4488189,37.4705882 C44.5275591,37.8823529 43.7086614,37.9852941 42.8897638,37.9852941 C42.5826772,37.9852941 42.2755906,37.8823529 42.0708661,37.7794118 C41.7637795,37.6764706 41.5590551,37.4705882 41.3543307,37.1617647 C41.1496063,36.8529412 40.9448819,36.5441176 40.8425197,36.1323529 C40.7401575,35.7205882 40.6377953,35.1029412 40.6377953,34.4852941 C40.6377953,34.0735294 40.6377953,33.5588235 40.7401575,33.0441176 C40.8425197,32.4264706 40.9448819,31.8088235 41.0472441,31.1911765 C41.1496063,30.5735294 41.2519685,29.9558824 41.3543307,29.4411765 C41.4566929,28.8235294 41.4566929,28.4117647 41.4566929,28.1029412 C41.4566929,27.6911765 41.3543307,27.2794118 41.2519685,26.9705882 C41.1496063,26.6617647 40.9448819,26.3529412 40.6377953,26.1470588 C40.4330709,25.9411765 40.1259843,25.7352941 39.7165354,25.6323529 C39.4094488,25.5294118 39,25.4264706 38.6929134,25.4264706 C37.6692913,25.4264706 36.7480315,25.7352941 36.0314961,26.25 C35.2125984,26.7647059 34.5984252,27.4852941 33.984252,28.3088235 C33.3700787,29.1323529 32.8582677,29.9558824 32.3464567,30.8823529 C31.8346457,31.8088235 31.4251969,32.6323529 31.1181102,33.3529412 L30.8110236,33.3529412 C30.8110236,32.4264706 30.7086614,31.3970588 30.7086614,30.4705882 C30.7086614,29.5441176 30.7086614,28.6176471 30.7086614,28 C30.7086614,27.3823529 30.7086614,26.9705882 30.7086614,26.6617647 C30.7086614,26.3529412 30.6062992,26.0441176 30.503937,25.9411765 C30.4015748,25.7352941 30.1968504,25.6323529 29.8897638,25.6323529 C29.5826772,25.6323529 29.2755906,25.5294118 28.7637795,25.5294118 C28.3543307,25.5294118 27.9448819,25.5294118 27.7401575,25.6323529 C27.4330709,25.6323529 27.2283465,25.7352941 27.023622,25.9411765 C26.8188976,26.0441176 26.6141732,26.25 26.511811,26.5588235 C26.4094488,26.7647059 26.2047244,27.1764706 26.1023622,27.5882353 C25.8976378,28.2058824 25.5905512,29.0294118 25.3858268,29.9558824 C25.1811024,30.8823529 24.8740157,31.9117647 24.6692913,33.0441176 C24.6692913,33.0441176 24.6692913,33.0441176 24.6692913,33.0441176 C24.2598425,33.3529412 23.7480315,33.6617647 23.2362205,33.9705882 C22.3149606,34.4852941 21.0866142,35 19.6535433,35.4117647 C18.2204724,35.8235294 16.5826772,36.0294118 14.7401575,36.0294118 C14.5354331,36.0294118 14.4330709,36.0294118 14.2283465,35.9264706 C14.1259843,35.9264706 14.023622,35.8235294 13.8188976,35.8235294 C13.7165354,35.7205882 13.6141732,35.7205882 13.4094488,35.7205882 C13.3070866,35.7205882 13.1023622,35.6176471 12.7952756,35.6176471 C12.5905512,35.6176471 12.3858268,35.6176471 12.1811024,35.7205882 C11.976378,35.8235294 11.6692913,35.9264706 11.3622047,36.1323529 L11.4645669,35.7205882 C12.5905512,34.2794118 13.7165354,32.6323529 14.8425197,30.9852941 C15.9685039,29.3382353 16.992126,27.5882353 18.015748,25.8382353 C19.0393701,24.0882353 19.9606299,22.3382353 20.7795276,20.5882353 C21.5984252,18.8382353 22.3149606,17.1911765 22.9291339,15.5441176 C23.5433071,13.8970588 24.0551181,12.3529412 24.3622047,11.0147059 C24.6692913,9.57352941 24.8740157,8.33823529 24.8740157,7.20588235 C24.8740157,5.97058824 24.6692913,4.94117647 24.2598425,4.11764706 C23.8503937,3.29411765 23.4409449,2.57352941 22.8267717,2.16176471 C22.2125984,1.75 21.5984252,1.33823529 20.8818898,1.02941176 C20.1653543,0.823529412 19.5511811,0.720588235 18.9370079,0.720588235 C17.2992126,0.720588235 15.8661417,1.23529412 14.5354331,2.16176471 C13.2047244,3.08823529 11.976378,4.42647059 10.9527559,6.07352941 C9.82677165,7.72058824 8.90551181,9.67647059 7.98425197,11.9411765 C7.06299213,14.2058824 6.34645669,16.5735294 5.62992126,19.0441176 C4.91338583,21.5147059 4.4015748,24.1911765 3.88976378,26.7647059 C3.37795276,29.4411765 2.96850394,32.0147059 2.66141732,34.5882353 C2.35433071,37.1617647 2.04724409,39.5294118 1.74015748,41.7941176 C1.43307087,44.0588235 1.33070866,46.0147059 1.22834646,47.7647059 C1.12598425,49.5147059 1.02362205,50.8529412 0.921259843,51.9852941 C0.921259843,53.0147059 0.818897638,53.6323529 0.818897638,53.7352941 C0.818897638,54.8676471 0.818897638,56.1029412 0.921259843,57.2352941 C1.02362205,58.4705882 1.12598425,59.7058824 1.33070866,60.8382353 C1.53543307,61.9705882 1.84251969,63.1029412 2.1496063,64.1323529 C2.55905512,65.1617647 2.96850394,66.0882353 3.48031496,66.9117647 C3.99212598,67.7352941 4.70866142,68.3529412 5.42519685,68.7647059 C6.14173228,69.2794118 7.06299213,69.4852941 8.08661417,69.4852941 C9.11023622,69.4852941 10.0314961,69.2794118 10.8503937,68.8676471 C11.6692913,68.4558824 12.3858268,67.8382353 13,67.2205882 C13.6141732,66.6029412 14.1259843,65.6764706 14.6377953,64.8529412 C15.1496063,63.9264706 15.4566929,63 15.8661417,62.0735294 C16.1732283,61.1470588 16.480315,60.1176471 16.6850394,59.1911765 C16.8897638,58.2647059 17.0944882,57.3382353 17.1968504,56.6176471 C17.2992126,55.7941176 17.4015748,55.1764706 17.4015748,54.6617647 C17.4015748,54.1470588 17.503937,53.7352941 17.503937,53.6323529 C17.503937,52.1911765 17.2992126,50.75 16.8897638,49.4117647 C16.480315,47.9705882 16.0708661,46.7352941 15.6614173,45.6029412 C15.1496063,44.2647059 14.5354331,43.0294118 13.8188976,41.7941176 C15.1496063,41.6911765 16.3779528,41.5882353 17.7086614,41.3823529 C18.8346457,41.1764706 20.0629921,40.8676471 21.3937008,40.5588235 C22.007874,40.3529412 22.6220472,40.1470588 23.2362205,39.9411765 C23.2362205,40.25 23.1338583,40.4558824 23.1338583,40.7647059 C22.9291339,42 22.8267717,43.1323529 22.7244094,44.2647059 C22.6220472,45.3970588 22.6220472,46.3235294 22.6220472,47.1470588 C22.6220472,47.8676471 22.6220472,48.5882353 22.7244094,49.3088235 C22.8267717,50.0294118 22.9291339,50.6470588 23.2362205,51.1617647 C23.4409449,51.6764706 23.8503937,52.1911765 24.2598425,52.5 C24.6692913,52.8088235 25.3858268,53.0147059 26.1023622,53.0147059 C26.4094488,53.0147059 26.7165354,52.9117647 27.023622,52.8088235 C27.3307087,52.7058824 27.5354331,52.5 27.8425197,52.1911765 C28.1496063,51.8823529 28.3543307,51.4705882 28.5590551,51.0588235 C28.7637795,50.5441176 29.0708661,50.0294118 29.2755906,49.2058824 L34.2913386,35.2058824 L34.7007874,35.2058824 C34.8031496,36.3382353 35.007874,37.5735294 35.3149606,38.7058824 C35.519685,39.8382353 35.9291339,40.8676471 36.4409449,41.7941176 C36.9527559,42.7205882 37.6692913,43.4411765 38.488189,44.0588235 C39.3070866,44.6764706 40.4330709,44.8823529 41.8661417,44.8823529 C42.6850394,44.8823529 43.4015748,44.7794118 44.1181102,44.5735294 C44.7322835,44.3676471 45.2440945,44.1617647 45.8582677,43.9558824 C45.9606299,44.5735294 46.0629921,45.1911765 46.2677165,45.8088235 C46.6771654,47.25 47.3937008,48.4852941 48.2125984,49.5147059 C49.1338583,50.5441176 50.1574803,51.4705882 51.488189,52.0882353 C52.8188976,52.7058824 54.3543307,53.0147059 56.0944882,53.0147059 C57.2204724,53.0147059 58.3464567,52.9117647 59.3700787,52.6029412 C60.496063,52.3970588 61.519685,51.9852941 62.5433071,51.5735294 C63.5669291,51.1617647 64.488189,50.6470588 65.4094488,50.1323529 C66.3307087,49.6176471 67.1496063,49 67.9685039,48.4852941 C68.2755906,48.2794118 68.6850394,47.9705882 68.992126,47.7647059 C69.2992126,48.3823529 69.7086614,49 70.1181102,49.5147059 C71.0393701,50.5441176 72.0629921,51.4705882 73.3937008,52.0882353 C74.7244094,52.7058824 76.2598425,53.0147059 78,53.0147059 C79.1259843,53.0147059 80.2519685,52.9117647 81.2755906,52.6029412 C82.4015748,52.3970588 83.4251969,51.9852941 84.4488189,51.5735294 C85.4724409,51.1617647 86.3937008,50.6470588 87.3149606,50.1323529 C88.2362205,49.6176471 89.0551181,49 89.8740157,48.4852941 C91.7165354,47.1470588 93.4566929,45.7058824 95.0944882,43.9558824 L91.6141732,39.9411765 Z M10.5433071,26.5588235 C10.6456693,25.3235294 10.8503937,23.9852941 11.2598425,22.3382353 C11.5669291,20.7941176 12.0787402,18.9411765 12.6929134,16.8823529 C13.3070866,14.8235294 14.1259843,12.4558824 15.2519685,9.77941176 C15.5590551,8.85294118 15.9685039,8.13235294 16.480315,7.72058824 C16.8897638,7.30882353 17.6062992,7 18.4251969,7 C18.9370079,7 19.2440945,7.20588235 19.5511811,7.72058824 C19.8582677,8.13235294 19.9606299,8.85294118 19.9606299,9.88235294 C19.9606299,10.6029412 19.6535433,11.6323529 19.0393701,12.9705882 C18.4251969,14.3088235 17.7086614,15.9558824 16.7874016,17.7058824 C15.8661417,19.4558824 14.8425197,21.4117647 13.7165354,23.4705882 C12.5905512,25.5294118 11.4645669,27.6911765 10.3385827,29.8529412 C10.3385827,28.8235294 10.4409449,27.6911765 10.5433071,26.5588235 Z M11.6692913,57.3382353 C11.5669291,58.3676471 11.4645669,59.3970588 11.2598425,60.2205882 C11.0551181,61.1470588 10.7480315,61.8676471 10.4409449,62.3823529 C10.0314961,63 9.51968504,63.2058824 8.90551181,63.2058824 C8.7007874,63.2058824 8.49606299,63.1029412 8.29133858,62.7941176 C8.08661417,62.5882353 7.88188976,61.9705882 7.77952756,61.1470588 C7.57480315,60.3235294 7.47244094,59.0882353 7.37007874,57.4411765 C7.26771654,55.7941176 7.26771654,53.6323529 7.26771654,50.8529412 C7.26771654,50.4411765 7.26771654,49.9264706 7.37007874,49.2058824 C7.37007874,48.4852941 7.47244094,47.7647059 7.47244094,47.0441176 C7.47244094,46.3235294 7.57480315,45.3970588 7.67716535,44.5735294 C7.77952756,43.75 7.77952756,43.0294118 7.88188976,42.3088235 C7.98425197,41.6911765 8.08661417,41.0735294 8.18897638,40.6617647 C8.29133858,40.25 8.39370079,40.0441176 8.39370079,40.0441176 C8.5984252,40.0441176 8.90551181,40.25 9.11023622,40.7647059 C9.31496063,41.2794118 9.62204724,41.8970588 9.82677165,42.7205882 C10.0314961,43.5441176 10.3385827,44.4705882 10.5433071,45.5 C10.7480315,46.5294118 10.9527559,47.5588235 11.1574803,48.5882353 C11.3622047,49.6176471 11.4645669,50.6470588 11.5669291,51.5735294 C11.6692913,52.5 11.7716535,53.3235294 11.7716535,53.9411765 C11.7716535,55.2794118 11.7716535,56.3088235 11.6692913,57.3382353 Z M52.511811,38.0882353 C52.511811,37.4705882 52.6141732,36.9558824 52.7165354,36.3382353 C52.8188976,35.7205882 53.023622,35.1029412 53.2283465,34.4852941 C53.4330709,33.8676471 53.7401575,33.3529412 54.1496063,32.8382353 C54.5590551,32.3235294 54.9685039,32.0147059 55.5826772,31.7058824 C56.1968504,31.3970588 56.8110236,31.2941176 57.6299213,31.2941176 C58.0393701,31.2941176 58.4488189,31.6029412 58.7559055,32.1176471 C59.0629921,32.6323529 59.1653543,33.3529412 59.1653543,34.1764706 C59.1653543,34.7941176 58.9606299,35.4117647 58.4488189,36.0294118 C57.9370079,36.6470588 57.4251969,37.2647059 56.7086614,37.7794118 C55.992126,38.2941176 55.2755906,38.8088235 54.5590551,39.1176471 C53.7401575,39.4264706 53.023622,39.6323529 52.4094488,39.6323529 C52.511811,39.1176471 52.511811,38.6029412 52.511811,38.0882353 Z M74.4173228,38.0882353 C74.4173228,37.4705882 74.519685,36.9558824 74.6220472,36.3382353 C74.7244094,35.7205882 74.9291339,35.1029412 75.1338583,34.4852941 C75.3385827,33.8676471 75.6456693,33.3529412 76.0551181,32.8382353 C76.4645669,32.3235294 76.8740157,32.0147059 77.488189,31.7058824 C78.1023622,31.3970588 78.7165354,31.2941176 79.5354331,31.2941176 C79.9448819,31.2941176 80.3543307,31.6029412 80.6614173,32.1176471 C80.9685039,32.6323529 81.0708661,33.3529412 81.0708661,34.1764706 C81.0708661,34.7941176 80.8661417,35.4117647 80.3543307,36.0294118 C79.8425197,36.6470588 79.3307087,37.2647059 78.6141732,37.7794118 C77.8976378,38.2941176 77.1811024,38.8088235 76.4645669,39.1176471 C75.6456693,39.4264706 74.9291339,39.6323529 74.3149606,39.6323529 C74.4173228,39.1176471 74.4173228,38.6029412 74.4173228,38.0882353 Z" />
            <path
               fill="#003147"
               id="path372"
               d="M110.96063,52.7058824 C110.03937,50.9558824 109.015748,49.1029412 108.094488,47.3529412 C107.173228,45.6029412 106.251969,43.75 105.330709,42 C105.125984,42 104.818898,42 104.511811,42 C104.204724,42 104,42 103.692913,42 L99.496063,42 L99.496063,52.7058824 L91.8188976,52.7058824 L91.8188976,20.7941176 L104,20.7941176 C107.480315,20.7941176 110.551181,21.6176471 113.110236,23.2647059 C115.669291,24.9117647 116.897638,27.5882353 116.897638,31.2941176 C116.897638,33.25 116.488189,34.8970588 115.566929,36.3382353 C114.645669,37.7794118 113.519685,38.9117647 112.188976,39.7352941 C113.417323,41.8970588 114.645669,44.0588235 115.771654,46.2205882 C117,48.3823529 118.228346,50.5441176 119.354331,52.7058824 L110.96063,52.7058824 L110.96063,52.7058824 Z M103.897638,26.9705882 L99.5984252,26.9705882 L99.5984252,35.8235294 L104,35.8235294 C105.535433,35.8235294 106.76378,35.4117647 107.685039,34.6911765 C108.606299,33.9705882 109.11811,32.8382353 109.11811,31.3970588 C109.11811,29.8529412 108.708661,28.7205882 107.787402,28 C106.76378,27.2794118 105.535433,26.9705882 103.897638,26.9705882 Z" />
            <path
               fill="#003147"
               id="path374"
               d="M169.92126,52.7058824 L156.92126,52.7058824 L156.92126,20.7941176 L169.92126,20.7941176 C174.834646,20.7941176 178.622047,22.2352941 181.181102,25.2205882 C183.740157,28.2058824 184.968504,31.9117647 184.968504,36.5441176 C184.968504,41.4852941 183.637795,45.3970588 180.874016,48.3823529 C178.110236,51.2647059 174.425197,52.7058824 169.92126,52.7058824 Z M169.818898,26.9705882 L164.496063,26.9705882 L164.496063,46.5294118 L169.409449,46.5294118 C171.559055,46.5294118 173.401575,45.7058824 174.732283,44.0588235 C176.165354,42.4117647 176.88189,39.9411765 176.88189,36.4411765 C176.88189,33.5588235 176.267717,31.2941176 175.03937,29.5441176 C174.015748,27.7941176 172.173228,26.9705882 169.818898,26.9705882 Z" />
            <polygon
               points="197.661417 20.6911765 197.661417 52.6029412 189.984252 52.6029412 189.984252 20.6911765"
               fill="#003147"
               id="Path" />
            <path
               fill="#003147"
               id="path377"
               d="M211.787402,20.6911765 L211.787402,40.25 C211.787402,42.5147059 212.401575,44.1617647 213.527559,45.1911765 C214.653543,46.3235294 216.188976,46.8382353 217.929134,46.8382353 C219.771654,46.8382353 221.204724,46.3235294 222.330709,45.1911765 C223.456693,44.0588235 224.070866,42.4117647 224.070866,40.25 L224.070866,20.6911765 L231.748031,20.6911765 L231.748031,40.6617647 C231.748031,44.5735294 230.519685,47.6617647 227.96063,49.8235294 C225.401575,52.0882353 222.125984,53.1176471 217.929134,53.1176471 C213.834646,53.1176471 210.456693,51.9852941 207.897638,49.8235294 C205.338583,47.6617647 204.110236,44.5735294 204.110236,40.5588235 L204.110236,20.6911765 L211.787402,20.6911765 Z" />
            <path
               fill="#003147"
               id="path379"
               d="M236.354331,29.0294118 C236.354331,26.4558824 237.377953,24.3970588 239.425197,22.6470588 C241.472441,20.8970588 244.338583,20.0735294 247.92126,20.0735294 C249.559055,20.0735294 251.094488,20.2794118 252.732283,20.7941176 C254.370079,21.3088235 255.80315,21.8235294 257.031496,22.6470588 L254.677165,28.1029412 C253.244094,27.5882353 252.015748,27.1764706 251.094488,26.8676471 C250.173228,26.5588235 249.047244,26.4558824 247.92126,26.4558824 C246.795276,26.4558824 245.874016,26.6617647 245.259843,27.1764706 C244.543307,27.6911765 244.23622,28.3088235 244.23622,29.0294118 C244.23622,29.9558824 244.748031,30.6764706 245.771654,31.1911765 C246.795276,31.7058824 248.023622,32.4264706 249.456693,33.25 C251.708661,34.3823529 253.858268,35.8235294 255.905512,37.5735294 C257.952756,39.2205882 258.976378,41.3823529 258.976378,44.0588235 C258.976378,46.7352941 257.850394,48.8970588 255.700787,50.6470588 C253.551181,52.3970588 250.480315,53.3235294 246.590551,53.3235294 C245.055118,53.3235294 243.314961,53.0147059 241.165354,52.5 C239.015748,51.9852941 237.480315,51.3676471 236.456693,50.6470588 L238.811024,44.6764706 C239.732283,45.1911765 240.858268,45.7058824 242.291339,46.1176471 C243.724409,46.5294118 245.15748,46.8382353 246.283465,46.8382353 C247.818898,46.8382353 248.944882,46.5294118 249.76378,46.0147059 C250.582677,45.5 250.889764,44.7794118 250.889764,43.9558824 C250.889764,43.2352941 250.377953,42.5147059 249.251969,41.7941176 C248.125984,41.0735294 246.897638,40.4558824 245.669291,39.7352941 C243.519685,38.6029412 241.370079,37.2647059 239.322835,35.6176471 C237.377953,33.9705882 236.354331,31.8088235 236.354331,29.0294118 Z" />
            <path
               fill="#003147"
               id="path381"
               d="M141.259843,20.6911765 L153.543307,52.6029412 L145.661417,52.6029412 L143.204724,45.9117647 L131.84252,45.9117647 L129.385827,52.6029412 L121.811024,52.6029412 L133.889764,20.6911765 L141.259843,20.6911765 Z M137.472441,30.3676471 L134.094488,39.9411765 L141.055118,39.9411765 L137.472441,30.3676471 Z" />
          </g>
        </g>
      </g>
    </g>
  </g>
  <metadata
     id="metadata431">
    <rdf:RDF>
      <cc:Work
         rdf:about="">
        <dc:title></dc:title>
      </cc:Work>
    </rdf:RDF>
  </metadata>
</svg>
